%FSLAX44Y44*%
%MOMM*%
G71*
G01*
G75*
G04 Layer_Color=65535*
%ADD10O,1.0000X0.3000*%
%ADD11O,0.3000X1.9000*%
%ADD12P,1.0776X4X180.0*%
%ADD13P,1.0776X4X90.0*%
G04:AMPARAMS|DCode=14|XSize=0.35mm|YSize=1.8mm|CornerRadius=0mm|HoleSize=0mm|Usage=FLASHONLY|Rotation=225.000|XOffset=0mm|YOffset=0mm|HoleType=Round|Shape=Round|*
%AMOVALD14*
21,1,1.4500,0.3500,0.0000,0.0000,315.0*
1,1,0.3500,-0.5127,0.5127*
1,1,0.3500,0.5127,-0.5127*
%
%ADD14OVALD14*%

G04:AMPARAMS|DCode=15|XSize=0.3mm|YSize=1.8mm|CornerRadius=0mm|HoleSize=0mm|Usage=FLASHONLY|Rotation=45.000|XOffset=0mm|YOffset=0mm|HoleType=Round|Shape=Round|*
%AMOVALD15*
21,1,1.5000,0.3000,0.0000,0.0000,135.0*
1,1,0.3000,0.5303,-0.5303*
1,1,0.3000,-0.5303,0.5303*
%
%ADD15OVALD15*%

G04:AMPARAMS|DCode=16|XSize=0.3mm|YSize=1.8mm|CornerRadius=0mm|HoleSize=0mm|Usage=FLASHONLY|Rotation=135.000|XOffset=0mm|YOffset=0mm|HoleType=Round|Shape=Round|*
%AMOVALD16*
21,1,1.5000,0.3000,0.0000,0.0000,225.0*
1,1,0.3000,0.5303,0.5303*
1,1,0.3000,-0.5303,-0.5303*
%
%ADD16OVALD16*%

%ADD17R,0.7620X0.7620*%
%ADD18O,1.7000X0.3500*%
%ADD19C,0.2000*%
%ADD20C,0.3000*%
%ADD21R,2.0555X2.7112*%
%ADD22R,2.1110X2.7620*%
%ADD23R,2.4665X2.5737*%
%ADD24R,2.1650X2.4540*%
%ADD25C,1.7780*%
%ADD26R,1.7780X1.7780*%
%ADD27C,6.3500*%
%ADD28C,1.5240*%
%ADD29R,1.5240X1.5240*%
%ADD30R,1.7780X1.7780*%
%ADD31C,0.5000*%
%ADD32C,0.6600*%
%ADD33C,1.0160*%
%ADD34C,2.0320*%
G04:AMPARAMS|DCode=35|XSize=2.54mm|YSize=2.54mm|CornerRadius=0mm|HoleSize=0mm|Usage=FLASHONLY|Rotation=0.000|XOffset=0mm|YOffset=0mm|HoleType=Round|Shape=Relief|Width=0.254mm|Gap=0.254mm|Entries=4|*
%AMTHD35*
7,0,0,2.5400,2.0320,0.2540,45*
%
%ADD35THD35*%
%ADD36C,4.1160*%
%ADD37C,1.3160*%
G04:AMPARAMS|DCode=38|XSize=1.824mm|YSize=1.824mm|CornerRadius=0mm|HoleSize=0mm|Usage=FLASHONLY|Rotation=0.000|XOffset=0mm|YOffset=0mm|HoleType=Round|Shape=Relief|Width=0.254mm|Gap=0.254mm|Entries=4|*
%AMTHD38*
7,0,0,1.8240,1.3160,0.2540,45*
%
%ADD38THD38*%
G04:AMPARAMS|DCode=39|XSize=1.854mm|YSize=1.854mm|CornerRadius=0mm|HoleSize=0mm|Usage=FLASHONLY|Rotation=0.000|XOffset=0mm|YOffset=0mm|HoleType=Round|Shape=Relief|Width=0.254mm|Gap=0.254mm|Entries=4|*
%AMTHD39*
7,0,0,1.8540,1.3460,0.2540,45*
%
%ADD39THD39*%
%ADD40C,1.3460*%
%ADD41R,1.3000X1.5000*%
%ADD42R,0.7620X0.7620*%
%ADD43R,1.0160X1.2700*%
%ADD44R,1.6000X1.6000*%
%ADD45O,0.3000X0.8000*%
%ADD46O,0.8000X0.3000*%
%ADD47R,1.2700X1.0160*%
G04:AMPARAMS|DCode=48|XSize=1.016mm|YSize=1.27mm|CornerRadius=0mm|HoleSize=0mm|Usage=FLASHONLY|Rotation=45.000|XOffset=0mm|YOffset=0mm|HoleType=Round|Shape=Rectangle|*
%AMROTATEDRECTD48*
4,1,4,0.0898,-0.8082,-0.8082,0.0898,-0.0898,0.8082,0.8082,-0.0898,0.0898,-0.8082,0.0*
%
%ADD48ROTATEDRECTD48*%

G04:AMPARAMS|DCode=49|XSize=1.016mm|YSize=1.27mm|CornerRadius=0mm|HoleSize=0mm|Usage=FLASHONLY|Rotation=135.000|XOffset=0mm|YOffset=0mm|HoleType=Round|Shape=Rectangle|*
%AMROTATEDRECTD49*
4,1,4,0.8082,0.0898,-0.0898,-0.8082,-0.8082,-0.0898,0.0898,0.8082,0.8082,0.0898,0.0*
%
%ADD49ROTATEDRECTD49*%

%ADD50R,1.6500X2.3000*%
G04:AMPARAMS|DCode=51|XSize=1.3mm|YSize=2mm|CornerRadius=0mm|HoleSize=0mm|Usage=FLASHONLY|Rotation=315.000|XOffset=0mm|YOffset=0mm|HoleType=Round|Shape=Round|*
%AMOVALD51*
21,1,0.7000,1.3000,0.0000,0.0000,45.0*
1,1,1.3000,-0.2475,-0.2475*
1,1,1.3000,0.2475,0.2475*
%
%ADD51OVALD51*%

G04:AMPARAMS|DCode=52|XSize=1.3mm|YSize=2mm|CornerRadius=0mm|HoleSize=0mm|Usage=FLASHONLY|Rotation=315.000|XOffset=0mm|YOffset=0mm|HoleType=Round|Shape=Rectangle|*
%AMROTATEDRECTD52*
4,1,4,-1.1667,-0.2475,0.2475,1.1667,1.1667,0.2475,-0.2475,-1.1667,-1.1667,-0.2475,0.0*
%
%ADD52ROTATEDRECTD52*%

%ADD53R,1.5000X1.3000*%
G04:AMPARAMS|DCode=54|XSize=0.7mm|YSize=2.1mm|CornerRadius=0mm|HoleSize=0mm|Usage=FLASHONLY|Rotation=135.000|XOffset=0mm|YOffset=0mm|HoleType=Round|Shape=Round|*
%AMOVALD54*
21,1,1.4000,0.7000,0.0000,0.0000,225.0*
1,1,0.7000,0.4950,0.4950*
1,1,0.7000,-0.4950,-0.4950*
%
%ADD54OVALD54*%

%ADD55C,0.4000*%
%ADD56C,2.0000*%
%ADD57C,0.2500*%
%ADD58C,0.6000*%
%ADD59C,0.1270*%
%ADD60C,0.2540*%
%ADD61C,0.1500*%
%ADD62C,0.5000*%
D19*
X896500Y218000D02*
X1123500D01*
X896500Y302000D02*
X1123500D01*
X896500Y218000D02*
Y302000D01*
X1123500Y218000D02*
Y302000D01*
X378686Y324645D02*
X425355Y371314D01*
X354645Y348686D02*
X401314Y395355D01*
X354645Y348686D02*
X378686Y324645D01*
X401314Y395355D02*
X425355Y371314D01*
X600000Y58374D02*
X791626Y250000D01*
X408374D02*
X600000Y441626D01*
X791626Y250000D01*
X408374D02*
X600000Y58374D01*
X438686Y384645D02*
X485355Y431314D01*
X414645Y408686D02*
X461314Y455355D01*
X414645Y408686D02*
X438686Y384645D01*
X461314Y455355D02*
X485355Y431314D01*
X1136000Y367000D02*
Y433000D01*
X1104000D02*
X1104000Y367000D01*
X1136000D01*
X1104000Y433000D02*
X1136000D01*
D57*
X899250Y204500D02*
G03*
X899250Y204500I-1250J0D01*
G01*
X386654Y312977D02*
G03*
X386654Y312977I-1250J0D01*
G01*
X401139Y240100D02*
G03*
X401139Y240100I-1250J0D01*
G01*
X446654Y372977D02*
G03*
X446654Y372977I-1250J0D01*
G01*
X1149750Y363500D02*
G03*
X1149750Y363500I-1250J0D01*
G01*
D58*
X909500Y228000D02*
G03*
X909500Y228000I-3000J0D01*
G01*
X381686Y338787D02*
G03*
X381686Y338787I-3000J0D01*
G01*
X425516Y250000D02*
G03*
X425516Y250000I-3000J0D01*
G01*
X441686Y398787D02*
G03*
X441686Y398787I-3000J0D01*
G01*
X1129000Y377000D02*
G03*
X1129000Y377000I-3000J0D01*
G01*
D59*
X88100Y450000D02*
G03*
X88100Y450000I-38100J0D01*
G01*
X1238100D02*
G03*
X1238100Y450000I-38100J0D01*
G01*
X856778Y345386D02*
X857540D01*
X859952D01*
X855762Y345386D02*
X857794Y345386D01*
X855762Y345386D02*
X855952Y345386D01*
X859952Y349386D01*
Y345386D02*
Y349386D01*
Y388688D01*
X842176D02*
X859952D01*
Y345386D02*
Y349386D01*
X842262Y345386D02*
X859952D01*
X842178Y345470D02*
X842262Y345386D01*
X842178Y345470D02*
Y388688D01*
X856778Y295386D02*
X857540D01*
X859952D01*
X855762Y295386D02*
X857794Y295386D01*
X855762Y295386D02*
X855952Y295386D01*
X859952Y299386D01*
Y295386D02*
Y299386D01*
Y338688D01*
X842176D02*
X859952D01*
Y295386D02*
Y299386D01*
X842262Y295386D02*
X859952D01*
X842178Y295470D02*
X842262Y295386D01*
X842178Y295470D02*
Y338688D01*
X374397Y301878D02*
X392537Y283738D01*
X382659Y310140D02*
X400799Y292000D01*
X374397Y301878D02*
X382659Y310140D01*
X392537Y283738D02*
X400799Y292000D01*
X371738Y210000D02*
X389878Y228140D01*
X380000Y201738D02*
X398140Y219878D01*
X389878Y228140D02*
X398140Y219878D01*
X371738Y210000D02*
X380000Y201738D01*
X531860Y449878D02*
X550000Y431738D01*
X540122Y458140D02*
X558262Y440000D01*
X531860Y449878D02*
X540122Y458140D01*
X550000Y431738D02*
X558262Y440000D01*
X521860Y439878D02*
X540000Y421738D01*
X530122Y448140D02*
X548262Y430000D01*
X521860Y439878D02*
X530122Y448140D01*
X540000Y421738D02*
X548262Y430000D01*
X856778Y395386D02*
X857540D01*
X859952D01*
X855762Y395386D02*
X857794Y395386D01*
X855762Y395386D02*
X855952Y395386D01*
X859952Y399386D01*
Y395386D02*
Y399386D01*
Y438688D01*
X842176D02*
X859952D01*
Y395386D02*
Y399386D01*
X842262Y395386D02*
X859952D01*
X842178Y395470D02*
X842262Y395386D01*
X842178Y395470D02*
Y438688D01*
X856778Y245386D02*
X857540D01*
X859952D01*
X855762Y245386D02*
X857794Y245386D01*
X855762Y245386D02*
X855952Y245386D01*
X859952Y249386D01*
Y245386D02*
Y249386D01*
Y288688D01*
X842176D02*
X859952D01*
Y245386D02*
Y249386D01*
X842262Y245386D02*
X859952D01*
X842178Y245470D02*
X842262Y245386D01*
X842178Y245470D02*
Y288688D01*
X856778Y195386D02*
X857540D01*
X859952D01*
X855762Y195386D02*
X857794Y195386D01*
X855762Y195386D02*
X855952Y195386D01*
X859952Y199386D01*
Y195386D02*
Y199386D01*
Y238688D01*
X842176D02*
X859952D01*
Y195386D02*
Y199386D01*
X842262Y195386D02*
X859952D01*
X842178Y195470D02*
X842262Y195386D01*
X842178Y195470D02*
Y238688D01*
X856778Y145386D02*
X857540D01*
X859952D01*
X855762Y145386D02*
X857794Y145386D01*
X855762Y145386D02*
X855952Y145386D01*
X859952Y149386D01*
Y145386D02*
Y149386D01*
Y188688D01*
X842176D02*
X859952D01*
Y145386D02*
Y149386D01*
X842262Y145386D02*
X859952D01*
X842178Y145470D02*
X842262Y145386D01*
X842178Y145470D02*
Y188688D01*
X856778Y95386D02*
X857540D01*
X859952D01*
X855762Y95386D02*
X857794Y95386D01*
X855762Y95386D02*
X855952Y95386D01*
X859952Y99386D01*
Y95386D02*
Y99386D01*
Y138688D01*
X842176D02*
X859952D01*
Y95386D02*
Y99386D01*
X842262Y95386D02*
X859952D01*
X842178Y95470D02*
X842262Y95386D01*
X842178Y95470D02*
Y138688D01*
X1029285Y420141D02*
X1040969D01*
X1029285Y445795D02*
X1040969D01*
Y420141D02*
Y445795D01*
X1029285Y420141D02*
Y445795D01*
X1044285Y420141D02*
X1055969D01*
X1044285Y445795D02*
X1055969D01*
Y420141D02*
Y445795D01*
X1044285Y420141D02*
Y445795D01*
X1059285Y420141D02*
X1070969D01*
X1059285Y445795D02*
X1070969D01*
Y420141D02*
Y445795D01*
X1059285Y420141D02*
Y445795D01*
X1061158Y384158D02*
X1072842D01*
X1061158Y409812D02*
X1072842D01*
Y384158D02*
Y409812D01*
X1061158Y384158D02*
Y409812D01*
D60*
X1206400Y19600D02*
Y74600D01*
X944400D02*
X1206400D01*
X944400Y19600D02*
Y74600D01*
Y19600D02*
X1206400D01*
X305000Y19600D02*
Y74600D01*
X43000D02*
X305000D01*
X43000Y19600D02*
Y74600D01*
Y19600D02*
X305000D01*
X650157Y52696D02*
X647617Y55235D01*
X642539D01*
X640000Y52696D01*
Y50157D01*
X642539Y47618D01*
X647617D01*
X650157Y45078D01*
Y42539D01*
X647617Y40000D01*
X642539D01*
X640000Y42539D01*
X657774Y52696D02*
Y50157D01*
X655235D01*
X660313D01*
X657774D01*
Y42539D01*
X660313Y40000D01*
X675548D02*
X670470D01*
X667931Y42539D01*
Y47618D01*
X670470Y50157D01*
X675548D01*
X678088Y47618D01*
Y45078D01*
X667931D01*
X683166Y50157D02*
Y40000D01*
Y45078D01*
X685705Y47618D01*
X688244Y50157D01*
X690784D01*
X706019Y40000D02*
X700940D01*
X698401Y42539D01*
Y47618D01*
X700940Y50157D01*
X706019D01*
X708558Y47618D01*
Y45078D01*
X698401D01*
X716175Y40000D02*
X721254D01*
X723793Y42539D01*
Y47618D01*
X721254Y50157D01*
X716175D01*
X713636Y47618D01*
Y42539D01*
X716175Y40000D01*
X754263Y50157D02*
X746646D01*
X744106Y47618D01*
Y42539D01*
X746646Y40000D01*
X754263D01*
X761881Y50157D02*
X766959D01*
X769498Y47618D01*
Y40000D01*
X761881D01*
X759341Y42539D01*
X761881Y45078D01*
X769498D01*
X774576Y40000D02*
Y50157D01*
X777116D01*
X779655Y47618D01*
Y40000D01*
Y47618D01*
X782194Y50157D01*
X784733Y47618D01*
Y40000D01*
X805047Y55235D02*
Y40000D01*
X812664D01*
X815203Y42539D01*
Y45078D01*
Y47618D01*
X812664Y50157D01*
X805047D01*
X822821Y40000D02*
X827899D01*
X830438Y42539D01*
Y47618D01*
X827899Y50157D01*
X822821D01*
X820282Y47618D01*
Y42539D01*
X822821Y40000D01*
X838056Y50157D02*
X843134D01*
X845674Y47618D01*
Y40000D01*
X838056D01*
X835517Y42539D01*
X838056Y45078D01*
X845674D01*
X850752Y50157D02*
Y40000D01*
Y45078D01*
X853291Y47618D01*
X855830Y50157D01*
X858369D01*
X876144Y55235D02*
Y40000D01*
X868526D01*
X865987Y42539D01*
Y47618D01*
X868526Y50157D01*
X876144D01*
D61*
X875000Y415000D02*
X867003D01*
Y418999D01*
X868335Y420332D01*
X871001D01*
X872334Y418999D01*
Y415000D01*
Y417666D02*
X875000Y420332D01*
Y422997D02*
X867003D01*
Y426996D01*
X868335Y428329D01*
X871001D01*
X872334Y426996D01*
Y422997D01*
X867003Y430995D02*
Y436326D01*
X868335D01*
X873667Y430995D01*
X875000D01*
X874281Y214000D02*
X866284D01*
Y217999D01*
X867617Y219332D01*
X870283D01*
X871616Y217999D01*
Y214000D01*
Y216666D02*
X874281Y219332D01*
Y221997D02*
X866284D01*
Y225996D01*
X867617Y227329D01*
X870283D01*
X871616Y225996D01*
Y221997D01*
X866284Y235326D02*
X867617Y232661D01*
X870283Y229995D01*
X872949D01*
X874281Y231328D01*
Y233994D01*
X872949Y235326D01*
X871616D01*
X870283Y233994D01*
Y229995D01*
X875000Y360000D02*
X867003D01*
Y363999D01*
X868335Y365332D01*
X871001D01*
X872334Y363999D01*
Y360000D01*
Y362666D02*
X875000Y365332D01*
Y367997D02*
X867003D01*
Y371996D01*
X868335Y373329D01*
X871001D01*
X872334Y371996D01*
Y367997D01*
X867003Y381326D02*
Y375995D01*
X871001D01*
X869668Y378661D01*
Y379994D01*
X871001Y381326D01*
X873667D01*
X875000Y379994D01*
Y377328D01*
X873667Y375995D01*
X875000Y160000D02*
X867003D01*
Y163999D01*
X868335Y165332D01*
X871001D01*
X872334Y163999D01*
Y160000D01*
Y162666D02*
X875000Y165332D01*
Y167997D02*
X867003D01*
Y171996D01*
X868335Y173329D01*
X871001D01*
X872334Y171996D01*
Y167997D01*
X875000Y179994D02*
X867003D01*
X871001Y175995D01*
Y181327D01*
X874406Y314000D02*
X866408D01*
Y317999D01*
X867741Y319332D01*
X870407D01*
X871740Y317999D01*
Y314000D01*
Y316666D02*
X874406Y319332D01*
Y321997D02*
X866408D01*
Y325996D01*
X867741Y327329D01*
X870407D01*
X871740Y325996D01*
Y321997D01*
X867741Y329995D02*
X866408Y331328D01*
Y333994D01*
X867741Y335326D01*
X869074D01*
X870407Y333994D01*
Y332661D01*
Y333994D01*
X871740Y335326D01*
X873073D01*
X874406Y333994D01*
Y331328D01*
X873073Y329995D01*
X875000Y263000D02*
X867003D01*
Y266999D01*
X868335Y268332D01*
X871001D01*
X872334Y266999D01*
Y263000D01*
Y265666D02*
X875000Y268332D01*
Y270997D02*
X867003D01*
Y274996D01*
X868335Y276329D01*
X871001D01*
X872334Y274996D01*
Y270997D01*
X875000Y284326D02*
Y278995D01*
X869668Y284326D01*
X868335D01*
X867003Y282994D01*
Y280328D01*
X868335Y278995D01*
X876000Y112000D02*
X868003D01*
Y115999D01*
X869335Y117332D01*
X872001D01*
X873334Y115999D01*
Y112000D01*
Y114666D02*
X876000Y117332D01*
Y119997D02*
X868003D01*
Y123996D01*
X869335Y125329D01*
X872001D01*
X873334Y123996D01*
Y119997D01*
X876000Y127995D02*
Y130661D01*
Y129328D01*
X868003D01*
X869335Y127995D01*
X375000Y310000D02*
X369345Y304345D01*
X366517Y307173D01*
Y309058D01*
X368402Y310942D01*
X370288Y310942D01*
X373115Y308115D01*
X371230Y310000D02*
Y313770D01*
X369345Y315655D02*
X367460Y317540D01*
X368402Y316597D01*
X362747Y310942D01*
X364632Y310942D01*
X359920Y315655D02*
X358035Y315655D01*
X356150Y317540D01*
Y319425D01*
X357092Y320368D01*
X358977D01*
Y322253D01*
X359920Y323195D01*
X361805Y323195D01*
X363690Y321310D01*
Y319425D01*
X362747Y318482D01*
X360862D01*
Y316597D01*
X359920Y315655D01*
X360862Y318482D02*
X358977Y320368D01*
X892556Y345055D02*
Y338391D01*
X893889Y337058D01*
X896555D01*
X897888Y338391D01*
Y345055D01*
X900553D02*
X905885D01*
Y343722D01*
X900553Y338391D01*
Y337058D01*
X1108000Y448997D02*
Y442333D01*
X1109333Y441000D01*
X1111999D01*
X1113332Y442333D01*
Y448997D01*
X1121329D02*
X1118663Y447664D01*
X1115997Y444999D01*
Y442333D01*
X1117330Y441000D01*
X1119996D01*
X1121329Y442333D01*
Y443666D01*
X1119996Y444999D01*
X1115997D01*
X516000Y429000D02*
X521655Y434655D01*
X524483Y431828D01*
Y429943D01*
X522598Y428058D01*
X520713Y428058D01*
X517885Y430885D01*
X519770Y429000D02*
Y425230D01*
X521655Y423345D02*
X523540Y421460D01*
X522598Y422402D01*
X528253Y428058D01*
X526368Y428058D01*
Y418632D02*
X528253Y416747D01*
X527310Y417690D01*
X532965Y423345D01*
X531080Y423345D01*
X1070000Y450000D02*
X1062003D01*
Y453999D01*
X1063335Y455332D01*
X1066001D01*
X1067334Y453999D01*
Y450000D01*
Y452666D02*
X1070000Y455332D01*
X1068667Y457997D02*
X1070000Y459330D01*
Y461996D01*
X1068667Y463329D01*
X1063335D01*
X1062003Y461996D01*
Y459330D01*
X1063335Y457997D01*
X1064668D01*
X1066001Y459330D01*
Y463329D01*
X1055000Y450000D02*
X1047003D01*
Y453999D01*
X1048335Y455332D01*
X1051001D01*
X1052334Y453999D01*
Y450000D01*
Y452666D02*
X1055000Y455332D01*
X1048335Y457997D02*
X1047003Y459330D01*
Y461996D01*
X1048335Y463329D01*
X1049668D01*
X1051001Y461996D01*
X1052334Y463329D01*
X1053667D01*
X1055000Y461996D01*
Y459330D01*
X1053667Y457997D01*
X1052334D01*
X1051001Y459330D01*
X1049668Y457997D01*
X1048335D01*
X1051001Y459330D02*
Y461996D01*
X1040000Y450000D02*
X1032003D01*
Y453999D01*
X1033335Y455332D01*
X1036001D01*
X1037334Y453999D01*
Y450000D01*
Y452666D02*
X1040000Y455332D01*
X1032003Y457997D02*
Y463329D01*
X1033335D01*
X1038667Y457997D01*
X1040000D01*
X1049362Y392082D02*
X1048029Y390749D01*
Y388083D01*
X1049362Y386750D01*
X1054694D01*
X1056027Y388083D01*
Y390749D01*
X1054694Y392082D01*
X1056027Y398746D02*
X1048029D01*
X1052028Y394747D01*
Y400079D01*
X1049362Y402745D02*
X1048029Y404078D01*
Y406744D01*
X1049362Y408077D01*
X1050695D01*
X1052028Y406744D01*
Y405411D01*
Y406744D01*
X1053361Y408077D01*
X1054694D01*
X1056027Y406744D01*
Y404078D01*
X1054694Y402745D01*
X3810Y106803D02*
Y98806D01*
Y101472D01*
X9142Y106803D01*
X5143Y102805D01*
X9142Y98806D01*
X11807D02*
X14473D01*
X13140D01*
Y106803D01*
X11807Y105471D01*
X1097000Y109249D02*
Y101251D01*
Y103917D01*
X1102332Y109249D01*
X1098333Y105250D01*
X1102332Y101251D01*
X1110329D02*
X1104997D01*
X1110329Y106583D01*
Y107916D01*
X1108996Y109249D01*
X1106330D01*
X1104997Y107916D01*
X369000Y194000D02*
X363345Y199655D01*
X366172Y202483D01*
X368058D01*
X369943Y200597D01*
X369943Y198713D01*
X367115Y195885D01*
X369000Y197770D02*
X372770D01*
X374655Y199655D02*
X376540Y201540D01*
X375597Y200597D01*
X369943Y206253D01*
X369943Y204368D01*
X579000Y468997D02*
Y462333D01*
X580333Y461000D01*
X582999D01*
X584332Y462333D01*
Y468997D01*
X586997Y461000D02*
X589663D01*
X588330D01*
Y468997D01*
X586997Y467664D01*
X1186000Y398000D02*
Y405997D01*
X1188666Y403332D01*
X1191332Y405997D01*
Y398000D01*
X1193997Y404664D02*
X1195330Y405997D01*
X1197996D01*
X1199329Y404664D01*
Y403332D01*
X1197996Y401999D01*
X1196663D01*
X1197996D01*
X1199329Y400666D01*
Y399333D01*
X1197996Y398000D01*
X1195330D01*
X1193997Y399333D01*
X10000Y480000D02*
Y487997D01*
X12666Y485332D01*
X15332Y487997D01*
Y480000D01*
X21996D02*
Y487997D01*
X17997Y483999D01*
X23329D01*
X344345Y334655D02*
X349058Y329943D01*
X350942D01*
X352827Y331828D01*
X352827Y333713D01*
X348115Y338425D01*
X354712Y335598D02*
X356598D01*
X358483Y337483D01*
X358483Y339368D01*
X354712Y343138D01*
X352827D01*
X350942Y341253D01*
X350942Y339368D01*
X351885Y338425D01*
X353770Y338425D01*
X356598Y341253D01*
X426345Y378605D02*
X431058Y383317D01*
Y385202D01*
X429173Y387087D01*
X427287Y387087D01*
X422575Y382375D01*
X426345Y389915D02*
X424460Y391800D01*
X425402Y390857D01*
X419747Y385202D01*
X421632Y385202D01*
X416920Y389915D02*
X415035Y389915D01*
X413150Y391800D01*
Y393685D01*
X416920Y397455D01*
X418805Y397455D01*
X420690Y395570D01*
Y393685D01*
X416920Y389915D01*
X546000Y458000D02*
X551655Y463655D01*
X554483Y460827D01*
Y458942D01*
X552598Y457057D01*
X550713Y457057D01*
X547885Y459885D01*
X549770Y458000D02*
Y454230D01*
X555425Y448575D02*
X551655Y452345D01*
X559195D01*
X560138Y453288D01*
Y455173D01*
X558253Y457057D01*
X556368Y457057D01*
X561080Y442920D02*
X557310Y446690D01*
X564850D01*
X565793Y447632D01*
Y449517D01*
X563908Y451403D01*
X562023Y451403D01*
X680000Y67997D02*
Y60000D01*
X683999D01*
X685332Y61333D01*
Y66665D01*
X683999Y67997D01*
X680000D01*
X691996Y60000D02*
X689330D01*
X687997Y61333D01*
Y63999D01*
X689330Y65332D01*
X691996D01*
X693329Y63999D01*
Y62666D01*
X687997D01*
X695995Y60000D02*
X699994D01*
X701327Y61333D01*
X699994Y62666D01*
X697328D01*
X695995Y63999D01*
X697328Y65332D01*
X701327D01*
X703992Y60000D02*
X706658D01*
X705325D01*
Y65332D01*
X703992D01*
X713323Y57334D02*
X714656D01*
X715988Y58667D01*
Y65332D01*
X711990D01*
X710657Y63999D01*
Y61333D01*
X711990Y60000D01*
X715988D01*
X718654D02*
Y65332D01*
X722653D01*
X723986Y63999D01*
Y60000D01*
X730650D02*
X727984D01*
X726652Y61333D01*
Y63999D01*
X727984Y65332D01*
X730650D01*
X731983Y63999D01*
Y62666D01*
X726652D01*
X739981Y67997D02*
Y60000D01*
X735982D01*
X734649Y61333D01*
Y63999D01*
X735982Y65332D01*
X739981D01*
X750644Y67997D02*
Y60000D01*
X754643D01*
X755975Y61333D01*
Y62666D01*
Y63999D01*
X754643Y65332D01*
X750644D01*
X758641D02*
Y61333D01*
X759974Y60000D01*
X763973D01*
Y58667D01*
X762640Y57334D01*
X761307D01*
X763973Y60000D02*
Y65332D01*
X774636Y60000D02*
Y67997D01*
X778635D01*
X779968Y66665D01*
Y63999D01*
X778635Y62666D01*
X774636D01*
X777302D02*
X779968Y60000D01*
X783967D02*
X786632D01*
X787965Y61333D01*
Y63999D01*
X786632Y65332D01*
X783967D01*
X782634Y63999D01*
Y61333D01*
X783967Y60000D01*
X790631Y67997D02*
Y60000D01*
X794630D01*
X795963Y61333D01*
Y62666D01*
Y63999D01*
X794630Y65332D01*
X790631D01*
X798628Y60000D02*
X801294D01*
X799961D01*
Y65332D01*
X798628D01*
X805293Y60000D02*
Y65332D01*
X809292D01*
X810624Y63999D01*
Y60000D01*
X821288Y67997D02*
X826619D01*
X823954D01*
Y60000D01*
X829285Y67997D02*
Y60000D01*
Y63999D01*
X830618Y65332D01*
X833284D01*
X834617Y63999D01*
Y60000D01*
X841281D02*
X838615D01*
X837283Y61333D01*
Y63999D01*
X838615Y65332D01*
X841281D01*
X842614Y63999D01*
Y62666D01*
X837283D01*
X845280Y65332D02*
Y61333D01*
X846613Y60000D01*
X850612D01*
Y65332D01*
X853277Y60000D02*
Y65332D01*
X857276D01*
X858609Y63999D01*
Y60000D01*
X861275D02*
X863941D01*
X862608D01*
Y65332D01*
X861275D01*
X867939Y60000D02*
X871938D01*
X873271Y61333D01*
X871938Y62666D01*
X869272D01*
X867939Y63999D01*
X869272Y65332D01*
X873271D01*
D62*
X630000Y29994D02*
X643329D01*
X636665D01*
Y10000D01*
X659990D02*
X653326D01*
X649994Y13332D01*
Y19997D01*
X653326Y23329D01*
X659990D01*
X663323Y19997D01*
Y16665D01*
X649994D01*
X673319Y23329D02*
X679984D01*
X683316Y19997D01*
Y10000D01*
X673319D01*
X669987Y13332D01*
X673319Y16665D01*
X683316D01*
X689981Y10000D02*
Y23329D01*
X693313D01*
X696645Y19997D01*
Y10000D01*
Y19997D01*
X699977Y23329D01*
X703310Y19997D01*
Y10000D01*
X743297Y26661D02*
X739965Y29994D01*
X733300D01*
X729968Y26661D01*
Y13332D01*
X733300Y10000D01*
X739965D01*
X743297Y13332D01*
Y19997D01*
X736632D01*
X749961Y23329D02*
Y10000D01*
Y16665D01*
X753294Y19997D01*
X756626Y23329D01*
X759958D01*
X773287D02*
X779952D01*
X783284Y19997D01*
Y10000D01*
X773287D01*
X769955Y13332D01*
X773287Y16665D01*
X783284D01*
X789949Y23329D02*
X796613Y10000D01*
X803278Y23329D01*
X809942Y10000D02*
X816607D01*
X813274D01*
Y23329D01*
X809942D01*
X829936Y26661D02*
Y23329D01*
X826603D01*
X833268D01*
X829936D01*
Y13332D01*
X833268Y10000D01*
X846597D02*
X853261D01*
X856594Y13332D01*
Y19997D01*
X853261Y23329D01*
X846597D01*
X843265Y19997D01*
Y13332D01*
X846597Y10000D01*
X863258D02*
Y23329D01*
X873255D01*
X876587Y19997D01*
Y10000D01*
M02*
