%FSLAX44Y44*%
%MOMM*%
G71*
G01*
G75*
G04 Layer_Color=16711935*
%ADD10O,1.0000X0.3000*%
%ADD11O,0.3000X1.9000*%
%ADD12P,1.0776X4X180.0*%
%ADD13P,1.0776X4X90.0*%
G04:AMPARAMS|DCode=14|XSize=0.35mm|YSize=1.8mm|CornerRadius=0mm|HoleSize=0mm|Usage=FLASHONLY|Rotation=225.000|XOffset=0mm|YOffset=0mm|HoleType=Round|Shape=Round|*
%AMOVALD14*
21,1,1.4500,0.3500,0.0000,0.0000,315.0*
1,1,0.3500,-0.5127,0.5127*
1,1,0.3500,0.5127,-0.5127*
%
%ADD14OVALD14*%

G04:AMPARAMS|DCode=15|XSize=0.3mm|YSize=1.8mm|CornerRadius=0mm|HoleSize=0mm|Usage=FLASHONLY|Rotation=45.000|XOffset=0mm|YOffset=0mm|HoleType=Round|Shape=Round|*
%AMOVALD15*
21,1,1.5000,0.3000,0.0000,0.0000,135.0*
1,1,0.3000,0.5303,-0.5303*
1,1,0.3000,-0.5303,0.5303*
%
%ADD15OVALD15*%

G04:AMPARAMS|DCode=16|XSize=0.3mm|YSize=1.8mm|CornerRadius=0mm|HoleSize=0mm|Usage=FLASHONLY|Rotation=135.000|XOffset=0mm|YOffset=0mm|HoleType=Round|Shape=Round|*
%AMOVALD16*
21,1,1.5000,0.3000,0.0000,0.0000,225.0*
1,1,0.3000,0.5303,0.5303*
1,1,0.3000,-0.5303,-0.5303*
%
%ADD16OVALD16*%

%ADD17R,0.7620X0.7620*%
%ADD18O,1.7000X0.3500*%
%ADD19C,0.2000*%
%ADD20C,0.3000*%
%ADD21R,2.0555X2.7112*%
%ADD22R,2.1110X2.7620*%
%ADD23R,2.4665X2.5737*%
%ADD24R,2.1650X2.4540*%
%ADD25C,1.7780*%
%ADD26R,1.7780X1.7780*%
%ADD27C,6.3500*%
%ADD28C,1.5240*%
%ADD29R,1.5240X1.5240*%
%ADD30R,1.7780X1.7780*%
%ADD31C,0.5000*%
%ADD32C,0.6600*%
%ADD33C,1.0160*%
%ADD34C,2.0320*%
G04:AMPARAMS|DCode=35|XSize=2.54mm|YSize=2.54mm|CornerRadius=0mm|HoleSize=0mm|Usage=FLASHONLY|Rotation=0.000|XOffset=0mm|YOffset=0mm|HoleType=Round|Shape=Relief|Width=0.254mm|Gap=0.254mm|Entries=4|*
%AMTHD35*
7,0,0,2.5400,2.0320,0.2540,45*
%
%ADD35THD35*%
%ADD36C,4.1160*%
%ADD37C,1.3160*%
G04:AMPARAMS|DCode=38|XSize=1.824mm|YSize=1.824mm|CornerRadius=0mm|HoleSize=0mm|Usage=FLASHONLY|Rotation=0.000|XOffset=0mm|YOffset=0mm|HoleType=Round|Shape=Relief|Width=0.254mm|Gap=0.254mm|Entries=4|*
%AMTHD38*
7,0,0,1.8240,1.3160,0.2540,45*
%
%ADD38THD38*%
G04:AMPARAMS|DCode=39|XSize=1.854mm|YSize=1.854mm|CornerRadius=0mm|HoleSize=0mm|Usage=FLASHONLY|Rotation=0.000|XOffset=0mm|YOffset=0mm|HoleType=Round|Shape=Relief|Width=0.254mm|Gap=0.254mm|Entries=4|*
%AMTHD39*
7,0,0,1.8540,1.3460,0.2540,45*
%
%ADD39THD39*%
%ADD40C,1.3460*%
%ADD41R,1.3000X1.5000*%
%ADD42R,0.7620X0.7620*%
%ADD43R,1.0160X1.2700*%
%ADD44R,1.6000X1.6000*%
%ADD45O,0.3000X0.8000*%
%ADD46O,0.8000X0.3000*%
%ADD47R,1.2700X1.0160*%
G04:AMPARAMS|DCode=48|XSize=1.016mm|YSize=1.27mm|CornerRadius=0mm|HoleSize=0mm|Usage=FLASHONLY|Rotation=45.000|XOffset=0mm|YOffset=0mm|HoleType=Round|Shape=Rectangle|*
%AMROTATEDRECTD48*
4,1,4,0.0898,-0.8082,-0.8082,0.0898,-0.0898,0.8082,0.8082,-0.0898,0.0898,-0.8082,0.0*
%
%ADD48ROTATEDRECTD48*%

G04:AMPARAMS|DCode=49|XSize=1.016mm|YSize=1.27mm|CornerRadius=0mm|HoleSize=0mm|Usage=FLASHONLY|Rotation=135.000|XOffset=0mm|YOffset=0mm|HoleType=Round|Shape=Rectangle|*
%AMROTATEDRECTD49*
4,1,4,0.8082,0.0898,-0.0898,-0.8082,-0.8082,-0.0898,0.0898,0.8082,0.8082,0.0898,0.0*
%
%ADD49ROTATEDRECTD49*%

%ADD50R,1.6500X2.3000*%
G04:AMPARAMS|DCode=51|XSize=1.3mm|YSize=2mm|CornerRadius=0mm|HoleSize=0mm|Usage=FLASHONLY|Rotation=315.000|XOffset=0mm|YOffset=0mm|HoleType=Round|Shape=Round|*
%AMOVALD51*
21,1,0.7000,1.3000,0.0000,0.0000,45.0*
1,1,1.3000,-0.2475,-0.2475*
1,1,1.3000,0.2475,0.2475*
%
%ADD51OVALD51*%

G04:AMPARAMS|DCode=52|XSize=1.3mm|YSize=2mm|CornerRadius=0mm|HoleSize=0mm|Usage=FLASHONLY|Rotation=315.000|XOffset=0mm|YOffset=0mm|HoleType=Round|Shape=Rectangle|*
%AMROTATEDRECTD52*
4,1,4,-1.1667,-0.2475,0.2475,1.1667,1.1667,0.2475,-0.2475,-1.1667,-1.1667,-0.2475,0.0*
%
%ADD52ROTATEDRECTD52*%

%ADD53R,1.5000X1.3000*%
G04:AMPARAMS|DCode=54|XSize=0.7mm|YSize=2.1mm|CornerRadius=0mm|HoleSize=0mm|Usage=FLASHONLY|Rotation=135.000|XOffset=0mm|YOffset=0mm|HoleType=Round|Shape=Round|*
%AMOVALD54*
21,1,1.4000,0.7000,0.0000,0.0000,225.0*
1,1,0.7000,0.4950,0.4950*
1,1,0.7000,-0.4950,-0.4950*
%
%ADD54OVALD54*%

%ADD55C,0.4000*%
%ADD56C,2.0000*%
%ADD57C,0.2500*%
%ADD58C,0.6000*%
%ADD59C,0.1270*%
%ADD60C,0.2540*%
%ADD61C,0.1500*%
%ADD62C,0.5000*%
%ADD63O,1.2032X0.5032*%
%ADD64O,0.5032X2.1032*%
%ADD65P,1.3650X4X180.0*%
%ADD66P,1.3650X4X90.0*%
G04:AMPARAMS|DCode=67|XSize=0.5532mm|YSize=2.0032mm|CornerRadius=0mm|HoleSize=0mm|Usage=FLASHONLY|Rotation=225.000|XOffset=0mm|YOffset=0mm|HoleType=Round|Shape=Round|*
%AMOVALD67*
21,1,1.4500,0.5532,0.0000,0.0000,315.0*
1,1,0.5532,-0.5127,0.5127*
1,1,0.5532,0.5127,-0.5127*
%
%ADD67OVALD67*%

G04:AMPARAMS|DCode=68|XSize=0.5032mm|YSize=2.0032mm|CornerRadius=0mm|HoleSize=0mm|Usage=FLASHONLY|Rotation=45.000|XOffset=0mm|YOffset=0mm|HoleType=Round|Shape=Round|*
%AMOVALD68*
21,1,1.5000,0.5032,0.0000,0.0000,135.0*
1,1,0.5032,0.5303,-0.5303*
1,1,0.5032,-0.5303,0.5303*
%
%ADD68OVALD68*%

G04:AMPARAMS|DCode=69|XSize=0.5032mm|YSize=2.0032mm|CornerRadius=0mm|HoleSize=0mm|Usage=FLASHONLY|Rotation=135.000|XOffset=0mm|YOffset=0mm|HoleType=Round|Shape=Round|*
%AMOVALD69*
21,1,1.5000,0.5032,0.0000,0.0000,225.0*
1,1,0.5032,0.5303,0.5303*
1,1,0.5032,-0.5303,-0.5303*
%
%ADD69OVALD69*%

%ADD70R,0.9652X0.9652*%
%ADD71O,1.9032X0.5532*%
%ADD72C,1.9812*%
%ADD73R,1.9812X1.9812*%
%ADD74C,6.5532*%
%ADD75C,1.7272*%
%ADD76R,1.7272X1.7272*%
%ADD77R,1.9812X1.9812*%
%ADD78R,1.5032X1.7032*%
%ADD79R,0.9652X0.9652*%
%ADD80R,1.2192X1.4732*%
%ADD81R,1.8032X1.8032*%
%ADD82O,0.5032X1.0032*%
%ADD83O,1.0032X0.5032*%
%ADD84R,1.4732X1.2192*%
G04:AMPARAMS|DCode=85|XSize=1.2192mm|YSize=1.4732mm|CornerRadius=0mm|HoleSize=0mm|Usage=FLASHONLY|Rotation=45.000|XOffset=0mm|YOffset=0mm|HoleType=Round|Shape=Rectangle|*
%AMROTATEDRECTD85*
4,1,4,0.0898,-0.9519,-0.9519,0.0898,-0.0898,0.9519,0.9519,-0.0898,0.0898,-0.9519,0.0*
%
%ADD85ROTATEDRECTD85*%

G04:AMPARAMS|DCode=86|XSize=1.2192mm|YSize=1.4732mm|CornerRadius=0mm|HoleSize=0mm|Usage=FLASHONLY|Rotation=135.000|XOffset=0mm|YOffset=0mm|HoleType=Round|Shape=Rectangle|*
%AMROTATEDRECTD86*
4,1,4,0.9519,0.0898,-0.0898,-0.9519,-0.9519,-0.0898,0.0898,0.9519,0.9519,0.0898,0.0*
%
%ADD86ROTATEDRECTD86*%

%ADD87R,1.8532X2.5032*%
G04:AMPARAMS|DCode=88|XSize=1.5032mm|YSize=2.2032mm|CornerRadius=0mm|HoleSize=0mm|Usage=FLASHONLY|Rotation=315.000|XOffset=0mm|YOffset=0mm|HoleType=Round|Shape=Round|*
%AMOVALD88*
21,1,0.7000,1.5032,0.0000,0.0000,45.0*
1,1,1.5032,-0.2475,-0.2475*
1,1,1.5032,0.2475,0.2475*
%
%ADD88OVALD88*%

G04:AMPARAMS|DCode=89|XSize=1.5032mm|YSize=2.2032mm|CornerRadius=0mm|HoleSize=0mm|Usage=FLASHONLY|Rotation=315.000|XOffset=0mm|YOffset=0mm|HoleType=Round|Shape=Rectangle|*
%AMROTATEDRECTD89*
4,1,4,-1.3104,-0.2475,0.2475,1.3104,1.3104,0.2475,-0.2475,-1.3104,-1.3104,-0.2475,0.0*
%
%ADD89ROTATEDRECTD89*%

%ADD90R,1.7032X1.5032*%
G04:AMPARAMS|DCode=91|XSize=0.9032mm|YSize=2.3032mm|CornerRadius=0mm|HoleSize=0mm|Usage=FLASHONLY|Rotation=135.000|XOffset=0mm|YOffset=0mm|HoleType=Round|Shape=Round|*
%AMOVALD91*
21,1,1.4000,0.9032,0.0000,0.0000,225.0*
1,1,0.9032,0.4950,0.4950*
1,1,0.9032,-0.4950,-0.4950*
%
%ADD91OVALD91*%

D65*
X462500Y427500D02*
D03*
X452622Y437378D02*
D03*
X640000Y120000D02*
D03*
X630122Y129878D02*
D03*
X730000Y210000D02*
D03*
X720122Y219878D02*
D03*
X479878Y280122D02*
D03*
X470000Y290000D02*
D03*
X650000Y130000D02*
D03*
X640122Y139878D02*
D03*
X565000Y385000D02*
D03*
X574878Y375122D02*
D03*
X575000Y395000D02*
D03*
X584878Y385122D02*
D03*
X395000Y322000D02*
D03*
X385122Y331878D02*
D03*
X352000Y366000D02*
D03*
X361878Y356122D02*
D03*
X455000Y383000D02*
D03*
X445122Y392878D02*
D03*
X420000Y432500D02*
D03*
X429878Y422622D02*
D03*
X459878Y260122D02*
D03*
X450000Y270000D02*
D03*
X494878Y295122D02*
D03*
X485000Y305000D02*
D03*
X610122Y109878D02*
D03*
X620000Y100000D02*
D03*
X655122Y154878D02*
D03*
X665000Y145000D02*
D03*
X710122Y209878D02*
D03*
X720000Y200000D02*
D03*
X544878Y345122D02*
D03*
X535000Y355000D02*
D03*
D66*
X755000Y265000D02*
D03*
X745122Y255122D02*
D03*
X555000Y125000D02*
D03*
X564878Y134878D02*
D03*
X450000Y230000D02*
D03*
X459878Y239878D02*
D03*
X735000Y285000D02*
D03*
X725122Y275122D02*
D03*
X509878Y189878D02*
D03*
X500000Y180000D02*
D03*
X479878Y219878D02*
D03*
X470000Y210000D02*
D03*
X620000Y400000D02*
D03*
X610122Y390122D02*
D03*
X575000Y105000D02*
D03*
X584878Y114878D02*
D03*
X630122Y370122D02*
D03*
X640000Y380000D02*
D03*
X594878Y104878D02*
D03*
X585000Y95000D02*
D03*
X595878Y249878D02*
D03*
X586000Y240000D02*
D03*
X735122Y265122D02*
D03*
X745000Y275000D02*
D03*
X695122Y305122D02*
D03*
X705000Y315000D02*
D03*
X813000Y253000D02*
D03*
X803122Y243122D02*
D03*
D70*
X1075000Y248970D02*
D03*
Y235000D02*
D03*
X1105000Y248970D02*
D03*
Y235000D02*
D03*
X1090000Y271030D02*
D03*
Y285000D02*
D03*
X1060000Y271030D02*
D03*
Y285000D02*
D03*
X1092000Y342030D02*
D03*
Y356000D02*
D03*
X100000Y363970D02*
D03*
Y350000D02*
D03*
X100000Y253970D02*
D03*
Y240000D02*
D03*
X225000Y253970D02*
D03*
Y240000D02*
D03*
Y363970D02*
D03*
Y350000D02*
D03*
X1149000Y458000D02*
D03*
Y444030D02*
D03*
D72*
X1037600Y60000D02*
D03*
X961400Y60000D02*
D03*
X1063000Y34600D02*
D03*
X1063000Y60000D02*
D03*
X1037600Y34600D02*
D03*
X1012200Y34600D02*
D03*
X986800Y34600D02*
D03*
X986800Y60000D02*
D03*
X1012200Y60000D02*
D03*
X1088400Y60000D02*
D03*
X1113800Y34600D02*
D03*
Y60000D02*
D03*
X1139200Y34600D02*
D03*
Y60000D02*
D03*
X1164600Y34600D02*
D03*
Y60000D02*
D03*
X1190000Y34600D02*
D03*
Y60000D02*
D03*
X1088400Y34600D02*
D03*
X136200Y60000D02*
D03*
X60000Y60000D02*
D03*
X161600Y34600D02*
D03*
X161600Y60000D02*
D03*
X136200Y34600D02*
D03*
X110800Y34600D02*
D03*
X85400Y34600D02*
D03*
X85400Y60000D02*
D03*
X110800Y60000D02*
D03*
X187000Y60000D02*
D03*
X212400Y34600D02*
D03*
Y60000D02*
D03*
X237800Y34600D02*
D03*
Y60000D02*
D03*
X263200Y34600D02*
D03*
Y60000D02*
D03*
X288600Y34600D02*
D03*
Y60000D02*
D03*
X187000Y34600D02*
D03*
X248424Y469995D02*
D03*
X350023Y444595D02*
D03*
Y469995D02*
D03*
X324623Y444595D02*
D03*
Y469995D02*
D03*
X299223Y444595D02*
D03*
Y469995D02*
D03*
X273824Y444595D02*
D03*
Y469995D02*
D03*
X248424Y444595D02*
D03*
X172223Y444595D02*
D03*
X146823Y444595D02*
D03*
X146823Y469995D02*
D03*
X172223Y469995D02*
D03*
X197624Y469995D02*
D03*
X223023Y444595D02*
D03*
X223023Y469995D02*
D03*
X121424Y444595D02*
D03*
X197624Y444595D02*
D03*
X1045800Y475000D02*
D03*
X1020400Y475000D02*
D03*
X1071200Y475000D02*
D03*
X1096600Y475000D02*
D03*
X1122000Y475000D02*
D03*
D73*
X961400Y34600D02*
D03*
X60000Y34600D02*
D03*
X121424Y469995D02*
D03*
D74*
X290000Y110800D02*
D03*
X1190000Y110800D02*
D03*
X50000Y450000D02*
D03*
X1200000D02*
D03*
D75*
X317940Y110800D02*
D03*
X303970Y86603D02*
D03*
X276030D02*
D03*
X262060Y110800D02*
D03*
X276030Y134997D02*
D03*
X303970D02*
D03*
X1217940Y110800D02*
D03*
X1203970Y86603D02*
D03*
X1176030D02*
D03*
X1162060Y110800D02*
D03*
X1176030Y134997D02*
D03*
X1203970D02*
D03*
X22060Y450000D02*
D03*
X36030Y425803D02*
D03*
X63970D02*
D03*
X77940Y450000D02*
D03*
X63970Y474197D02*
D03*
X36030D02*
D03*
X1220000Y345400D02*
D03*
Y370800D02*
D03*
X1172060Y450000D02*
D03*
X1186030Y425803D02*
D03*
X1213970D02*
D03*
X1227940Y450000D02*
D03*
X1213970Y474197D02*
D03*
X1186030D02*
D03*
D76*
X1220000Y320000D02*
D03*
D77*
X995000Y475000D02*
D03*
D78*
X407866Y24238D02*
D03*
X426866D02*
D03*
D79*
X457366D02*
D03*
X443396D02*
D03*
X1015000Y440000D02*
D03*
X1001030D02*
D03*
X715000Y151000D02*
D03*
X728970D02*
D03*
X843000Y192000D02*
D03*
X856970D02*
D03*
X757000Y151000D02*
D03*
X743030D02*
D03*
X958970Y172500D02*
D03*
X945000D02*
D03*
X1001470Y185000D02*
D03*
X987500D02*
D03*
X946030Y323000D02*
D03*
X960000D02*
D03*
X916030D02*
D03*
X930000D02*
D03*
X929970Y171000D02*
D03*
X916000D02*
D03*
X968000Y78000D02*
D03*
X981970D02*
D03*
X966000Y17000D02*
D03*
X979970D02*
D03*
X60000Y15000D02*
D03*
X73970D02*
D03*
X60000Y81000D02*
D03*
X73970D02*
D03*
X1128666Y339730D02*
D03*
X1142636D02*
D03*
X1142606Y325730D02*
D03*
X1128636D02*
D03*
X1142606Y311730D02*
D03*
X1128636Y311730D02*
D03*
X1128666Y353730D02*
D03*
X1142636D02*
D03*
D80*
X934780Y204000D02*
D03*
X914460D02*
D03*
D81*
X255000Y240000D02*
D03*
Y350000D02*
D03*
X130000D02*
D03*
X130000Y240000D02*
D03*
D82*
X247500Y225000D02*
D03*
X252500D02*
D03*
X257500D02*
D03*
X262500D02*
D03*
Y255000D02*
D03*
X257500D02*
D03*
X252500D02*
D03*
X247500D02*
D03*
Y335000D02*
D03*
X252500D02*
D03*
X257500D02*
D03*
X262500D02*
D03*
Y365000D02*
D03*
X257500D02*
D03*
X252500D02*
D03*
X247500D02*
D03*
X122500Y335000D02*
D03*
X127500D02*
D03*
X132500D02*
D03*
X137500D02*
D03*
Y365000D02*
D03*
X132500D02*
D03*
X127500D02*
D03*
X122500D02*
D03*
X122500Y225000D02*
D03*
X127500D02*
D03*
X132500D02*
D03*
X137500D02*
D03*
Y255000D02*
D03*
X132500D02*
D03*
X127500D02*
D03*
X122500D02*
D03*
D83*
X270000Y232500D02*
D03*
Y237500D02*
D03*
Y242500D02*
D03*
Y247500D02*
D03*
X240000D02*
D03*
Y242500D02*
D03*
Y237500D02*
D03*
Y232500D02*
D03*
X270000Y342500D02*
D03*
Y347500D02*
D03*
Y352500D02*
D03*
Y357500D02*
D03*
X240000D02*
D03*
Y352500D02*
D03*
Y347500D02*
D03*
Y342500D02*
D03*
X145000D02*
D03*
Y347500D02*
D03*
Y352500D02*
D03*
Y357500D02*
D03*
X115000D02*
D03*
Y352500D02*
D03*
Y347500D02*
D03*
Y342500D02*
D03*
X145000Y232500D02*
D03*
Y237500D02*
D03*
Y242500D02*
D03*
Y247500D02*
D03*
X115000D02*
D03*
Y242500D02*
D03*
Y237500D02*
D03*
Y232500D02*
D03*
D84*
X165000Y247780D02*
D03*
Y227460D02*
D03*
X95000Y202220D02*
D03*
Y222540D02*
D03*
X95000Y312220D02*
D03*
Y332540D02*
D03*
X290000Y247780D02*
D03*
Y227460D02*
D03*
X220000Y312220D02*
D03*
Y332540D02*
D03*
X205000Y352220D02*
D03*
Y372540D02*
D03*
X165000Y357780D02*
D03*
Y337460D02*
D03*
X220000Y202220D02*
D03*
Y222540D02*
D03*
X290000Y357780D02*
D03*
Y337460D02*
D03*
X205000Y242220D02*
D03*
Y262540D02*
D03*
X80000Y242220D02*
D03*
Y262540D02*
D03*
X80000Y352220D02*
D03*
Y372540D02*
D03*
D85*
X502572Y207572D02*
D03*
X488204Y193204D02*
D03*
X707428Y282428D02*
D03*
X721796Y296796D02*
D03*
X691796Y326796D02*
D03*
X677428Y312428D02*
D03*
D86*
X727428Y237572D02*
D03*
X741796Y223204D02*
D03*
D87*
X118490Y305000D02*
D03*
X151500D02*
D03*
X118490Y195000D02*
D03*
X151500D02*
D03*
X243490Y195000D02*
D03*
X276500D02*
D03*
X243490Y305000D02*
D03*
X276500D02*
D03*
D88*
X588059Y213059D02*
D03*
X624828Y176289D02*
D03*
X658770Y210230D02*
D03*
D89*
X622000Y247000D02*
D03*
D90*
X475000Y484500D02*
D03*
Y465500D02*
D03*
X497500Y484500D02*
D03*
Y465500D02*
D03*
X957500Y479500D02*
D03*
Y460500D02*
D03*
D91*
X492232Y377791D02*
D03*
X483252Y386772D02*
D03*
X474272Y395752D02*
D03*
X465291Y404732D02*
D03*
X529709Y415268D02*
D03*
X520728Y424248D02*
D03*
X511748Y433228D02*
D03*
X502768Y442209D02*
D03*
M02*
