%FSLAX44Y44*%
%MOMM*%
G71*
G01*
G75*
G04 Layer_Color=16711935*
%ADD10O,1.7000X0.3500*%
%ADD11R,0.7620X0.7620*%
%ADD12O,1.0000X0.3000*%
%ADD13P,1.0776X4X180.0*%
G04:AMPARAMS|DCode=14|XSize=0.35mm|YSize=1.8mm|CornerRadius=0mm|HoleSize=0mm|Usage=FLASHONLY|Rotation=225.000|XOffset=0mm|YOffset=0mm|HoleType=Round|Shape=Round|*
%AMOVALD14*
21,1,1.4500,0.3500,0.0000,0.0000,315.0*
1,1,0.3500,-0.5127,0.5127*
1,1,0.3500,0.5127,-0.5127*
%
%ADD14OVALD14*%

G04:AMPARAMS|DCode=15|XSize=0.3mm|YSize=1.8mm|CornerRadius=0mm|HoleSize=0mm|Usage=FLASHONLY|Rotation=135.000|XOffset=0mm|YOffset=0mm|HoleType=Round|Shape=Round|*
%AMOVALD15*
21,1,1.5000,0.3000,0.0000,0.0000,225.0*
1,1,0.3000,0.5303,0.5303*
1,1,0.3000,-0.5303,-0.5303*
%
%ADD15OVALD15*%

G04:AMPARAMS|DCode=16|XSize=0.3mm|YSize=1.8mm|CornerRadius=0mm|HoleSize=0mm|Usage=FLASHONLY|Rotation=45.000|XOffset=0mm|YOffset=0mm|HoleType=Round|Shape=Round|*
%AMOVALD16*
21,1,1.5000,0.3000,0.0000,0.0000,135.0*
1,1,0.3000,0.5303,-0.5303*
1,1,0.3000,-0.5303,0.5303*
%
%ADD16OVALD16*%

%ADD17P,1.0776X4X90.0*%
%ADD18O,0.3000X1.9000*%
%ADD19C,0.2000*%
%ADD20C,0.3000*%
%ADD21R,2.1650X2.4540*%
%ADD22R,2.4665X2.5737*%
%ADD23R,2.1110X2.7620*%
%ADD24R,2.0555X2.7112*%
%ADD25C,1.5240*%
%ADD26C,6.3500*%
%ADD27C,1.7780*%
%ADD28R,1.7780X1.7780*%
%ADD29R,1.5240X1.5240*%
%ADD30R,1.7780X1.7780*%
%ADD31C,0.5000*%
%ADD32C,0.6600*%
%ADD33R,1.5000X1.3000*%
G04:AMPARAMS|DCode=34|XSize=0.7mm|YSize=2.1mm|CornerRadius=0mm|HoleSize=0mm|Usage=FLASHONLY|Rotation=135.000|XOffset=0mm|YOffset=0mm|HoleType=Round|Shape=Round|*
%AMOVALD34*
21,1,1.4000,0.7000,0.0000,0.0000,225.0*
1,1,0.7000,0.4950,0.4950*
1,1,0.7000,-0.4950,-0.4950*
%
%ADD34OVALD34*%

%ADD35R,0.7620X0.7620*%
G04:AMPARAMS|DCode=36|XSize=1.016mm|YSize=1.27mm|CornerRadius=0mm|HoleSize=0mm|Usage=FLASHONLY|Rotation=225.000|XOffset=0mm|YOffset=0mm|HoleType=Round|Shape=Rectangle|*
%AMROTATEDRECTD36*
4,1,4,-0.0898,0.8082,0.8082,-0.0898,0.0898,-0.8082,-0.8082,0.0898,-0.0898,0.8082,0.0*
%
%ADD36ROTATEDRECTD36*%

G04:AMPARAMS|DCode=37|XSize=1.3mm|YSize=2mm|CornerRadius=0mm|HoleSize=0mm|Usage=FLASHONLY|Rotation=315.000|XOffset=0mm|YOffset=0mm|HoleType=Round|Shape=Rectangle|*
%AMROTATEDRECTD37*
4,1,4,-1.1667,-0.2475,0.2475,1.1667,1.1667,0.2475,-0.2475,-1.1667,-1.1667,-0.2475,0.0*
%
%ADD37ROTATEDRECTD37*%

G04:AMPARAMS|DCode=38|XSize=1.3mm|YSize=2mm|CornerRadius=0mm|HoleSize=0mm|Usage=FLASHONLY|Rotation=315.000|XOffset=0mm|YOffset=0mm|HoleType=Round|Shape=Round|*
%AMOVALD38*
21,1,0.7000,1.3000,0.0000,0.0000,45.0*
1,1,1.3000,-0.2475,-0.2475*
1,1,1.3000,0.2475,0.2475*
%
%ADD38OVALD38*%

%ADD39R,1.6500X2.3000*%
%ADD40O,0.8000X0.3000*%
%ADD41O,0.3000X0.8000*%
%ADD42R,1.6000X1.6000*%
%ADD43R,1.2700X1.0160*%
G04:AMPARAMS|DCode=44|XSize=1.016mm|YSize=1.27mm|CornerRadius=0mm|HoleSize=0mm|Usage=FLASHONLY|Rotation=135.000|XOffset=0mm|YOffset=0mm|HoleType=Round|Shape=Rectangle|*
%AMROTATEDRECTD44*
4,1,4,0.8082,0.0898,-0.0898,-0.8082,-0.8082,-0.0898,0.0898,0.8082,0.8082,0.0898,0.0*
%
%ADD44ROTATEDRECTD44*%

%ADD45R,1.0160X1.2700*%
%ADD46R,1.3000X1.5000*%
%ADD47C,0.4000*%
%ADD48C,2.0000*%
%ADD49C,0.1270*%
%ADD50C,0.6000*%
%ADD51C,0.2500*%
%ADD52C,0.2540*%
%ADD53C,0.1500*%
%ADD54C,0.5000*%
%ADD55O,1.9032X0.5532*%
%ADD56R,0.9652X0.9652*%
%ADD57O,1.2032X0.5032*%
%ADD58P,1.3650X4X180.0*%
G04:AMPARAMS|DCode=59|XSize=0.5532mm|YSize=2.0032mm|CornerRadius=0mm|HoleSize=0mm|Usage=FLASHONLY|Rotation=225.000|XOffset=0mm|YOffset=0mm|HoleType=Round|Shape=Round|*
%AMOVALD59*
21,1,1.4500,0.5532,0.0000,0.0000,315.0*
1,1,0.5532,-0.5127,0.5127*
1,1,0.5532,0.5127,-0.5127*
%
%ADD59OVALD59*%

G04:AMPARAMS|DCode=60|XSize=0.5032mm|YSize=2.0032mm|CornerRadius=0mm|HoleSize=0mm|Usage=FLASHONLY|Rotation=135.000|XOffset=0mm|YOffset=0mm|HoleType=Round|Shape=Round|*
%AMOVALD60*
21,1,1.5000,0.5032,0.0000,0.0000,225.0*
1,1,0.5032,0.5303,0.5303*
1,1,0.5032,-0.5303,-0.5303*
%
%ADD60OVALD60*%

G04:AMPARAMS|DCode=61|XSize=0.5032mm|YSize=2.0032mm|CornerRadius=0mm|HoleSize=0mm|Usage=FLASHONLY|Rotation=45.000|XOffset=0mm|YOffset=0mm|HoleType=Round|Shape=Round|*
%AMOVALD61*
21,1,1.5000,0.5032,0.0000,0.0000,135.0*
1,1,0.5032,0.5303,-0.5303*
1,1,0.5032,-0.5303,0.5303*
%
%ADD61OVALD61*%

%ADD62P,1.3650X4X90.0*%
%ADD63O,0.5032X2.1032*%
%ADD64C,1.7272*%
%ADD65C,6.5532*%
%ADD66C,1.9812*%
%ADD67R,1.9812X1.9812*%
%ADD68R,1.7272X1.7272*%
%ADD69R,1.9812X1.9812*%
%ADD70R,1.7032X1.5032*%
G04:AMPARAMS|DCode=71|XSize=0.9032mm|YSize=2.3032mm|CornerRadius=0mm|HoleSize=0mm|Usage=FLASHONLY|Rotation=135.000|XOffset=0mm|YOffset=0mm|HoleType=Round|Shape=Round|*
%AMOVALD71*
21,1,1.4000,0.9032,0.0000,0.0000,225.0*
1,1,0.9032,0.4950,0.4950*
1,1,0.9032,-0.4950,-0.4950*
%
%ADD71OVALD71*%

%ADD72R,0.9652X0.9652*%
G04:AMPARAMS|DCode=73|XSize=1.2192mm|YSize=1.4732mm|CornerRadius=0mm|HoleSize=0mm|Usage=FLASHONLY|Rotation=225.000|XOffset=0mm|YOffset=0mm|HoleType=Round|Shape=Rectangle|*
%AMROTATEDRECTD73*
4,1,4,-0.0898,0.9519,0.9519,-0.0898,0.0898,-0.9519,-0.9519,0.0898,-0.0898,0.9519,0.0*
%
%ADD73ROTATEDRECTD73*%

G04:AMPARAMS|DCode=74|XSize=1.5032mm|YSize=2.2032mm|CornerRadius=0mm|HoleSize=0mm|Usage=FLASHONLY|Rotation=315.000|XOffset=0mm|YOffset=0mm|HoleType=Round|Shape=Rectangle|*
%AMROTATEDRECTD74*
4,1,4,-1.3104,-0.2475,0.2475,1.3104,1.3104,0.2475,-0.2475,-1.3104,-1.3104,-0.2475,0.0*
%
%ADD74ROTATEDRECTD74*%

G04:AMPARAMS|DCode=75|XSize=1.5032mm|YSize=2.2032mm|CornerRadius=0mm|HoleSize=0mm|Usage=FLASHONLY|Rotation=315.000|XOffset=0mm|YOffset=0mm|HoleType=Round|Shape=Round|*
%AMOVALD75*
21,1,0.7000,1.5032,0.0000,0.0000,45.0*
1,1,1.5032,-0.2475,-0.2475*
1,1,1.5032,0.2475,0.2475*
%
%ADD75OVALD75*%

%ADD76R,1.8532X2.5032*%
%ADD77O,1.0032X0.5032*%
%ADD78O,0.5032X1.0032*%
%ADD79R,1.8032X1.8032*%
%ADD80R,1.4732X1.2192*%
G04:AMPARAMS|DCode=81|XSize=1.2192mm|YSize=1.4732mm|CornerRadius=0mm|HoleSize=0mm|Usage=FLASHONLY|Rotation=135.000|XOffset=0mm|YOffset=0mm|HoleType=Round|Shape=Rectangle|*
%AMROTATEDRECTD81*
4,1,4,0.9519,0.0898,-0.0898,-0.9519,-0.9519,-0.0898,0.0898,0.9519,0.9519,0.0898,0.0*
%
%ADD81ROTATEDRECTD81*%

%ADD82R,1.2192X1.4732*%
%ADD83R,1.5032X1.7032*%
D56*
X1149000Y444030D02*
D03*
Y458000D02*
D03*
X225000Y350000D02*
D03*
Y363970D02*
D03*
Y240000D02*
D03*
Y253970D02*
D03*
X100000Y240000D02*
D03*
Y253970D02*
D03*
X100000Y350000D02*
D03*
Y363970D02*
D03*
X1092000Y356000D02*
D03*
Y342030D02*
D03*
X1060000Y285000D02*
D03*
Y271030D02*
D03*
X1090000Y285000D02*
D03*
Y271030D02*
D03*
X1105000Y235000D02*
D03*
Y248970D02*
D03*
X1075000Y235000D02*
D03*
Y248970D02*
D03*
D58*
X535000Y355000D02*
D03*
X544878Y345122D02*
D03*
X720000Y200000D02*
D03*
X710122Y209878D02*
D03*
X665000Y145000D02*
D03*
X655122Y154878D02*
D03*
X620000Y100000D02*
D03*
X610122Y109878D02*
D03*
X485000Y305000D02*
D03*
X494878Y295122D02*
D03*
X450000Y270000D02*
D03*
X459878Y260122D02*
D03*
X429878Y422622D02*
D03*
X420000Y432500D02*
D03*
X445122Y392878D02*
D03*
X455000Y383000D02*
D03*
X361878Y356122D02*
D03*
X352000Y366000D02*
D03*
X385122Y331878D02*
D03*
X395000Y322000D02*
D03*
X584878Y385122D02*
D03*
X575000Y395000D02*
D03*
X574878Y375122D02*
D03*
X565000Y385000D02*
D03*
X640122Y139878D02*
D03*
X650000Y130000D02*
D03*
X470000Y290000D02*
D03*
X479878Y280122D02*
D03*
X720122Y219878D02*
D03*
X730000Y210000D02*
D03*
X630122Y129878D02*
D03*
X640000Y120000D02*
D03*
X452622Y437378D02*
D03*
X462500Y427500D02*
D03*
D62*
X803122Y243122D02*
D03*
X813000Y253000D02*
D03*
X705000Y315000D02*
D03*
X695122Y305122D02*
D03*
X745000Y275000D02*
D03*
X735122Y265122D02*
D03*
X586000Y240000D02*
D03*
X595878Y249878D02*
D03*
X585000Y95000D02*
D03*
X594878Y104878D02*
D03*
X640000Y380000D02*
D03*
X630122Y370122D02*
D03*
X584878Y114878D02*
D03*
X575000Y105000D02*
D03*
X610122Y390122D02*
D03*
X620000Y400000D02*
D03*
X470000Y210000D02*
D03*
X479878Y219878D02*
D03*
X500000Y180000D02*
D03*
X509878Y189878D02*
D03*
X725122Y275122D02*
D03*
X735000Y285000D02*
D03*
X459878Y239878D02*
D03*
X450000Y230000D02*
D03*
X564878Y134878D02*
D03*
X555000Y125000D02*
D03*
X745122Y255122D02*
D03*
X755000Y265000D02*
D03*
D64*
X1186030Y474197D02*
D03*
X1213970D02*
D03*
X1227940Y450000D02*
D03*
X1213970Y425803D02*
D03*
X1186030D02*
D03*
X1172060Y450000D02*
D03*
X1220000Y370800D02*
D03*
Y345400D02*
D03*
X36030Y474197D02*
D03*
X63970D02*
D03*
X77940Y450000D02*
D03*
X63970Y425803D02*
D03*
X36030D02*
D03*
X22060Y450000D02*
D03*
X1203970Y134997D02*
D03*
X1176030D02*
D03*
X1162060Y110800D02*
D03*
X1176030Y86603D02*
D03*
X1203970D02*
D03*
X1217940Y110800D02*
D03*
X303970Y134997D02*
D03*
X276030D02*
D03*
X262060Y110800D02*
D03*
X276030Y86603D02*
D03*
X303970D02*
D03*
X317940Y110800D02*
D03*
D65*
X1200000Y450000D02*
D03*
X50000D02*
D03*
X1190000Y110800D02*
D03*
X290000Y110800D02*
D03*
D66*
X1122000Y475000D02*
D03*
X1096600Y475000D02*
D03*
X1071200Y475000D02*
D03*
X1020400Y475000D02*
D03*
X1045800Y475000D02*
D03*
X197624Y444595D02*
D03*
X121424Y444595D02*
D03*
X223023Y469995D02*
D03*
X223023Y444595D02*
D03*
X197624Y469995D02*
D03*
X172223Y469995D02*
D03*
X146823Y469995D02*
D03*
X146823Y444595D02*
D03*
X172223Y444595D02*
D03*
X248424Y444595D02*
D03*
X273824Y469995D02*
D03*
Y444595D02*
D03*
X299223Y469995D02*
D03*
Y444595D02*
D03*
X324623Y469995D02*
D03*
Y444595D02*
D03*
X350023Y469995D02*
D03*
Y444595D02*
D03*
X248424Y469995D02*
D03*
X187000Y34600D02*
D03*
X288600Y60000D02*
D03*
Y34600D02*
D03*
X263200Y60000D02*
D03*
Y34600D02*
D03*
X237800Y60000D02*
D03*
Y34600D02*
D03*
X212400Y60000D02*
D03*
Y34600D02*
D03*
X187000Y60000D02*
D03*
X110800Y60000D02*
D03*
X85400Y60000D02*
D03*
X85400Y34600D02*
D03*
X110800Y34600D02*
D03*
X136200Y34600D02*
D03*
X161600Y60000D02*
D03*
X161600Y34600D02*
D03*
X60000Y60000D02*
D03*
X136200Y60000D02*
D03*
X1088400Y34600D02*
D03*
X1190000Y60000D02*
D03*
Y34600D02*
D03*
X1164600Y60000D02*
D03*
Y34600D02*
D03*
X1139200Y60000D02*
D03*
Y34600D02*
D03*
X1113800Y60000D02*
D03*
Y34600D02*
D03*
X1088400Y60000D02*
D03*
X1012200Y60000D02*
D03*
X986800Y60000D02*
D03*
X986800Y34600D02*
D03*
X1012200Y34600D02*
D03*
X1037600Y34600D02*
D03*
X1063000Y60000D02*
D03*
X1063000Y34600D02*
D03*
X961400Y60000D02*
D03*
X1037600Y60000D02*
D03*
D67*
X995000Y475000D02*
D03*
D68*
X1220000Y320000D02*
D03*
D69*
X121424Y469995D02*
D03*
X60000Y34600D02*
D03*
X961400Y34600D02*
D03*
D70*
X957500Y460500D02*
D03*
Y479500D02*
D03*
X497500Y465500D02*
D03*
Y484500D02*
D03*
X475000Y465500D02*
D03*
Y484500D02*
D03*
D71*
X502768Y442209D02*
D03*
X511748Y433228D02*
D03*
X520728Y424248D02*
D03*
X529709Y415268D02*
D03*
X465291Y404732D02*
D03*
X474272Y395752D02*
D03*
X483252Y386772D02*
D03*
X492232Y377791D02*
D03*
D72*
X1142636Y353730D02*
D03*
X1128666D02*
D03*
X1128636Y311730D02*
D03*
X1142606Y311730D02*
D03*
X1128636Y325730D02*
D03*
X1142606D02*
D03*
X1142636Y339730D02*
D03*
X1128666D02*
D03*
X73970Y81000D02*
D03*
X60000D02*
D03*
X73970Y15000D02*
D03*
X60000D02*
D03*
X979970Y17000D02*
D03*
X966000D02*
D03*
X981970Y78000D02*
D03*
X968000D02*
D03*
X916000Y171000D02*
D03*
X929970D02*
D03*
X930000Y323000D02*
D03*
X916030D02*
D03*
X960000D02*
D03*
X946030D02*
D03*
X987500Y185000D02*
D03*
X1001470D02*
D03*
X945000Y172500D02*
D03*
X958970D02*
D03*
X743030Y151000D02*
D03*
X757000D02*
D03*
X856970Y192000D02*
D03*
X843000D02*
D03*
X728970Y151000D02*
D03*
X715000D02*
D03*
X1001030Y440000D02*
D03*
X1015000D02*
D03*
X443396Y24238D02*
D03*
X457366D02*
D03*
D73*
X677428Y312428D02*
D03*
X691796Y326796D02*
D03*
X721796Y296796D02*
D03*
X707428Y282428D02*
D03*
X488204Y193204D02*
D03*
X502572Y207572D02*
D03*
D74*
X622000Y247000D02*
D03*
D75*
X658770Y210230D02*
D03*
X624828Y176289D02*
D03*
X588059Y213059D02*
D03*
D76*
X276500Y305000D02*
D03*
X243490D02*
D03*
X276500Y195000D02*
D03*
X243490D02*
D03*
X151500Y195000D02*
D03*
X118490D02*
D03*
X151500Y305000D02*
D03*
X118490D02*
D03*
D77*
X115000Y232500D02*
D03*
Y237500D02*
D03*
Y242500D02*
D03*
Y247500D02*
D03*
X145000D02*
D03*
Y242500D02*
D03*
Y237500D02*
D03*
Y232500D02*
D03*
X115000Y342500D02*
D03*
Y347500D02*
D03*
Y352500D02*
D03*
Y357500D02*
D03*
X145000D02*
D03*
Y352500D02*
D03*
Y347500D02*
D03*
Y342500D02*
D03*
X240000D02*
D03*
Y347500D02*
D03*
Y352500D02*
D03*
Y357500D02*
D03*
X270000D02*
D03*
Y352500D02*
D03*
Y347500D02*
D03*
Y342500D02*
D03*
X240000Y232500D02*
D03*
Y237500D02*
D03*
Y242500D02*
D03*
Y247500D02*
D03*
X270000D02*
D03*
Y242500D02*
D03*
Y237500D02*
D03*
Y232500D02*
D03*
D78*
X122500Y255000D02*
D03*
X127500D02*
D03*
X132500D02*
D03*
X137500D02*
D03*
Y225000D02*
D03*
X132500D02*
D03*
X127500D02*
D03*
X122500D02*
D03*
X122500Y365000D02*
D03*
X127500D02*
D03*
X132500D02*
D03*
X137500D02*
D03*
Y335000D02*
D03*
X132500D02*
D03*
X127500D02*
D03*
X122500D02*
D03*
X247500Y365000D02*
D03*
X252500D02*
D03*
X257500D02*
D03*
X262500D02*
D03*
Y335000D02*
D03*
X257500D02*
D03*
X252500D02*
D03*
X247500D02*
D03*
Y255000D02*
D03*
X252500D02*
D03*
X257500D02*
D03*
X262500D02*
D03*
Y225000D02*
D03*
X257500D02*
D03*
X252500D02*
D03*
X247500D02*
D03*
D79*
X130000Y240000D02*
D03*
X130000Y350000D02*
D03*
X255000D02*
D03*
Y240000D02*
D03*
D80*
X80000Y372540D02*
D03*
Y352220D02*
D03*
X80000Y262540D02*
D03*
Y242220D02*
D03*
X205000Y262540D02*
D03*
Y242220D02*
D03*
X290000Y337460D02*
D03*
Y357780D02*
D03*
X220000Y222540D02*
D03*
Y202220D02*
D03*
X165000Y337460D02*
D03*
Y357780D02*
D03*
X205000Y372540D02*
D03*
Y352220D02*
D03*
X220000Y332540D02*
D03*
Y312220D02*
D03*
X290000Y227460D02*
D03*
Y247780D02*
D03*
X95000Y332540D02*
D03*
Y312220D02*
D03*
X95000Y222540D02*
D03*
Y202220D02*
D03*
X165000Y227460D02*
D03*
Y247780D02*
D03*
D81*
X741796Y223204D02*
D03*
X727428Y237572D02*
D03*
D82*
X914460Y204000D02*
D03*
X934780D02*
D03*
D83*
X426866Y24238D02*
D03*
X407866D02*
D03*
M02*
