%FSLAX44Y44*%
%MOMM*%
G71*
G01*
G75*
G04 Layer_Color=32896*
%ADD10O,1.7000X0.3500*%
%ADD11R,0.7620X0.7620*%
%ADD12O,1.0000X0.3000*%
%ADD13P,1.0776X4X180.0*%
G04:AMPARAMS|DCode=14|XSize=0.35mm|YSize=1.8mm|CornerRadius=0mm|HoleSize=0mm|Usage=FLASHONLY|Rotation=225.000|XOffset=0mm|YOffset=0mm|HoleType=Round|Shape=Round|*
%AMOVALD14*
21,1,1.4500,0.3500,0.0000,0.0000,315.0*
1,1,0.3500,-0.5127,0.5127*
1,1,0.3500,0.5127,-0.5127*
%
%ADD14OVALD14*%

G04:AMPARAMS|DCode=15|XSize=0.3mm|YSize=1.8mm|CornerRadius=0mm|HoleSize=0mm|Usage=FLASHONLY|Rotation=135.000|XOffset=0mm|YOffset=0mm|HoleType=Round|Shape=Round|*
%AMOVALD15*
21,1,1.5000,0.3000,0.0000,0.0000,225.0*
1,1,0.3000,0.5303,0.5303*
1,1,0.3000,-0.5303,-0.5303*
%
%ADD15OVALD15*%

G04:AMPARAMS|DCode=16|XSize=0.3mm|YSize=1.8mm|CornerRadius=0mm|HoleSize=0mm|Usage=FLASHONLY|Rotation=45.000|XOffset=0mm|YOffset=0mm|HoleType=Round|Shape=Round|*
%AMOVALD16*
21,1,1.5000,0.3000,0.0000,0.0000,135.0*
1,1,0.3000,0.5303,-0.5303*
1,1,0.3000,-0.5303,0.5303*
%
%ADD16OVALD16*%

%ADD17P,1.0776X4X90.0*%
%ADD18O,0.3000X1.9000*%
%ADD19C,0.2000*%
%ADD20C,0.3000*%
%ADD21R,2.1650X2.4540*%
%ADD22R,2.4665X2.5737*%
%ADD23R,2.1110X2.7620*%
%ADD24R,2.0555X2.7112*%
%ADD25C,1.5240*%
%ADD26C,6.3500*%
%ADD27C,1.7780*%
%ADD28R,1.7780X1.7780*%
%ADD29R,1.5240X1.5240*%
%ADD30R,1.7780X1.7780*%
%ADD31C,0.5000*%
%ADD32C,0.6600*%
%ADD33R,1.5000X1.3000*%
G04:AMPARAMS|DCode=34|XSize=0.7mm|YSize=2.1mm|CornerRadius=0mm|HoleSize=0mm|Usage=FLASHONLY|Rotation=135.000|XOffset=0mm|YOffset=0mm|HoleType=Round|Shape=Round|*
%AMOVALD34*
21,1,1.4000,0.7000,0.0000,0.0000,225.0*
1,1,0.7000,0.4950,0.4950*
1,1,0.7000,-0.4950,-0.4950*
%
%ADD34OVALD34*%

%ADD35R,0.7620X0.7620*%
G04:AMPARAMS|DCode=36|XSize=1.016mm|YSize=1.27mm|CornerRadius=0mm|HoleSize=0mm|Usage=FLASHONLY|Rotation=225.000|XOffset=0mm|YOffset=0mm|HoleType=Round|Shape=Rectangle|*
%AMROTATEDRECTD36*
4,1,4,-0.0898,0.8082,0.8082,-0.0898,0.0898,-0.8082,-0.8082,0.0898,-0.0898,0.8082,0.0*
%
%ADD36ROTATEDRECTD36*%

G04:AMPARAMS|DCode=37|XSize=1.3mm|YSize=2mm|CornerRadius=0mm|HoleSize=0mm|Usage=FLASHONLY|Rotation=315.000|XOffset=0mm|YOffset=0mm|HoleType=Round|Shape=Rectangle|*
%AMROTATEDRECTD37*
4,1,4,-1.1667,-0.2475,0.2475,1.1667,1.1667,0.2475,-0.2475,-1.1667,-1.1667,-0.2475,0.0*
%
%ADD37ROTATEDRECTD37*%

G04:AMPARAMS|DCode=38|XSize=1.3mm|YSize=2mm|CornerRadius=0mm|HoleSize=0mm|Usage=FLASHONLY|Rotation=315.000|XOffset=0mm|YOffset=0mm|HoleType=Round|Shape=Round|*
%AMOVALD38*
21,1,0.7000,1.3000,0.0000,0.0000,45.0*
1,1,1.3000,-0.2475,-0.2475*
1,1,1.3000,0.2475,0.2475*
%
%ADD38OVALD38*%

%ADD39R,1.6500X2.3000*%
%ADD40O,0.8000X0.3000*%
%ADD41O,0.3000X0.8000*%
%ADD42R,1.6000X1.6000*%
%ADD43R,1.2700X1.0160*%
G04:AMPARAMS|DCode=44|XSize=1.016mm|YSize=1.27mm|CornerRadius=0mm|HoleSize=0mm|Usage=FLASHONLY|Rotation=135.000|XOffset=0mm|YOffset=0mm|HoleType=Round|Shape=Rectangle|*
%AMROTATEDRECTD44*
4,1,4,0.8082,0.0898,-0.0898,-0.8082,-0.8082,-0.0898,0.0898,0.8082,0.8082,0.0898,0.0*
%
%ADD44ROTATEDRECTD44*%

%ADD45R,1.0160X1.2700*%
%ADD46R,1.3000X1.5000*%
%ADD47C,0.4000*%
%ADD48C,2.0000*%
%ADD49C,0.1270*%
%ADD50C,0.6000*%
%ADD51C,0.2500*%
%ADD52C,0.2540*%
%ADD53C,0.1500*%
%ADD54C,0.5000*%
%ADD55O,1.9032X0.5532*%
%ADD56R,0.9652X0.9652*%
%ADD57O,1.2032X0.5032*%
%ADD58P,1.3650X4X180.0*%
G04:AMPARAMS|DCode=59|XSize=0.5532mm|YSize=2.0032mm|CornerRadius=0mm|HoleSize=0mm|Usage=FLASHONLY|Rotation=225.000|XOffset=0mm|YOffset=0mm|HoleType=Round|Shape=Round|*
%AMOVALD59*
21,1,1.4500,0.5532,0.0000,0.0000,315.0*
1,1,0.5532,-0.5127,0.5127*
1,1,0.5532,0.5127,-0.5127*
%
%ADD59OVALD59*%

G04:AMPARAMS|DCode=60|XSize=0.5032mm|YSize=2.0032mm|CornerRadius=0mm|HoleSize=0mm|Usage=FLASHONLY|Rotation=135.000|XOffset=0mm|YOffset=0mm|HoleType=Round|Shape=Round|*
%AMOVALD60*
21,1,1.5000,0.5032,0.0000,0.0000,225.0*
1,1,0.5032,0.5303,0.5303*
1,1,0.5032,-0.5303,-0.5303*
%
%ADD60OVALD60*%

G04:AMPARAMS|DCode=61|XSize=0.5032mm|YSize=2.0032mm|CornerRadius=0mm|HoleSize=0mm|Usage=FLASHONLY|Rotation=45.000|XOffset=0mm|YOffset=0mm|HoleType=Round|Shape=Round|*
%AMOVALD61*
21,1,1.5000,0.5032,0.0000,0.0000,135.0*
1,1,0.5032,0.5303,-0.5303*
1,1,0.5032,-0.5303,0.5303*
%
%ADD61OVALD61*%

%ADD62P,1.3650X4X90.0*%
%ADD63O,0.5032X2.1032*%
%ADD64C,1.7272*%
%ADD65C,6.5532*%
%ADD66C,1.9812*%
%ADD67R,1.9812X1.9812*%
%ADD68R,1.7272X1.7272*%
%ADD69R,1.9812X1.9812*%
%ADD70R,1.7032X1.5032*%
G04:AMPARAMS|DCode=71|XSize=0.9032mm|YSize=2.3032mm|CornerRadius=0mm|HoleSize=0mm|Usage=FLASHONLY|Rotation=135.000|XOffset=0mm|YOffset=0mm|HoleType=Round|Shape=Round|*
%AMOVALD71*
21,1,1.4000,0.9032,0.0000,0.0000,225.0*
1,1,0.9032,0.4950,0.4950*
1,1,0.9032,-0.4950,-0.4950*
%
%ADD71OVALD71*%

%ADD72R,0.9652X0.9652*%
G04:AMPARAMS|DCode=73|XSize=1.2192mm|YSize=1.4732mm|CornerRadius=0mm|HoleSize=0mm|Usage=FLASHONLY|Rotation=225.000|XOffset=0mm|YOffset=0mm|HoleType=Round|Shape=Rectangle|*
%AMROTATEDRECTD73*
4,1,4,-0.0898,0.9519,0.9519,-0.0898,0.0898,-0.9519,-0.9519,0.0898,-0.0898,0.9519,0.0*
%
%ADD73ROTATEDRECTD73*%

G04:AMPARAMS|DCode=74|XSize=1.5032mm|YSize=2.2032mm|CornerRadius=0mm|HoleSize=0mm|Usage=FLASHONLY|Rotation=315.000|XOffset=0mm|YOffset=0mm|HoleType=Round|Shape=Rectangle|*
%AMROTATEDRECTD74*
4,1,4,-1.3104,-0.2475,0.2475,1.3104,1.3104,0.2475,-0.2475,-1.3104,-1.3104,-0.2475,0.0*
%
%ADD74ROTATEDRECTD74*%

G04:AMPARAMS|DCode=75|XSize=1.5032mm|YSize=2.2032mm|CornerRadius=0mm|HoleSize=0mm|Usage=FLASHONLY|Rotation=315.000|XOffset=0mm|YOffset=0mm|HoleType=Round|Shape=Round|*
%AMOVALD75*
21,1,0.7000,1.5032,0.0000,0.0000,45.0*
1,1,1.5032,-0.2475,-0.2475*
1,1,1.5032,0.2475,0.2475*
%
%ADD75OVALD75*%

%ADD76R,1.8532X2.5032*%
%ADD77O,1.0032X0.5032*%
%ADD78O,0.5032X1.0032*%
%ADD79R,1.8032X1.8032*%
%ADD80R,1.4732X1.2192*%
G04:AMPARAMS|DCode=81|XSize=1.2192mm|YSize=1.4732mm|CornerRadius=0mm|HoleSize=0mm|Usage=FLASHONLY|Rotation=135.000|XOffset=0mm|YOffset=0mm|HoleType=Round|Shape=Rectangle|*
%AMROTATEDRECTD81*
4,1,4,0.9519,0.0898,-0.0898,-0.9519,-0.9519,-0.0898,0.0898,0.9519,0.9519,0.0898,0.0*
%
%ADD81ROTATEDRECTD81*%

%ADD82R,1.2192X1.4732*%
%ADD83R,1.5032X1.7032*%
%ADD84C,0.1981*%
%ADD85C,0.2032*%
%ADD86C,0.1016*%
%ADD87R,2.5303X2.5400*%
D19*
X951000Y489000D02*
X964000D01*
X488308Y436163D02*
X523663Y400808D01*
X471337Y419192D02*
X506692Y383837D01*
X471337Y419192D02*
X488308Y436163D01*
X506692Y383837D02*
X523663Y400808D01*
X491000Y494000D02*
X504000D01*
X468500D02*
X481500D01*
X143000Y224000D02*
X146000D01*
Y227000D01*
X143000Y256000D02*
X146000D01*
Y253000D02*
Y256000D01*
X114000D02*
X117000D01*
X114000Y253000D02*
Y256000D01*
Y224000D02*
X117000D01*
X114000D02*
Y227000D01*
X143000Y334000D02*
X146000D01*
Y337000D01*
X143000Y366000D02*
X146000D01*
Y363000D02*
Y366000D01*
X114000D02*
X117000D01*
X114000Y363000D02*
Y366000D01*
Y334000D02*
X117000D01*
X114000D02*
Y337000D01*
X268000Y334000D02*
X271000D01*
Y337000D01*
X268000Y366000D02*
X271000D01*
Y363000D02*
Y366000D01*
X239000D02*
X242000D01*
X239000Y363000D02*
Y366000D01*
Y334000D02*
X242000D01*
X239000D02*
Y337000D01*
X268000Y224000D02*
X271000D01*
Y227000D01*
X268000Y256000D02*
X271000D01*
Y253000D02*
Y256000D01*
X239000D02*
X242000D01*
X239000Y253000D02*
Y256000D01*
Y224000D02*
X242000D01*
X239000D02*
Y227000D01*
X398366Y17738D02*
Y30738D01*
D49*
X597251Y230737D02*
G03*
X604322Y237808I3535J3535D01*
G01*
X1228100Y110800D02*
G03*
X1228100Y110800I-38100J0D01*
G01*
X328100Y110800D02*
G03*
X328100Y110800I-38100J0D01*
G01*
X1143158Y463842D02*
X1154842D01*
X1143158Y438188D02*
X1154842D01*
Y463842D01*
X1143158Y438188D02*
Y463842D01*
X1122824Y359572D02*
X1148478Y359572D01*
X1122824Y347888D02*
X1148478Y347888D01*
X1122824Y347888D02*
Y359572D01*
X1148478Y347888D02*
Y359572D01*
X1122794Y305888D02*
X1148448Y305888D01*
X1122794Y317572D02*
X1148448D01*
Y305888D02*
Y317572D01*
X1122794D02*
X1122794Y305888D01*
X1122794Y319888D02*
X1148448D01*
X1122794Y331572D02*
X1148448D01*
Y319888D02*
Y331572D01*
X1122794Y319888D02*
Y331572D01*
X1122824Y345572D02*
X1148478Y345572D01*
X1122824Y333888D02*
X1148478D01*
X1122824Y345572D02*
X1122824Y333888D01*
X1148478D02*
X1148478Y345572D01*
X813000Y261262D02*
X821262Y253000D01*
X794860Y243122D02*
X803122Y234860D01*
X821262Y253000D01*
X794860Y243122D02*
X813000Y261262D01*
X526738Y355000D02*
X544878Y336860D01*
X535000Y363262D02*
X553140Y345122D01*
X544878Y336860D02*
X553140Y345122D01*
X526738Y355000D02*
X535000Y363262D01*
X665753Y313326D02*
X678326Y300753D01*
X690898Y338470D02*
X703470Y325898D01*
X665753Y313326D02*
X690898Y338470D01*
X678326Y300753D02*
X703470Y325898D01*
X686860Y305122D02*
X705000Y323262D01*
X695122Y296860D02*
X713262Y315000D01*
X686860Y305122D02*
X695122Y296860D01*
X705000Y323262D02*
X713262Y315000D01*
X726860Y265122D02*
X745000Y283262D01*
X735122Y256860D02*
X753262Y275000D01*
X726860Y265122D02*
X735122Y256860D01*
X745000Y283262D02*
X753262Y275000D01*
X710122Y218140D02*
X728262Y200000D01*
X701860Y209878D02*
X720000Y191738D01*
X701860Y209878D02*
X710122Y218140D01*
X720000Y191738D02*
X728262Y200000D01*
X586000Y231738D02*
X604140Y249878D01*
X577738Y240000D02*
X595878Y258140D01*
X604140Y249878D01*
X577738Y240000D02*
X586000Y231738D01*
X585230Y218716D02*
X616343Y249828D01*
X585230Y218716D02*
X630485Y173461D01*
X661598Y204574D01*
X616343Y249828D02*
X661598Y204574D01*
X580988Y218716D02*
X616343Y254071D01*
X580988Y218716D02*
X630485Y169218D01*
X665841Y204574D01*
X616343Y254071D02*
X665841Y204574D01*
X620586Y200331D02*
X622000Y198917D01*
X615636Y192553D02*
X622000Y198917D01*
X615636Y192553D02*
X618464Y189724D01*
X624828Y196088D01*
X627657Y193260D01*
X621293Y186896D02*
X627657Y193260D01*
X621293Y186896D02*
X622707Y185482D01*
X571088Y213059D02*
X624828Y159319D01*
X675740Y210230D01*
X655234Y230737D02*
X675740Y210230D01*
X622000Y263971D02*
X655234Y230737D01*
X571088Y213059D02*
X622000Y263971D01*
X618465Y260435D02*
X619879Y261849D01*
X618465Y260435D02*
X625536D01*
X626243Y259728D01*
X655122Y163140D02*
X673262Y145000D01*
X646860Y154878D02*
X665000Y136738D01*
X646860Y154878D02*
X655122Y163140D01*
X665000Y136738D02*
X673262Y145000D01*
X610122Y118140D02*
X628262Y100000D01*
X601860Y109878D02*
X620000Y91738D01*
X601860Y109878D02*
X610122Y118140D01*
X620000Y91738D02*
X628262Y100000D01*
X585000Y86738D02*
X603140Y104878D01*
X576738Y95000D02*
X594878Y113140D01*
X603140Y104878D01*
X576738Y95000D02*
X585000Y86738D01*
X54158Y75158D02*
Y86842D01*
X79812Y75158D02*
Y86842D01*
X54158D02*
X79812D01*
X54158Y75158D02*
X79812D01*
X54158Y9158D02*
Y20842D01*
X79812Y9158D02*
Y20842D01*
X54158D02*
X79812D01*
X54158Y9158D02*
X79812D01*
X476738Y305000D02*
X494878Y286860D01*
X485000Y313262D02*
X503140Y295122D01*
X494878Y286860D02*
X503140Y295122D01*
X476738Y305000D02*
X485000Y313262D01*
X441738Y270000D02*
X459878Y251860D01*
X450000Y278262D02*
X468140Y260122D01*
X459878Y251860D02*
X468140Y260122D01*
X441738Y270000D02*
X450000Y278262D01*
X411738Y432500D02*
X420000Y440762D01*
X429878Y414360D02*
X438140Y422622D01*
X420000Y440762D02*
X438140Y422622D01*
X411738Y432500D02*
X429878Y414360D01*
X455000Y374738D02*
X463262Y383000D01*
X436860Y392878D02*
X445122Y401140D01*
X436860Y392878D02*
X455000Y374738D01*
X445122Y401140D02*
X463262Y383000D01*
X343738Y366000D02*
X352000Y374262D01*
X361878Y347860D02*
X370140Y356122D01*
X352000Y374262D02*
X370140Y356122D01*
X343738Y366000D02*
X361878Y347860D01*
X395000Y313738D02*
X403262Y322000D01*
X376860Y331878D02*
X385122Y340140D01*
X376860Y331878D02*
X395000Y313738D01*
X385122Y340140D02*
X403262Y322000D01*
X230842Y344158D02*
Y369812D01*
X219158Y344158D02*
Y369812D01*
X230842D01*
X219158Y344158D02*
X230842D01*
Y234158D02*
Y259812D01*
X219158Y234158D02*
Y259812D01*
X230842D01*
X219158Y234158D02*
X230842D01*
X105842Y234158D02*
Y259812D01*
X94158Y234158D02*
Y259812D01*
X105842D01*
X94158Y234158D02*
X105842D01*
X105842Y344158D02*
Y369812D01*
X94158Y344158D02*
Y369812D01*
X105842D01*
X94158Y344158D02*
X105842D01*
X88890Y344600D02*
X88890Y380160D01*
X71110Y344600D02*
X71110Y380160D01*
X88890D01*
X71110Y344600D02*
X88890Y344600D01*
X621860Y370122D02*
X640000Y388262D01*
X630122Y361860D02*
X648262Y380000D01*
X621860Y370122D02*
X630122Y361860D01*
X640000Y388262D02*
X648262Y380000D01*
X88890Y234600D02*
X88890Y270160D01*
X71110Y234600D02*
X71110Y270160D01*
X88890D01*
X71110Y234600D02*
X88890Y234600D01*
X213890Y234600D02*
X213890Y270160D01*
X196110Y234600D02*
X196110Y270160D01*
X213890D01*
X196110Y234600D02*
X213890Y234600D01*
X566738Y105000D02*
X575000Y96738D01*
X584878Y123140D02*
X593140Y114878D01*
X566738Y105000D02*
X584878Y123140D01*
X575000Y96738D02*
X593140Y114878D01*
X620000Y408262D02*
X628262Y400000D01*
X601860Y390122D02*
X610122Y381860D01*
X628262Y400000D01*
X601860Y390122D02*
X620000Y408262D01*
X470000Y201738D02*
X488140Y219878D01*
X461738Y210000D02*
X479878Y228140D01*
X488140Y219878D01*
X461738Y210000D02*
X470000Y201738D01*
X500000Y171738D02*
X518140Y189878D01*
X491738Y180000D02*
X509878Y198140D01*
X518140Y189878D01*
X491738Y180000D02*
X500000Y171738D01*
X566738Y395000D02*
X575000Y403262D01*
X584878Y376860D02*
X593140Y385122D01*
X575000Y403262D02*
X593140Y385122D01*
X566738Y395000D02*
X584878Y376860D01*
X715753Y236674D02*
X740898Y211530D01*
X728326Y249247D02*
X753470Y224102D01*
X740898Y211530D02*
X753470Y224102D01*
X715753Y236674D02*
X728326Y249247D01*
X281110Y329840D02*
X281110Y365400D01*
X298890Y329840D02*
X298890Y365400D01*
X281110Y329840D02*
X298890D01*
X281110Y365400D02*
X298890Y365400D01*
X228890Y194600D02*
X228890Y230160D01*
X211110Y194600D02*
X211110Y230160D01*
X228890D01*
X211110Y194600D02*
X228890Y194600D01*
X156110Y329840D02*
X156110Y365400D01*
X173890Y329840D02*
X173890Y365400D01*
X156110Y329840D02*
X173890D01*
X156110Y365400D02*
X173890Y365400D01*
X708326Y270753D02*
X733470Y295898D01*
X695753Y283326D02*
X720898Y308470D01*
X733470Y295898D01*
X695753Y283326D02*
X708326Y270753D01*
X556738Y385000D02*
X565000Y393262D01*
X574878Y366860D02*
X583140Y375122D01*
X565000Y393262D02*
X583140Y375122D01*
X556738Y385000D02*
X574878Y366860D01*
X476530Y194102D02*
X501674Y219247D01*
X489102Y181530D02*
X514247Y206674D01*
X476530Y194102D02*
X489102Y181530D01*
X501674Y219247D02*
X514247Y206674D01*
X213890Y344600D02*
X213890Y380160D01*
X196110Y344600D02*
X196110Y380160D01*
X213890D01*
X196110Y344600D02*
X213890Y344600D01*
X228890Y304600D02*
X228890Y340160D01*
X211110Y304600D02*
X211110Y340160D01*
X228890D01*
X211110Y304600D02*
X228890Y304600D01*
X281110Y219840D02*
X281110Y255400D01*
X298890Y219840D02*
X298890Y255400D01*
X281110Y219840D02*
X298890D01*
X281110Y255400D02*
X298890Y255400D01*
X103890Y304600D02*
X103890Y340160D01*
X86110Y304600D02*
X86110Y340160D01*
X103890D01*
X86110Y304600D02*
X103890Y304600D01*
X103890Y194600D02*
X103890Y230160D01*
X86110Y194600D02*
X86110Y230160D01*
X103890D01*
X86110Y194600D02*
X103890Y194600D01*
X156110Y219840D02*
X156110Y255400D01*
X173890Y219840D02*
X173890Y255400D01*
X156110Y219840D02*
X173890D01*
X156110Y255400D02*
X173890Y255400D01*
X650000Y121738D02*
X658262Y130000D01*
X631860Y139878D02*
X640122Y148140D01*
X631860Y139878D02*
X650000Y121738D01*
X640122Y148140D02*
X658262Y130000D01*
X461738Y290000D02*
X479878Y271860D01*
X470000Y298262D02*
X488140Y280122D01*
X479878Y271860D02*
X488140Y280122D01*
X461738Y290000D02*
X470000Y298262D01*
X735000Y293262D02*
X743262Y285000D01*
X716860Y275122D02*
X725122Y266860D01*
X743262Y285000D01*
X716860Y275122D02*
X735000Y293262D01*
X441738Y230000D02*
X450000Y221738D01*
X459878Y248140D02*
X468140Y239878D01*
X441738Y230000D02*
X459878Y248140D01*
X450000Y221738D02*
X468140Y239878D01*
X730000Y201738D02*
X738262Y210000D01*
X711860Y219878D02*
X720122Y228140D01*
X711860Y219878D02*
X730000Y201738D01*
X720122Y228140D02*
X738262Y210000D01*
X546738Y125000D02*
X555000Y116738D01*
X564878Y143140D02*
X573140Y134878D01*
X546738Y125000D02*
X564878Y143140D01*
X555000Y116738D02*
X573140Y134878D01*
X640000Y111738D02*
X648262Y120000D01*
X621860Y129878D02*
X630122Y138140D01*
X621860Y129878D02*
X640000Y111738D01*
X630122Y138140D02*
X648262Y120000D01*
X755000Y273262D02*
X763262Y265000D01*
X736860Y255122D02*
X745122Y246860D01*
X763262Y265000D01*
X736860Y255122D02*
X755000Y273262D01*
X1086158Y336188D02*
Y361842D01*
X1097842Y336188D02*
Y361842D01*
X1086158Y336188D02*
X1097842D01*
X1086158Y361842D02*
X1097842D01*
X960158Y11158D02*
Y22842D01*
X985812Y11158D02*
Y22842D01*
X960158D02*
X985812D01*
X960158Y11158D02*
X985812D01*
X962158Y72158D02*
Y83842D01*
X987812Y72158D02*
Y83842D01*
X962158D02*
X987812D01*
X962158Y72158D02*
X987812D01*
X910158Y165158D02*
X935812D01*
X910158Y176842D02*
X935812D01*
Y165158D02*
Y176842D01*
X910158Y165158D02*
Y176842D01*
X910188Y328842D02*
X935842D01*
X910188Y317158D02*
X935842D01*
X910188D02*
Y328842D01*
X935842Y317158D02*
Y328842D01*
X940188D02*
X965842D01*
X940188Y317158D02*
X965842D01*
X940188D02*
Y328842D01*
X965842Y317158D02*
Y328842D01*
X1054158Y265188D02*
Y290842D01*
X1065842Y265188D02*
Y290842D01*
X1054158Y265188D02*
X1065842D01*
X1054158Y290842D02*
X1065842D01*
X1084158Y265188D02*
Y290842D01*
X1095842Y265188D02*
Y290842D01*
X1084158Y265188D02*
X1095842D01*
X1084158Y290842D02*
X1095842D01*
X981658Y179158D02*
X1007312D01*
X981658Y190842D02*
X1007312D01*
Y179158D02*
Y190842D01*
X981658Y179158D02*
Y190842D01*
X939158Y166658D02*
X964812D01*
X939158Y178342D02*
X964812D01*
Y166658D02*
Y178342D01*
X939158Y166658D02*
Y178342D01*
X906840Y212890D02*
X942400Y212890D01*
X906840Y195110D02*
X942400Y195110D01*
X906840Y195110D02*
Y212890D01*
X942400Y212890D02*
X942400Y195110D01*
X762842Y145158D02*
Y156842D01*
X737188Y145158D02*
Y156842D01*
Y145158D02*
X762842D01*
X737188Y156842D02*
X762842D01*
X837158Y186158D02*
Y197842D01*
X862812Y186158D02*
Y197842D01*
X837158D02*
X862812D01*
X837158Y186158D02*
X862812D01*
X709158Y145158D02*
Y156842D01*
X734812Y145158D02*
Y156842D01*
X709158D02*
X734812D01*
X709158Y145158D02*
X734812D01*
X1020842Y434158D02*
Y445842D01*
X995188Y434158D02*
Y445842D01*
Y434158D02*
X1020842D01*
X995188Y445842D02*
X1020842D01*
X1110842Y229158D02*
Y254812D01*
X1099158Y229158D02*
Y254812D01*
X1110842D01*
X1099158Y229158D02*
X1110842D01*
X1080842D02*
Y254812D01*
X1069158Y229158D02*
Y254812D01*
X1080842D01*
X1069158Y229158D02*
X1080842D01*
X462500Y419238D02*
X470762Y427500D01*
X444360Y437378D02*
X452622Y445640D01*
X444360Y437378D02*
X462500Y419238D01*
X452622Y445640D02*
X470762Y427500D01*
X463208Y18396D02*
Y30080D01*
X437554Y18396D02*
Y30080D01*
Y18396D02*
X463208D01*
X437554Y30080D02*
X463208D01*
D51*
X497654Y448573D02*
G03*
X497654Y448573I-1250J0D01*
G01*
X106750Y232500D02*
G03*
X106750Y232500I-1250J0D01*
G01*
X106750Y342500D02*
G03*
X106750Y342500I-1250J0D01*
G01*
X231750D02*
G03*
X231750Y342500I-1250J0D01*
G01*
Y232500D02*
G03*
X231750Y232500I-1250J0D01*
G01*
D52*
X465000Y37500D02*
Y52735D01*
X457383D01*
X454843Y50196D01*
Y45118D01*
X457383Y42578D01*
X465000D01*
X442147Y52735D02*
X447226D01*
X449765Y50196D01*
Y40039D01*
X447226Y37500D01*
X442147D01*
X439608Y40039D01*
Y50196D01*
X442147Y52735D01*
X434530D02*
Y37500D01*
X429451Y42578D01*
X424373Y37500D01*
Y52735D01*
X409138D02*
X419295D01*
Y37500D01*
X409138D01*
X419295Y45118D02*
X414216D01*
X404060Y37500D02*
Y52735D01*
X396442D01*
X393903Y50196D01*
Y45118D01*
X396442Y42578D01*
X404060D01*
X398981D02*
X393903Y37500D01*
X927500Y487735D02*
Y472500D01*
X919883D01*
X917343Y475039D01*
Y485196D01*
X919883Y487735D01*
X927500D01*
X904647D02*
X909726D01*
X912265Y485196D01*
Y475039D01*
X909726Y472500D01*
X904647D01*
X902108Y475039D01*
Y485196D01*
X904647Y487735D01*
X897030Y472500D02*
Y487735D01*
X886873Y472500D01*
Y487735D01*
X871638D02*
X881795D01*
Y472500D01*
X871638D01*
X881795Y480117D02*
X876716D01*
D53*
X942500Y460497D02*
Y452500D01*
X938501D01*
X937168Y453833D01*
Y459165D01*
X938501Y460497D01*
X942500D01*
X930504Y452500D02*
Y460497D01*
X934503Y456499D01*
X929171D01*
X390000Y17997D02*
Y10000D01*
X386001D01*
X384668Y11333D01*
Y16665D01*
X386001Y17997D01*
X390000D01*
X382003Y16665D02*
X380670Y17997D01*
X378004D01*
X376671Y16665D01*
Y15332D01*
X378004Y13999D01*
X379337D01*
X378004D01*
X376671Y12666D01*
Y11333D01*
X378004Y10000D01*
X380670D01*
X382003Y11333D01*
X557500Y475497D02*
Y468833D01*
X556167Y467500D01*
X553501D01*
X552168Y468833D01*
Y475497D01*
X549503Y467500D02*
X546837D01*
X548170D01*
Y475497D01*
X549503Y474165D01*
X542838Y467500D02*
X540172D01*
X541505D01*
Y475497D01*
X542838Y474165D01*
X443442Y450983D02*
X445327D01*
X447212Y449098D01*
X447212Y447212D01*
X443442Y443442D01*
X441558D01*
X439673Y445327D01*
X439673Y447212D01*
X438730Y457580D02*
X439673Y454753D01*
Y450983D01*
X437788Y449098D01*
X435902D01*
X434017Y450983D01*
X434017Y452868D01*
X434960Y453810D01*
X436845Y453810D01*
X439673Y450983D01*
X435902Y458523D02*
X435902Y460408D01*
X434017Y462293D01*
X432132D01*
X428362Y458523D01*
X428362Y456638D01*
X430247Y454753D01*
X432132D01*
X435902Y458523D01*
X1020000Y450000D02*
Y457997D01*
X1016001D01*
X1014668Y456665D01*
Y453999D01*
X1016001Y452666D01*
X1020000D01*
X1017334D02*
X1014668Y450000D01*
X1006671D02*
X1012003D01*
X1006671Y455332D01*
Y456665D01*
X1008004Y457997D01*
X1010670D01*
X1012003Y456665D01*
X998673Y457997D02*
X1001339Y456665D01*
X1004005Y453999D01*
Y451333D01*
X1002672Y450000D01*
X1000006D01*
X998673Y451333D01*
Y452666D01*
X1000006Y453999D01*
X1004005D01*
X462500Y7500D02*
Y15497D01*
X458501D01*
X457168Y14165D01*
Y11499D01*
X458501Y10166D01*
X462500D01*
X459834D02*
X457168Y7500D01*
X449171D02*
X454503D01*
X449171Y12832D01*
Y14165D01*
X450504Y15497D01*
X453170D01*
X454503Y14165D01*
X441174Y15497D02*
X446505D01*
Y11499D01*
X443839Y12832D01*
X442506D01*
X441174Y11499D01*
Y8833D01*
X442506Y7500D01*
X445172D01*
X446505Y8833D01*
X462997Y477500D02*
X455000D01*
Y481499D01*
X456333Y482832D01*
X461665D01*
X462997Y481499D01*
Y477500D01*
X455000Y490829D02*
Y485497D01*
X460332Y490829D01*
X461665D01*
X462997Y489496D01*
Y486830D01*
X461665Y485497D01*
X517997Y477500D02*
X510000D01*
Y481499D01*
X511333Y482832D01*
X516665D01*
X517997Y481499D01*
Y477500D01*
X510000Y485497D02*
Y488163D01*
Y486830D01*
X517997D01*
X516665Y485497D01*
X371942Y369482D02*
X373828D01*
X375713Y367598D01*
X375713Y365713D01*
X371942Y361942D01*
X370057D01*
X368172Y363828D01*
X368172Y365713D01*
X367230Y376080D02*
X371000Y372310D01*
X368172Y369482D01*
X367230Y372310D01*
X366287Y373253D01*
X364403D01*
X362518Y371368D01*
X362517Y369482D01*
X364402Y367598D01*
X366287D01*
X360633Y373253D02*
X358747D01*
X356862Y375138D01*
X356862Y377023D01*
X360633Y380793D01*
X362517D01*
X364402Y378908D01*
X364403Y377023D01*
X363460Y376080D01*
X361575Y376080D01*
X358747Y378908D01*
X439943Y434983D02*
X441828D01*
X443713Y433098D01*
X443713Y431213D01*
X439943Y427443D01*
X438058D01*
X436172Y429328D01*
X436172Y431213D01*
X435230Y441580D02*
X439000Y437810D01*
X436172Y434983D01*
X435230Y437810D01*
X434287Y438753D01*
X432402D01*
X430518Y436868D01*
X430518Y434983D01*
X432402Y433098D01*
X434287D01*
X432402Y442523D02*
X432402Y444408D01*
X430518Y446293D01*
X428633D01*
X427690Y445350D01*
Y443465D01*
X425805Y443465D01*
X424862Y442523D01*
X424862Y440638D01*
X426747Y438753D01*
X428633D01*
X429575Y439695D01*
Y441580D01*
X431460Y441580D01*
X432402Y442523D01*
X429575Y441580D02*
X427690Y443465D01*
X405942Y335483D02*
X407827D01*
X409712Y333598D01*
X409712Y331712D01*
X405942Y327943D01*
X404058D01*
X402173Y329827D01*
X402173Y331712D01*
X401230Y342080D02*
X405000Y338310D01*
X402173Y335483D01*
X401230Y338310D01*
X400288Y339253D01*
X398402D01*
X396517Y337368D01*
X396517Y335483D01*
X398402Y333598D01*
X400288D01*
X399345Y343965D02*
X395575Y347735D01*
X394632Y346793D01*
Y339253D01*
X393690Y338310D01*
X443442Y380983D02*
X445327D01*
X447212Y379098D01*
X447212Y377212D01*
X443442Y373442D01*
X441558D01*
X439673Y375327D01*
X439673Y377212D01*
X438730Y387580D02*
X442500Y383810D01*
X439673Y380983D01*
X438730Y383810D01*
X437788Y384753D01*
X435902D01*
X434017Y382868D01*
X434017Y380983D01*
X435902Y379098D01*
X437788D01*
X433075Y393235D02*
X434017Y390408D01*
Y386638D01*
X432132Y384753D01*
X430247D01*
X428362Y386638D01*
X428362Y388523D01*
X429305Y389465D01*
X431190Y389465D01*
X434017Y386638D01*
X629345Y215655D02*
X634058Y210942D01*
Y209058D01*
X632173Y207173D01*
X630288Y207173D01*
X625575Y211885D01*
X624632Y209058D02*
X622747Y209058D01*
X620862Y207173D01*
Y205287D01*
X621805Y204345D01*
X623690D01*
X623690Y202460D01*
X624632Y201518D01*
X626517Y201518D01*
X628402Y203403D01*
Y205287D01*
X627460Y206230D01*
X625575D01*
X625575Y208115D01*
X624632Y209058D01*
X625575Y206230D02*
X623690Y204345D01*
X327152Y156210D02*
Y164207D01*
X324486Y161542D01*
X321820Y164207D01*
Y156210D01*
X313823D02*
X319155D01*
X313823Y161542D01*
Y162875D01*
X315156Y164207D01*
X317822D01*
X319155Y162875D01*
X1227328Y156210D02*
Y164207D01*
X1224662Y161542D01*
X1221996Y164207D01*
Y156210D01*
X1219331D02*
X1216665D01*
X1217998D01*
Y164207D01*
X1219331Y162875D01*
X830000Y263314D02*
X824345Y268969D01*
X821517Y266141D01*
Y264256D01*
X823402Y262371D01*
X825287Y262371D01*
X828115Y265199D01*
X826230Y263314D02*
Y259544D01*
X820575Y253889D02*
X824345Y257659D01*
X816805D01*
X815862Y258601D01*
Y260486D01*
X817747Y262371D01*
X819632Y262371D01*
X95000Y264000D02*
X102997D01*
Y267999D01*
X101664Y269332D01*
X98999D01*
X97666Y267999D01*
Y264000D01*
Y266666D02*
X95000Y269332D01*
Y275996D02*
X102997D01*
X98999Y271997D01*
Y277329D01*
X228000Y386000D02*
X220003D01*
Y382001D01*
X221336Y380668D01*
X224001D01*
X225334Y382001D01*
Y386000D01*
Y383334D02*
X228000Y380668D01*
X221336Y378003D02*
X220003Y376670D01*
Y374004D01*
X221336Y372671D01*
X222668D01*
X224001Y374004D01*
Y375337D01*
Y374004D01*
X225334Y372671D01*
X226667D01*
X228000Y374004D01*
Y376670D01*
X226667Y378003D01*
X166003Y210000D02*
X174000D01*
Y204668D01*
Y196671D02*
Y202003D01*
X168668Y196671D01*
X167335D01*
X166003Y198004D01*
Y200670D01*
X167335Y202003D01*
X300000Y298997D02*
Y291000D01*
X294668D01*
X292003D02*
X289337D01*
X290670D01*
Y298997D01*
X292003Y297665D01*
X167003Y315000D02*
X175000D01*
Y309668D01*
Y303004D02*
X167003D01*
X171001Y307003D01*
Y301671D01*
X290003Y213000D02*
X298000D01*
Y207668D01*
X291336Y205003D02*
X290003Y203670D01*
Y201004D01*
X291336Y199671D01*
X292668D01*
X294001Y201004D01*
Y202337D01*
Y201004D01*
X295334Y199671D01*
X296667D01*
X298000Y201004D01*
Y203670D01*
X296667Y205003D01*
X642114Y402142D02*
X643447Y403475D01*
X646113D01*
X647446Y402142D01*
Y396811D01*
X646113Y395478D01*
X643447D01*
X642114Y396811D01*
X635450Y395478D02*
Y403475D01*
X639449Y399477D01*
X634117D01*
X525942Y367483D02*
X527827D01*
X529712Y365597D01*
X529712Y363713D01*
X525942Y359943D01*
X524058D01*
X522173Y361828D01*
X522173Y363713D01*
X524058Y369368D02*
X524058Y371253D01*
X522173Y373138D01*
X520288D01*
X519345Y372195D01*
Y370310D01*
X520288Y369368D01*
X519345Y370310D01*
X517460Y370310D01*
X516517Y369368D01*
X516517Y367483D01*
X518402Y365597D01*
X520288D01*
X475942Y318482D02*
X477827D01*
X479712Y316597D01*
X479712Y314713D01*
X475942Y310942D01*
X474058D01*
X472173Y312827D01*
X472173Y314713D01*
X465575Y319425D02*
X469345Y315655D01*
Y323195D01*
X470288Y324138D01*
X472173D01*
X474058Y322253D01*
X474058Y320368D01*
X440942Y282483D02*
X442827D01*
X444712Y280598D01*
X444712Y278713D01*
X440942Y274942D01*
X439058D01*
X437173Y276828D01*
X437173Y278713D01*
X434345Y279655D02*
X432460Y281540D01*
X433402Y280598D01*
X439058Y286253D01*
X439058Y284368D01*
X757517Y287943D02*
Y289827D01*
X759402Y291712D01*
X761288Y291712D01*
X765058Y287943D01*
Y286057D01*
X763173Y284172D01*
X761288Y284172D01*
X750920Y283230D02*
X753747Y284172D01*
X757517D01*
X759402Y282288D01*
Y280403D01*
X757517Y278517D01*
X755632Y278517D01*
X754690Y279460D01*
X754690Y281345D01*
X757517Y284172D01*
X716517Y328942D02*
Y330827D01*
X718402Y332713D01*
X720287Y332713D01*
X724057Y328942D01*
Y327057D01*
X722172Y325173D01*
X720287Y325173D01*
X709920Y324230D02*
X713690Y328000D01*
X716517Y325173D01*
X713690Y324230D01*
X712747Y323288D01*
Y321403D01*
X714632Y319517D01*
X716517Y319517D01*
X718402Y321403D01*
Y323288D01*
X675058Y131517D02*
X673173D01*
X671288Y133403D01*
X671288Y135288D01*
X675058Y139058D01*
X676943D01*
X678828Y137172D01*
X678828Y135288D01*
X681655Y134345D02*
X683540Y132460D01*
X682598Y133403D01*
X676943Y127747D01*
X676943Y129632D01*
X681655Y124920D02*
X681655Y123035D01*
X683540Y121150D01*
X685425D01*
X689195Y124920D01*
X689195Y126805D01*
X687310Y128690D01*
X685425D01*
X681655Y124920D01*
X696058Y220517D02*
X694173D01*
X692288Y222402D01*
X692288Y224287D01*
X696058Y228057D01*
X697943D01*
X699827Y226173D01*
X699827Y224287D01*
X701712Y222402D02*
X703598D01*
X705483Y220517D01*
X705482Y218632D01*
X701712Y214862D01*
X699827D01*
X697943Y216747D01*
X697943Y218632D01*
X698885Y219575D01*
X700770Y219575D01*
X703597Y216747D01*
X572517Y231943D02*
Y233827D01*
X574403Y235713D01*
X576287Y235713D01*
X580057Y231943D01*
Y230058D01*
X578172Y228172D01*
X576287Y228172D01*
X570632Y230058D02*
X568747Y230058D01*
X566862Y228172D01*
Y226287D01*
X567805Y225345D01*
X569690D01*
X569690Y223460D01*
X570632Y222518D01*
X572517Y222517D01*
X574403Y224402D01*
Y226287D01*
X573460Y227230D01*
X571575D01*
X571575Y229115D01*
X570632Y230058D01*
X571575Y227230D02*
X569690Y225345D01*
X703517Y341942D02*
Y343828D01*
X705402Y345713D01*
X707288Y345713D01*
X711058Y341942D01*
Y340057D01*
X709173Y338172D01*
X707288Y338172D01*
X700690Y341000D02*
X696920Y337230D01*
X697862Y336287D01*
X705402D01*
X706345Y335345D01*
X571517Y85942D02*
Y87828D01*
X573402Y89712D01*
X575288Y89712D01*
X579058Y85942D01*
Y84058D01*
X577173Y82172D01*
X575288Y82172D01*
X574345Y79345D02*
X572460Y77460D01*
X573402Y78403D01*
X567747Y84058D01*
X569632Y84058D01*
X565862Y70862D02*
X569632Y74632D01*
X562092D01*
X561150Y75575D01*
Y77460D01*
X563035Y79345D01*
X564920Y79345D01*
X628058Y85517D02*
X626172D01*
X624287Y87402D01*
X624287Y89288D01*
X628058Y93057D01*
X629943D01*
X631828Y91173D01*
X631828Y89288D01*
X634655Y88345D02*
X636540Y86460D01*
X635598Y87402D01*
X629943Y81747D01*
X629943Y83632D01*
X639368D02*
X641253Y81747D01*
X640310Y82690D01*
X634655Y77035D01*
X634655Y78920D01*
X77336Y288668D02*
X76003Y290001D01*
Y292667D01*
X77336Y294000D01*
X82667D01*
X84000Y292667D01*
Y290001D01*
X82667Y288668D01*
X77336Y286003D02*
X76003Y284670D01*
Y282004D01*
X77336Y280671D01*
X78668D01*
X80001Y282004D01*
Y283337D01*
Y282004D01*
X81334Y280671D01*
X82667D01*
X84000Y282004D01*
Y284670D01*
X82667Y286003D01*
X76003Y272673D02*
Y278005D01*
X80001D01*
X78668Y275339D01*
Y274006D01*
X80001Y272673D01*
X82667D01*
X84000Y274006D01*
Y276672D01*
X82667Y278005D01*
X202335Y289668D02*
X201003Y291001D01*
Y293667D01*
X202335Y295000D01*
X207667D01*
X209000Y293667D01*
Y291001D01*
X207667Y289668D01*
X202335Y287003D02*
X201003Y285670D01*
Y283004D01*
X202335Y281671D01*
X203668D01*
X205001Y283004D01*
Y284337D01*
Y283004D01*
X206334Y281671D01*
X207667D01*
X209000Y283004D01*
Y285670D01*
X207667Y287003D01*
Y279005D02*
X209000Y277672D01*
Y275006D01*
X207667Y273673D01*
X202335D01*
X201003Y275006D01*
Y277672D01*
X202335Y279005D01*
X203668D01*
X205001Y277672D01*
Y273673D01*
X561517Y95942D02*
Y97828D01*
X563402Y99712D01*
X565288Y99712D01*
X569058Y95942D01*
Y94058D01*
X567173Y92172D01*
X565288Y92172D01*
X560575Y85575D02*
X564345Y89345D01*
X556805D01*
X555862Y90288D01*
Y92172D01*
X557747Y94058D01*
X559632Y94058D01*
X554920Y79920D02*
X558690Y83690D01*
X551150D01*
X550207Y84632D01*
Y86517D01*
X552092Y88402D01*
X553977Y88403D01*
X633483Y407057D02*
Y405173D01*
X631598Y403288D01*
X629712Y403288D01*
X625942Y407057D01*
Y408942D01*
X627827Y410827D01*
X629712Y410827D01*
X630655Y413655D02*
X632540Y415540D01*
X631598Y414598D01*
X637253Y408942D01*
X635368Y408942D01*
X640080Y413655D02*
X641965Y413655D01*
X643850Y415540D01*
Y417425D01*
X642908Y418368D01*
X641023D01*
Y420253D01*
X640080Y421195D01*
X638195Y421195D01*
X636310Y419310D01*
Y417425D01*
X637253Y416483D01*
X639138D01*
Y414598D01*
X640080Y413655D01*
X639138Y416483D02*
X641023Y418368D01*
X493483Y229058D02*
Y227173D01*
X491598Y225287D01*
X489712Y225287D01*
X485942Y229058D01*
Y230942D01*
X487827Y232828D01*
X489712Y232827D01*
X494425Y239425D02*
X490655Y235655D01*
X498195D01*
X499138Y234713D01*
Y232828D01*
X497253Y230942D01*
X495368Y230942D01*
X501023Y236597D02*
X502908Y236598D01*
X504793Y238483D01*
Y240368D01*
X503850Y241310D01*
X501965D01*
X501965Y243195D01*
X501023Y244138D01*
X499138Y244138D01*
X497253Y242253D01*
Y240368D01*
X498195Y239425D01*
X500080D01*
X500080Y237540D01*
X501023Y236597D01*
X500080Y239425D02*
X501965Y241310D01*
X531517Y215942D02*
Y217827D01*
X533402Y219713D01*
X535287Y219713D01*
X539058Y215942D01*
Y214058D01*
X537173Y212173D01*
X535287Y212173D01*
X534345Y209345D02*
X532460Y207460D01*
X533402Y208403D01*
X527747Y214058D01*
X529632Y214058D01*
X526805Y201805D02*
X521150Y207460D01*
X526805Y207460D01*
X523035Y203690D01*
X565942Y408483D02*
X567827D01*
X569712Y406598D01*
X569712Y404713D01*
X565942Y400942D01*
X564058D01*
X562173Y402827D01*
X562173Y404713D01*
X559345Y405655D02*
X557460Y407540D01*
X558402Y406598D01*
X564058Y412253D01*
X564058Y410368D01*
X560287Y416023D02*
X556517Y419793D01*
X555575Y418850D01*
Y411310D01*
X554632Y410368D01*
X753057Y208517D02*
X751172D01*
X749287Y210402D01*
X749287Y212288D01*
X753057Y216057D01*
X754942D01*
X756827Y214172D01*
X756827Y212288D01*
X763425Y207575D02*
X759655Y211345D01*
Y203805D01*
X758712Y202862D01*
X756827D01*
X754942Y204747D01*
X754942Y206632D01*
X768138Y202862D02*
X762483Y197207D01*
X762483Y202862D01*
X766253Y199092D01*
X286336Y385668D02*
X285003Y387001D01*
Y389667D01*
X286336Y391000D01*
X291667D01*
X293000Y389667D01*
Y387001D01*
X291667Y385668D01*
X286336Y383003D02*
X285003Y381670D01*
Y379004D01*
X286336Y377671D01*
X287668D01*
X289001Y379004D01*
Y380337D01*
Y379004D01*
X290334Y377671D01*
X291667D01*
X293000Y379004D01*
Y381670D01*
X291667Y383003D01*
X286336Y375005D02*
X285003Y373672D01*
Y371006D01*
X286336Y369674D01*
X291667D01*
X293000Y371006D01*
Y373672D01*
X291667Y375005D01*
X286336D01*
X201336Y219668D02*
X200003Y221001D01*
Y223667D01*
X201336Y225000D01*
X206667D01*
X208000Y223667D01*
Y221001D01*
X206667Y219668D01*
X201336Y217003D02*
X200003Y215670D01*
Y213004D01*
X201336Y211671D01*
X202668D01*
X204001Y213004D01*
Y214337D01*
Y213004D01*
X205334Y211671D01*
X206667D01*
X208000Y213004D01*
Y215670D01*
X206667Y217003D01*
X201336Y209005D02*
X200003Y207672D01*
Y205006D01*
X201336Y203674D01*
X202668D01*
X204001Y205006D01*
X205334Y203674D01*
X206667D01*
X208000Y205006D01*
Y207672D01*
X206667Y209005D01*
X205334D01*
X204001Y207672D01*
X202668Y209005D01*
X201336D01*
X204001Y207672D02*
Y205006D01*
X167665Y374332D02*
X168997Y372999D01*
Y370333D01*
X167665Y369000D01*
X162333D01*
X161000Y370333D01*
Y372999D01*
X162333Y374332D01*
X167665Y376997D02*
X168997Y378330D01*
Y380996D01*
X167665Y382329D01*
X166332D01*
X164999Y380996D01*
Y379663D01*
Y380996D01*
X163666Y382329D01*
X162333D01*
X161000Y380996D01*
Y378330D01*
X162333Y376997D01*
X168997Y384995D02*
Y390326D01*
X167665D01*
X162333Y384995D01*
X161000D01*
X692517Y272943D02*
Y274827D01*
X694402Y276712D01*
X696288Y276712D01*
X700058Y272943D01*
Y271057D01*
X698173Y269172D01*
X696288Y269172D01*
X691575Y262575D02*
X695345Y266345D01*
X687805D01*
X686862Y267288D01*
Y269172D01*
X688747Y271057D01*
X690632Y271057D01*
X688747Y261632D02*
Y259747D01*
X686862Y257862D01*
X684977Y257862D01*
X681207Y261632D01*
Y263517D01*
X683092Y265402D01*
X684977Y265403D01*
X685920Y264460D01*
X685920Y262575D01*
X683092Y259747D01*
X544058Y400517D02*
X542173D01*
X540288Y402402D01*
X540288Y404287D01*
X544058Y408058D01*
X545942D01*
X547827Y406172D01*
X547827Y404287D01*
X554425Y399575D02*
X550655Y403345D01*
Y395805D01*
X549712Y394862D01*
X547827D01*
X545942Y396747D01*
X545942Y398632D01*
X554425Y388265D02*
X550655Y392035D01*
X553483Y394862D01*
X554425Y392035D01*
X555368Y391092D01*
X557253D01*
X559138Y392977D01*
X559138Y394862D01*
X557253Y396747D01*
X555368D01*
X520518Y226943D02*
Y228827D01*
X522402Y230713D01*
X524287Y230713D01*
X528058Y226943D01*
Y225058D01*
X526172Y223172D01*
X524287Y223172D01*
X523345Y220345D02*
X521460Y218460D01*
X522402Y219403D01*
X516747Y225058D01*
X518632Y225058D01*
X509207Y217517D02*
X512977Y221287D01*
X515805Y218460D01*
X512977Y217517D01*
X512035Y216575D01*
Y214690D01*
X513920Y212805D01*
X515805Y212805D01*
X517690Y214690D01*
Y216575D01*
X202335Y399668D02*
X201003Y401001D01*
Y403667D01*
X202335Y405000D01*
X207667D01*
X209000Y403667D01*
Y401001D01*
X207667Y399668D01*
X202335Y397003D02*
X201003Y395670D01*
Y393004D01*
X202335Y391671D01*
X203668D01*
X205001Y393004D01*
Y394337D01*
Y393004D01*
X206334Y391671D01*
X207667D01*
X209000Y393004D01*
Y395670D01*
X207667Y397003D01*
X202335Y389005D02*
X201003Y387672D01*
Y385006D01*
X202335Y383674D01*
X203668D01*
X205001Y385006D01*
Y386339D01*
Y385006D01*
X206334Y383674D01*
X207667D01*
X209000Y385006D01*
Y387672D01*
X207667Y389005D01*
X206665Y314332D02*
X207997Y312999D01*
Y310333D01*
X206665Y309000D01*
X201333D01*
X200000Y310333D01*
Y312999D01*
X201333Y314332D01*
X206665Y316997D02*
X207997Y318330D01*
Y320996D01*
X206665Y322329D01*
X205332D01*
X203999Y320996D01*
Y319663D01*
Y320996D01*
X202666Y322329D01*
X201333D01*
X200000Y320996D01*
Y318330D01*
X201333Y316997D01*
X200000Y330326D02*
Y324995D01*
X205332Y330326D01*
X206665D01*
X207997Y328994D01*
Y326328D01*
X206665Y324995D01*
X286336Y273668D02*
X285003Y275001D01*
Y277667D01*
X286336Y279000D01*
X291667D01*
X293000Y277667D01*
Y275001D01*
X291667Y273668D01*
X286336Y271003D02*
X285003Y269670D01*
Y267004D01*
X286336Y265671D01*
X287668D01*
X289001Y267004D01*
Y268337D01*
Y267004D01*
X290334Y265671D01*
X291667D01*
X293000Y267004D01*
Y269670D01*
X291667Y271003D01*
X285003Y257674D02*
X286336Y260339D01*
X289001Y263005D01*
X291667D01*
X293000Y261672D01*
Y259006D01*
X291667Y257674D01*
X290334D01*
X289001Y259006D01*
Y263005D01*
X75335Y329668D02*
X74003Y331001D01*
Y333667D01*
X75335Y335000D01*
X80667D01*
X82000Y333667D01*
Y331001D01*
X80667Y329668D01*
X82000Y323004D02*
X74003D01*
X78001Y327003D01*
Y321671D01*
X75335Y319005D02*
X74003Y317672D01*
Y315006D01*
X75335Y313673D01*
X80667D01*
X82000Y315006D01*
Y317672D01*
X80667Y319005D01*
X75335D01*
X93336Y185668D02*
X92003Y187001D01*
Y189667D01*
X93336Y191000D01*
X98667D01*
X100000Y189667D01*
Y187001D01*
X98667Y185668D01*
X93336Y183003D02*
X92003Y181670D01*
Y179004D01*
X93336Y177671D01*
X94668D01*
X96001Y179004D01*
Y180337D01*
Y179004D01*
X97334Y177671D01*
X98667D01*
X100000Y179004D01*
Y181670D01*
X98667Y183003D01*
X100000Y171006D02*
X92003D01*
X96001Y175005D01*
Y169674D01*
X168664Y264332D02*
X169997Y262999D01*
Y260333D01*
X168664Y259000D01*
X163333D01*
X162000Y260333D01*
Y262999D01*
X163333Y264332D01*
X168664Y266997D02*
X169997Y268330D01*
Y270996D01*
X168664Y272329D01*
X167332D01*
X165999Y270996D01*
Y269663D01*
Y270996D01*
X164666Y272329D01*
X163333D01*
X162000Y270996D01*
Y268330D01*
X163333Y266997D01*
X162000Y274995D02*
Y277661D01*
Y276328D01*
X169997D01*
X168664Y274995D01*
X659057Y116517D02*
X657172D01*
X655287Y118403D01*
X655287Y120288D01*
X659057Y124058D01*
X660943D01*
X662828Y122172D01*
X662828Y120288D01*
X669425Y115575D02*
X665655Y119345D01*
Y111805D01*
X664713Y110862D01*
X662828D01*
X660943Y112747D01*
X660943Y114632D01*
X665655Y108035D02*
X669425Y104265D01*
X670368Y105207D01*
Y112747D01*
X671310Y113690D01*
X449058Y301517D02*
X447173D01*
X445288Y303402D01*
X445288Y305287D01*
X449058Y309058D01*
X450942D01*
X452827Y307173D01*
X452827Y305287D01*
X455655Y304345D02*
X457540Y302460D01*
X456598Y303402D01*
X450942Y297747D01*
X450942Y299632D01*
X458483Y290207D02*
X457540Y293035D01*
Y296805D01*
X459425Y298690D01*
X461310D01*
X463195Y296805D01*
X463195Y294920D01*
X462253Y293977D01*
X460368D01*
X457540Y296805D01*
X711517Y265942D02*
Y267827D01*
X713402Y269713D01*
X715287Y269713D01*
X719057Y265942D01*
Y264058D01*
X717172Y262173D01*
X715287Y262173D01*
X710575Y255575D02*
X714345Y259345D01*
X706805D01*
X705862Y260287D01*
Y262173D01*
X707747Y264058D01*
X709632Y264058D01*
X699265Y255575D02*
X702092Y256518D01*
X705862D01*
X707747Y254632D01*
Y252747D01*
X705862Y250862D01*
X703977Y250862D01*
X703035Y251805D01*
X703035Y253690D01*
X705862Y256518D01*
X473483Y249058D02*
Y247173D01*
X471598Y245287D01*
X469712Y245287D01*
X465942Y249058D01*
Y250942D01*
X467827Y252827D01*
X469712Y252827D01*
X474425Y259425D02*
X470655Y255655D01*
X478195D01*
X479138Y254713D01*
Y252827D01*
X477253Y250942D01*
X475368Y250942D01*
X481023Y256597D02*
X482908Y256597D01*
X484793Y258482D01*
Y260368D01*
X483850Y261310D01*
X481965D01*
X481023Y260368D01*
X481965Y261310D01*
X481965Y263195D01*
X481023Y264137D01*
X479138Y264138D01*
X477253Y262253D01*
Y260368D01*
X700058Y235517D02*
X698173D01*
X696288Y237402D01*
X696288Y239287D01*
X700058Y243057D01*
X701943D01*
X703828Y241173D01*
X703828Y239287D01*
X710425Y234575D02*
X706655Y238345D01*
Y230805D01*
X705713Y229862D01*
X703828D01*
X701943Y231747D01*
X701943Y233632D01*
X707598Y227977D02*
X707598Y226092D01*
X709483Y224207D01*
X711367D01*
X715138Y227977D01*
X715138Y229862D01*
X713253Y231747D01*
X711367D01*
X707598Y227977D01*
X543483Y109058D02*
Y107172D01*
X541598Y105288D01*
X539713Y105288D01*
X535942Y109058D01*
Y110942D01*
X537828Y112828D01*
X539713Y112828D01*
X540655Y115655D02*
X542540Y117540D01*
X541598Y116598D01*
X547253Y110942D01*
X545368Y110942D01*
X550080Y115655D02*
X551965Y115655D01*
X553850Y117540D01*
Y119425D01*
X552908Y120368D01*
X551023D01*
X550080Y119425D01*
X551023Y120368D01*
Y122253D01*
X550080Y123195D01*
X548195Y123195D01*
X546310Y121310D01*
Y119425D01*
X649057Y106517D02*
X647172D01*
X645287Y108403D01*
X645287Y110288D01*
X649057Y114058D01*
X650943D01*
X652828Y112172D01*
X652828Y110288D01*
X659425Y105575D02*
X655655Y109345D01*
Y101805D01*
X654713Y100862D01*
X652828D01*
X650943Y102747D01*
X650943Y104632D01*
X661310Y103690D02*
X663195Y101805D01*
X662253Y102747D01*
X656598Y97092D01*
X656598Y98977D01*
X768483Y274058D02*
Y272173D01*
X766598Y270287D01*
X764713Y270287D01*
X760943Y274058D01*
Y275942D01*
X762828Y277827D01*
X764713Y277827D01*
X765655Y280655D02*
X767540Y282540D01*
X766598Y281598D01*
X772253Y275942D01*
X770368Y275942D01*
X771310Y284425D02*
Y286310D01*
X773195Y288195D01*
X775080Y288195D01*
X778850Y284425D01*
Y282540D01*
X776965Y280655D01*
X775080Y280655D01*
X774138Y281598D01*
Y283483D01*
X776965Y286310D01*
X990497Y445000D02*
X982500D01*
X985166D01*
X990497Y450332D01*
X986499Y446333D01*
X982500Y450332D01*
X989165Y452997D02*
X990497Y454330D01*
Y456996D01*
X989165Y458329D01*
X987832D01*
X986499Y456996D01*
Y455663D01*
Y456996D01*
X985166Y458329D01*
X983833D01*
X982500Y456996D01*
Y454330D01*
X983833Y452997D01*
X81664Y389332D02*
X82997Y387999D01*
Y385333D01*
X81664Y384000D01*
X76333D01*
X75000Y385333D01*
Y387999D01*
X76333Y389332D01*
X75000Y395996D02*
X82997D01*
X78999Y391997D01*
Y397329D01*
X75000Y399995D02*
Y402661D01*
Y401328D01*
X82997D01*
X81664Y399995D01*
X1091694Y375727D02*
X1093027Y377059D01*
X1095693D01*
X1097026Y375727D01*
Y370395D01*
X1095693Y369062D01*
X1093027D01*
X1091694Y370395D01*
X1085030Y369062D02*
Y377059D01*
X1089029Y373061D01*
X1083697D01*
X1075700Y369062D02*
X1081031D01*
X1075700Y374394D01*
Y375727D01*
X1077032Y377059D01*
X1079698D01*
X1081031Y375727D01*
X1167668Y342664D02*
X1169001Y343997D01*
X1171667D01*
X1173000Y342664D01*
Y337333D01*
X1171667Y336000D01*
X1169001D01*
X1167668Y337333D01*
X1161004Y336000D02*
Y343997D01*
X1165003Y339999D01*
X1159671D01*
X1153006Y336000D02*
Y343997D01*
X1157005Y339999D01*
X1151674D01*
X1167668Y314664D02*
X1169001Y315997D01*
X1171667D01*
X1173000Y314664D01*
Y309333D01*
X1171667Y308000D01*
X1169001D01*
X1167668Y309333D01*
X1161004Y308000D02*
Y315997D01*
X1165003Y311999D01*
X1159671D01*
X1151674Y315997D02*
X1157005D01*
Y311999D01*
X1154339Y313332D01*
X1153006D01*
X1151674Y311999D01*
Y309333D01*
X1153006Y308000D01*
X1155672D01*
X1157005Y309333D01*
X379423Y477993D02*
Y469995D01*
Y472661D01*
X374092Y477993D01*
X378091Y473994D01*
X374092Y469995D01*
X367427D02*
Y477993D01*
X371426Y473994D01*
X366095D01*
X221000Y263000D02*
X228997D01*
Y266999D01*
X227665Y268332D01*
X224999D01*
X223666Y266999D01*
Y263000D01*
Y265666D02*
X221000Y268332D01*
X228997Y276329D02*
Y270997D01*
X224999D01*
X226332Y273663D01*
Y274996D01*
X224999Y276329D01*
X222333D01*
X221000Y274996D01*
Y272330D01*
X222333Y270997D01*
X95000Y373000D02*
X102997D01*
Y376999D01*
X101664Y378332D01*
X98999D01*
X97666Y376999D01*
Y373000D01*
Y375666D02*
X95000Y378332D01*
X102997Y386329D02*
X101664Y383663D01*
X98999Y380997D01*
X96333D01*
X95000Y382330D01*
Y384996D01*
X96333Y386329D01*
X97666D01*
X98999Y384996D01*
Y380997D01*
X1153000Y433000D02*
X1145003D01*
Y429001D01*
X1146336Y427668D01*
X1149001D01*
X1150334Y429001D01*
Y433000D01*
Y430334D02*
X1153000Y427668D01*
Y425003D02*
Y422337D01*
Y423670D01*
X1145003D01*
X1146336Y425003D01*
Y418338D02*
X1145003Y417005D01*
Y414339D01*
X1146336Y413006D01*
X1151667D01*
X1153000Y414339D01*
Y417005D01*
X1151667Y418338D01*
X1146336D01*
X1173000Y350000D02*
Y357997D01*
X1169001D01*
X1167668Y356665D01*
Y353999D01*
X1169001Y352666D01*
X1173000D01*
X1170334D02*
X1167668Y350000D01*
X1165003D02*
X1162337D01*
X1163670D01*
Y357997D01*
X1165003Y356665D01*
X1153006Y350000D02*
X1158338D01*
X1153006Y355332D01*
Y356665D01*
X1154339Y357997D01*
X1157005D01*
X1158338Y356665D01*
X1173000Y322000D02*
Y329997D01*
X1169001D01*
X1167668Y328665D01*
Y325999D01*
X1169001Y324666D01*
X1173000D01*
X1170334D02*
X1167668Y322000D01*
X1165003D02*
X1162337D01*
X1163670D01*
Y329997D01*
X1165003Y328665D01*
X1158338D02*
X1157005Y329997D01*
X1154339D01*
X1153006Y328665D01*
Y327332D01*
X1154339Y325999D01*
X1155672D01*
X1154339D01*
X1153006Y324666D01*
Y323333D01*
X1154339Y322000D01*
X1157005D01*
X1158338Y323333D01*
X275590Y386457D02*
Y379793D01*
X274257Y378460D01*
X271591D01*
X270258Y379793D01*
Y386457D01*
X262261Y378460D02*
X267593D01*
X262261Y383792D01*
Y385125D01*
X263594Y386457D01*
X266260D01*
X267593Y385125D01*
X149000Y271997D02*
Y265333D01*
X147667Y264000D01*
X145001D01*
X143668Y265333D01*
Y271997D01*
X141003Y270665D02*
X139670Y271997D01*
X137004D01*
X135671Y270665D01*
Y269332D01*
X137004Y267999D01*
X138337D01*
X137004D01*
X135671Y266666D01*
Y265333D01*
X137004Y264000D01*
X139670D01*
X141003Y265333D01*
X275590Y276475D02*
Y269811D01*
X274257Y268478D01*
X271591D01*
X270258Y269811D01*
Y276475D01*
X263594Y268478D02*
Y276475D01*
X267593Y272477D01*
X262261D01*
X135250Y381247D02*
Y374583D01*
X133917Y373250D01*
X131251D01*
X129918Y374583D01*
Y381247D01*
X121921D02*
X127253D01*
Y377249D01*
X124587Y378582D01*
X123254D01*
X121921Y377249D01*
Y374583D01*
X123254Y373250D01*
X125920D01*
X127253Y374583D01*
X103000Y12000D02*
Y19997D01*
X99001D01*
X97668Y18664D01*
Y15999D01*
X99001Y14666D01*
X103000D01*
X100334D02*
X97668Y12000D01*
X95003D02*
X92337D01*
X93670D01*
Y19997D01*
X95003Y18664D01*
X84339Y12000D02*
Y19997D01*
X88338Y15999D01*
X83006D01*
X107000Y77000D02*
Y84997D01*
X103001D01*
X101668Y83665D01*
Y80999D01*
X103001Y79666D01*
X107000D01*
X104334D02*
X101668Y77000D01*
X99003D02*
X96337D01*
X97670D01*
Y84997D01*
X99003Y83665D01*
X87006Y84997D02*
X92338D01*
Y80999D01*
X89672Y82332D01*
X88339D01*
X87006Y80999D01*
Y78333D01*
X88339Y77000D01*
X91005D01*
X92338Y78333D01*
X985012Y29972D02*
Y37969D01*
X981013D01*
X979680Y36637D01*
Y33971D01*
X981013Y32638D01*
X985012D01*
X982346D02*
X979680Y29972D01*
X977015D02*
X974349D01*
X975682D01*
Y37969D01*
X977015Y36637D01*
X965018Y37969D02*
X967684Y36637D01*
X970350Y33971D01*
Y31305D01*
X969017Y29972D01*
X966351D01*
X965018Y31305D01*
Y32638D01*
X966351Y33971D01*
X970350D01*
X987044Y90932D02*
Y98929D01*
X983045D01*
X981712Y97597D01*
Y94931D01*
X983045Y93598D01*
X987044D01*
X984378D02*
X981712Y90932D01*
X979047D02*
X976381D01*
X977714D01*
Y98929D01*
X979047Y97597D01*
X972382Y98929D02*
X967050D01*
Y97597D01*
X972382Y92265D01*
Y90932D01*
X929642Y190814D02*
X930975Y192147D01*
X933641D01*
X934974Y190814D01*
Y185483D01*
X933641Y184150D01*
X930975D01*
X929642Y185483D01*
X922978Y184150D02*
Y192147D01*
X926977Y188149D01*
X921645D01*
X913648Y192147D02*
X916313Y190814D01*
X918979Y188149D01*
Y185483D01*
X917646Y184150D01*
X914980D01*
X913648Y185483D01*
Y186816D01*
X914980Y188149D01*
X918979D01*
X929642Y342706D02*
X930975Y344039D01*
X933641D01*
X934974Y342706D01*
Y337375D01*
X933641Y336042D01*
X930975D01*
X929642Y337375D01*
X922978Y336042D02*
Y344039D01*
X926977Y340041D01*
X921645D01*
X918979Y344039D02*
X913648D01*
Y342706D01*
X918979Y337375D01*
Y336042D01*
X959614Y342706D02*
X960947Y344039D01*
X963613D01*
X964946Y342706D01*
Y337375D01*
X963613Y336042D01*
X960947D01*
X959614Y337375D01*
X952950Y336042D02*
Y344039D01*
X956949Y340041D01*
X951617D01*
X948951Y342706D02*
X947618Y344039D01*
X944952D01*
X943620Y342706D01*
Y341374D01*
X944952Y340041D01*
X943620Y338708D01*
Y337375D01*
X944952Y336042D01*
X947618D01*
X948951Y337375D01*
Y338708D01*
X947618Y340041D01*
X948951Y341374D01*
Y342706D01*
X947618Y340041D02*
X944952D01*
X1059690Y304606D02*
X1061023Y305939D01*
X1063689D01*
X1065022Y304606D01*
Y299275D01*
X1063689Y297942D01*
X1061023D01*
X1059690Y299275D01*
X1053026Y297942D02*
Y305939D01*
X1057025Y301941D01*
X1051693D01*
X1049027Y299275D02*
X1047694Y297942D01*
X1045028D01*
X1043696Y299275D01*
Y304606D01*
X1045028Y305939D01*
X1047694D01*
X1049027Y304606D01*
Y303274D01*
X1047694Y301941D01*
X1043696D01*
X1089662Y304606D02*
X1090995Y305939D01*
X1093661D01*
X1094994Y304606D01*
Y299275D01*
X1093661Y297942D01*
X1090995D01*
X1089662Y299275D01*
X1081665Y305939D02*
X1086997D01*
Y301941D01*
X1084331Y303274D01*
X1082998D01*
X1081665Y301941D01*
Y299275D01*
X1082998Y297942D01*
X1085664D01*
X1086997Y299275D01*
X1078999Y304606D02*
X1077666Y305939D01*
X1075000D01*
X1073668Y304606D01*
Y299275D01*
X1075000Y297942D01*
X1077666D01*
X1078999Y299275D01*
Y304606D01*
X1079165Y264332D02*
X1080497Y262999D01*
Y260333D01*
X1079165Y259000D01*
X1073833D01*
X1072500Y260333D01*
Y262999D01*
X1073833Y264332D01*
X1080497Y272329D02*
Y266997D01*
X1076499D01*
X1077832Y269663D01*
Y270996D01*
X1076499Y272329D01*
X1073833D01*
X1072500Y270996D01*
Y268330D01*
X1073833Y266997D01*
X1072500Y274995D02*
Y277661D01*
Y276328D01*
X1080497D01*
X1079165Y274995D01*
X1109165Y264332D02*
X1110497Y262999D01*
Y260333D01*
X1109165Y259000D01*
X1103833D01*
X1102500Y260333D01*
Y262999D01*
X1103833Y264332D01*
X1110497Y272329D02*
Y266997D01*
X1106499D01*
X1107832Y269663D01*
Y270996D01*
X1106499Y272329D01*
X1103833D01*
X1102500Y270996D01*
Y268330D01*
X1103833Y266997D01*
X1102500Y280326D02*
Y274995D01*
X1107832Y280326D01*
X1109165D01*
X1110497Y278993D01*
Y276328D01*
X1109165Y274995D01*
X1001016Y204785D02*
X1002349Y206117D01*
X1005015D01*
X1006348Y204785D01*
Y199453D01*
X1005015Y198120D01*
X1002349D01*
X1001016Y199453D01*
X993019Y206117D02*
X998351D01*
Y202119D01*
X995685Y203452D01*
X994352D01*
X993019Y202119D01*
Y199453D01*
X994352Y198120D01*
X997018D01*
X998351Y199453D01*
X990353Y204785D02*
X989020Y206117D01*
X986354D01*
X985022Y204785D01*
Y203452D01*
X986354Y202119D01*
X987687D01*
X986354D01*
X985022Y200786D01*
Y199453D01*
X986354Y198120D01*
X989020D01*
X990353Y199453D01*
X958598Y192339D02*
X959931Y193671D01*
X962597D01*
X963930Y192339D01*
Y187007D01*
X962597Y185674D01*
X959931D01*
X958598Y187007D01*
X950601Y193671D02*
X955933D01*
Y189673D01*
X953267Y191006D01*
X951934D01*
X950601Y189673D01*
Y187007D01*
X951934Y185674D01*
X954600D01*
X955933Y187007D01*
X943936Y185674D02*
Y193671D01*
X947935Y189673D01*
X942604D01*
X936246Y226882D02*
X937579Y228215D01*
X940245D01*
X941578Y226882D01*
Y221551D01*
X940245Y220218D01*
X937579D01*
X936246Y221551D01*
X928249Y228215D02*
X933581D01*
Y224217D01*
X930915Y225550D01*
X929582D01*
X928249Y224217D01*
Y221551D01*
X929582Y220218D01*
X932248D01*
X933581Y221551D01*
X920252Y228215D02*
X925583D01*
Y224217D01*
X922917Y225550D01*
X921584D01*
X920252Y224217D01*
Y221551D01*
X921584Y220218D01*
X924250D01*
X925583Y221551D01*
X1231646Y398649D02*
Y390652D01*
Y393318D01*
X1226314Y398649D01*
X1230313Y394651D01*
X1226314Y390652D01*
X1218317Y398649D02*
X1223649D01*
Y394651D01*
X1220983Y395984D01*
X1219650D01*
X1218317Y394651D01*
Y391985D01*
X1219650Y390652D01*
X1222316D01*
X1223649Y391985D01*
X762000Y164084D02*
Y172081D01*
X758001D01*
X756668Y170749D01*
Y168083D01*
X758001Y166750D01*
X762000D01*
X759334D02*
X756668Y164084D01*
X754003D02*
X751337D01*
X752670D01*
Y172081D01*
X754003Y170749D01*
X747338Y165417D02*
X746005Y164084D01*
X743339D01*
X742006Y165417D01*
Y170749D01*
X743339Y172081D01*
X746005D01*
X747338Y170749D01*
Y169416D01*
X746005Y168083D01*
X742006D01*
X861822Y204978D02*
Y212975D01*
X857823D01*
X856490Y211642D01*
Y208977D01*
X857823Y207644D01*
X861822D01*
X859156D02*
X856490Y204978D01*
X848493D02*
X853825D01*
X848493Y210310D01*
Y211642D01*
X849826Y212975D01*
X852492D01*
X853825Y211642D01*
X845827D02*
X844494Y212975D01*
X841828D01*
X840496Y211642D01*
Y206311D01*
X841828Y204978D01*
X844494D01*
X845827Y206311D01*
Y211642D01*
X734060Y164084D02*
Y172081D01*
X730061D01*
X728728Y170749D01*
Y168083D01*
X730061Y166750D01*
X734060D01*
X731394D02*
X728728Y164084D01*
X720731D02*
X726063D01*
X720731Y169416D01*
Y170749D01*
X722064Y172081D01*
X724730D01*
X726063Y170749D01*
X718065Y164084D02*
X715399D01*
X716732D01*
Y172081D01*
X718065Y170749D01*
D84*
X232822Y284172D02*
X234600D01*
X232822D02*
Y325828D01*
X233584Y326590D01*
X286416D01*
X286670Y326336D01*
Y284680D02*
Y326336D01*
X286162Y284172D02*
X286670Y284680D01*
X234600Y284172D02*
X286162Y284172D01*
X232822Y174172D02*
X234600D01*
X232822D02*
Y215828D01*
X233584Y216590D01*
X286416D01*
X286670Y216336D01*
Y174680D02*
Y216336D01*
X286162Y174172D02*
X286670Y174680D01*
X234600Y174172D02*
X286162Y174172D01*
X107822Y174172D02*
X109600D01*
X107822D02*
Y215828D01*
X108584Y216590D01*
X161416D01*
X161670Y216336D01*
Y174680D02*
Y216336D01*
X161162Y174172D02*
X161670Y174680D01*
X109600Y174172D02*
X161162Y174172D01*
X107822Y284172D02*
X109600D01*
X107822D02*
Y325828D01*
X108584Y326590D01*
X161416D01*
X161670Y326336D01*
Y284680D02*
Y326336D01*
X161162Y284172D02*
X161670Y284680D01*
X109600Y284172D02*
X161162Y284172D01*
D85*
X1007700Y462300D02*
Y487700D01*
X1033100Y462300D02*
Y487700D01*
X1134700Y487700D02*
X1134700Y462300D01*
Y462300D02*
Y487700D01*
X1109300Y487700D02*
X1109300Y462300D01*
Y462300D02*
Y487700D01*
X1083900Y462300D02*
Y487700D01*
Y462300D02*
Y487700D01*
X982300Y487700D02*
X1134700Y487700D01*
X1058500Y462300D02*
X1058500Y487700D01*
X982300Y462300D02*
X1134700Y462300D01*
X982300Y462300D02*
X982300Y487700D01*
X1134700Y462300D02*
Y487700D01*
D86*
X1207300Y307300D02*
X1213650D01*
X1207300D02*
Y313650D01*
Y383500D01*
Y313650D02*
X1213650Y307300D01*
X1232700D01*
Y383500D01*
X1207300D02*
X1232700D01*
X248423Y501745D02*
X248424Y495395D01*
X223023D02*
X223023Y501745D01*
X159523Y495395D02*
X400824Y495395D01*
X400824Y419195D02*
Y495395D01*
X70623Y419195D02*
X400824D01*
X70623Y419195D02*
Y495395D01*
X184923D01*
X64273Y412845D02*
X64273Y501745D01*
X407174Y501745D01*
X407174Y412845D02*
X407174Y501745D01*
X64273Y412845D02*
X407174Y412845D01*
D87*
X994951Y475000D02*
D03*
M02*
