%FSLAX44Y44*%
%MOMM*%
G71*
G01*
G75*
G04 Layer_Physical_Order=4*
G04 Layer_Color=16711680*
%ADD10O,1.7000X0.3500*%
%ADD11R,0.7620X0.7620*%
%ADD12O,1.0000X0.3000*%
%ADD13P,1.0776X4X180.0*%
G04:AMPARAMS|DCode=14|XSize=0.35mm|YSize=1.8mm|CornerRadius=0mm|HoleSize=0mm|Usage=FLASHONLY|Rotation=225.000|XOffset=0mm|YOffset=0mm|HoleType=Round|Shape=Round|*
%AMOVALD14*
21,1,1.4500,0.3500,0.0000,0.0000,315.0*
1,1,0.3500,-0.5127,0.5127*
1,1,0.3500,0.5127,-0.5127*
%
%ADD14OVALD14*%

G04:AMPARAMS|DCode=15|XSize=0.3mm|YSize=1.8mm|CornerRadius=0mm|HoleSize=0mm|Usage=FLASHONLY|Rotation=135.000|XOffset=0mm|YOffset=0mm|HoleType=Round|Shape=Round|*
%AMOVALD15*
21,1,1.5000,0.3000,0.0000,0.0000,225.0*
1,1,0.3000,0.5303,0.5303*
1,1,0.3000,-0.5303,-0.5303*
%
%ADD15OVALD15*%

G04:AMPARAMS|DCode=16|XSize=0.3mm|YSize=1.8mm|CornerRadius=0mm|HoleSize=0mm|Usage=FLASHONLY|Rotation=45.000|XOffset=0mm|YOffset=0mm|HoleType=Round|Shape=Round|*
%AMOVALD16*
21,1,1.5000,0.3000,0.0000,0.0000,135.0*
1,1,0.3000,0.5303,-0.5303*
1,1,0.3000,-0.5303,0.5303*
%
%ADD16OVALD16*%

%ADD17P,1.0776X4X90.0*%
%ADD18O,0.3000X1.9000*%
%ADD19C,0.2000*%
%ADD20C,0.3000*%
%ADD21R,2.1650X2.4540*%
%ADD22R,2.4665X2.5737*%
%ADD23R,2.1110X2.7620*%
%ADD24R,2.0555X2.7112*%
%ADD25C,1.5240*%
%ADD26C,6.3500*%
%ADD27C,1.7780*%
%ADD28R,1.7780X1.7780*%
%ADD29R,1.5240X1.5240*%
%ADD30R,1.7780X1.7780*%
%ADD31C,0.5000*%
%ADD32C,0.6600*%
%ADD33R,1.5000X1.3000*%
G04:AMPARAMS|DCode=34|XSize=0.7mm|YSize=2.1mm|CornerRadius=0mm|HoleSize=0mm|Usage=FLASHONLY|Rotation=135.000|XOffset=0mm|YOffset=0mm|HoleType=Round|Shape=Round|*
%AMOVALD34*
21,1,1.4000,0.7000,0.0000,0.0000,225.0*
1,1,0.7000,0.4950,0.4950*
1,1,0.7000,-0.4950,-0.4950*
%
%ADD34OVALD34*%

%ADD35R,0.7620X0.7620*%
G04:AMPARAMS|DCode=36|XSize=1.016mm|YSize=1.27mm|CornerRadius=0mm|HoleSize=0mm|Usage=FLASHONLY|Rotation=225.000|XOffset=0mm|YOffset=0mm|HoleType=Round|Shape=Rectangle|*
%AMROTATEDRECTD36*
4,1,4,-0.0898,0.8082,0.8082,-0.0898,0.0898,-0.8082,-0.8082,0.0898,-0.0898,0.8082,0.0*
%
%ADD36ROTATEDRECTD36*%

G04:AMPARAMS|DCode=37|XSize=1.3mm|YSize=2mm|CornerRadius=0mm|HoleSize=0mm|Usage=FLASHONLY|Rotation=315.000|XOffset=0mm|YOffset=0mm|HoleType=Round|Shape=Rectangle|*
%AMROTATEDRECTD37*
4,1,4,-1.1667,-0.2475,0.2475,1.1667,1.1667,0.2475,-0.2475,-1.1667,-1.1667,-0.2475,0.0*
%
%ADD37ROTATEDRECTD37*%

G04:AMPARAMS|DCode=38|XSize=1.3mm|YSize=2mm|CornerRadius=0mm|HoleSize=0mm|Usage=FLASHONLY|Rotation=315.000|XOffset=0mm|YOffset=0mm|HoleType=Round|Shape=Round|*
%AMOVALD38*
21,1,0.7000,1.3000,0.0000,0.0000,45.0*
1,1,1.3000,-0.2475,-0.2475*
1,1,1.3000,0.2475,0.2475*
%
%ADD38OVALD38*%

%ADD39R,1.6500X2.3000*%
%ADD40O,0.8000X0.3000*%
%ADD41O,0.3000X0.8000*%
%ADD42R,1.6000X1.6000*%
%ADD43R,1.2700X1.0160*%
G04:AMPARAMS|DCode=44|XSize=1.016mm|YSize=1.27mm|CornerRadius=0mm|HoleSize=0mm|Usage=FLASHONLY|Rotation=135.000|XOffset=0mm|YOffset=0mm|HoleType=Round|Shape=Rectangle|*
%AMROTATEDRECTD44*
4,1,4,0.8082,0.0898,-0.0898,-0.8082,-0.8082,-0.0898,0.0898,0.8082,0.8082,0.0898,0.0*
%
%ADD44ROTATEDRECTD44*%

%ADD45R,1.0160X1.2700*%
%ADD46R,1.3000X1.5000*%
%ADD47C,0.4000*%
%ADD48C,2.0000*%
G36*
X86650Y319102D02*
Y313490D01*
X95002D01*
Y312223D01*
X96270D01*
Y305140D01*
X103063D01*
X103961Y304242D01*
Y290000D01*
X70000D01*
Y320000D01*
X85752D01*
X86650Y319102D01*
D02*
G37*
G36*
X109977Y339977D02*
X111134Y339203D01*
X112500Y338932D01*
X117500D01*
X118166Y339064D01*
X119064Y338166D01*
X118931Y337500D01*
Y336270D01*
X122502D01*
Y335003D01*
X123770D01*
Y329184D01*
X123866Y329203D01*
X125000Y329961D01*
X126134Y329203D01*
X126230Y329184D01*
Y335003D01*
X128770D01*
Y329184D01*
X128866Y329203D01*
X130000Y329961D01*
X131134Y329203D01*
X131230Y329184D01*
Y335003D01*
X133770D01*
Y329184D01*
X133866Y329203D01*
X133880Y329213D01*
X135000Y328614D01*
Y290000D01*
X106000D01*
Y340000D01*
X109961D01*
X109977Y339977D01*
D02*
G37*
G36*
X71650Y255460D02*
X83214D01*
X86867Y251807D01*
D01*
X86867D01*
X86867Y251807D01*
X86867Y251807D01*
X86867D01*
D01*
X86867D01*
X86867Y251807D01*
Y251807D01*
X86867Y251807D01*
Y251807D01*
X87459Y251412D01*
X87459Y251412D01*
X87345Y251133D01*
X87345Y251133D01*
X87345D01*
X87345Y251133D01*
X87345Y251133D01*
D01*
X87268Y250947D01*
X87156Y250781D01*
D01*
X87156Y250780D01*
X87156Y250780D01*
X87117Y250583D01*
X87040Y250398D01*
X87000Y250197D01*
Y249996D01*
X86961Y249799D01*
Y249300D01*
X81270D01*
Y242218D01*
X80003D01*
Y240950D01*
X71650D01*
Y237123D01*
X71649Y237122D01*
X71590Y237098D01*
X71364Y237078D01*
X71269Y237028D01*
X71164Y237008D01*
X70972Y236880D01*
X70912Y236862D01*
X70832Y236820D01*
X70757Y236760D01*
X70659Y236709D01*
X70578Y236643D01*
X70578Y236643D01*
X70497Y236601D01*
X70088Y236270D01*
X55000D01*
Y256270D01*
X71650D01*
Y255460D01*
D02*
G37*
G36*
X234213Y248880D02*
X234203Y248866D01*
X233931Y247500D01*
X234203Y246134D01*
X234961Y245000D01*
X234203Y243866D01*
X233931Y242500D01*
X234203Y241134D01*
X234961Y240000D01*
X234203Y238866D01*
X234184Y238770D01*
X240002D01*
Y236230D01*
X234184D01*
X234203Y236134D01*
X234961Y235000D01*
X234203Y233866D01*
X234184Y233770D01*
X240002D01*
Y231230D01*
X236772D01*
X236133Y231657D01*
X236094Y231696D01*
X235909Y231773D01*
X235742Y231884D01*
X235545Y231924D01*
X235359Y232001D01*
X235158D01*
X234961Y232040D01*
X234023D01*
X233931Y232500D01*
X233553Y232039D01*
X231201D01*
X231004Y232000D01*
X230803D01*
X230635Y231967D01*
X230635D01*
X230450Y231890D01*
X230420Y231884D01*
X230396Y231867D01*
X230257Y231810D01*
X229900Y231662D01*
X229900Y231662D01*
D01*
X229338Y231099D01*
X229190Y230743D01*
X229133Y230605D01*
X229116Y230580D01*
X229110Y230550D01*
X229033Y230364D01*
Y230364D01*
D01*
X229000Y230197D01*
Y229996D01*
X228961Y229799D01*
Y229620D01*
X228961D01*
X228350D01*
X228063Y229620D01*
X228063Y229620D01*
Y229620D01*
X221270D01*
Y222537D01*
Y215460D01*
X228063D01*
X228349Y215173D01*
X227863Y214000D01*
X195000D01*
Y233579D01*
X196602Y234872D01*
X196778Y235014D01*
X196858Y235056D01*
X196943Y235124D01*
X196945Y235125D01*
X197063Y235126D01*
X197064Y235126D01*
X197097Y235140D01*
X213350D01*
Y236000D01*
X214000D01*
Y249799D01*
X214040Y250000D01*
X219190D01*
Y248160D01*
X230810D01*
Y250000D01*
X233614D01*
X234213Y248880D01*
D02*
G37*
G36*
X109213Y248880D02*
X109203Y248866D01*
X108932Y247500D01*
X109203Y246134D01*
X109961Y245000D01*
X109203Y243866D01*
X108932Y242500D01*
X109203Y241134D01*
X109961Y240000D01*
X109203Y238866D01*
X109184Y238770D01*
X115003D01*
Y236230D01*
X109184D01*
X109203Y236134D01*
X109961Y235000D01*
X109203Y233866D01*
X109184Y233770D01*
X115003D01*
Y231230D01*
X111772D01*
X111133Y231657D01*
X111094Y231696D01*
X110909Y231773D01*
X110742Y231884D01*
X110545Y231924D01*
X110359Y232001D01*
X110158D01*
X109961Y232040D01*
X109023D01*
X108931Y232500D01*
X108553Y232039D01*
X106201D01*
X106004Y232000D01*
X105803D01*
X105635Y231967D01*
X105635D01*
X105450Y231890D01*
X105421Y231884D01*
X105395Y231867D01*
X105257Y231810D01*
X104900Y231662D01*
X104900Y231662D01*
D01*
X104338Y231100D01*
X104190Y230743D01*
X104133Y230605D01*
X104116Y230580D01*
X104110Y230550D01*
X104033Y230364D01*
Y230364D01*
D01*
X104000Y230197D01*
Y229996D01*
X103961Y229799D01*
Y229620D01*
X103961D01*
X103350D01*
X103063Y229620D01*
X103063Y229620D01*
Y229620D01*
X96270D01*
Y222538D01*
Y215460D01*
X103063D01*
X103350Y215173D01*
X102864Y214000D01*
X70000D01*
Y233579D01*
X71778Y235014D01*
X71858Y235056D01*
X71940Y235122D01*
X72041Y235121D01*
X72042Y235122D01*
X72087Y235140D01*
X88350D01*
Y236000D01*
X89000D01*
Y249799D01*
X89040Y250000D01*
X94190D01*
Y248160D01*
X105810D01*
Y250000D01*
X108614D01*
X109213Y248880D01*
D02*
G37*
G36*
X71650Y365460D02*
X83214D01*
X86728Y361947D01*
Y359300D01*
X81270D01*
Y352217D01*
X80002D01*
Y350950D01*
X71650D01*
Y347123D01*
X71649Y347122D01*
X71358Y347096D01*
X71261Y347045D01*
X71154Y347024D01*
X70912Y346862D01*
X70654Y346727D01*
X70088Y346270D01*
X53727D01*
Y366270D01*
X71650D01*
Y365460D01*
D02*
G37*
G36*
X320000Y290000D02*
X262039D01*
Y328039D01*
X263039Y329039D01*
X263866Y329203D01*
X265023Y329977D01*
X265797Y331134D01*
X266069Y332500D01*
Y337500D01*
X265936Y338166D01*
X266834Y339064D01*
X267500Y338932D01*
X272500D01*
X273866Y339203D01*
X275023Y339977D01*
X275797Y341134D01*
X276068Y342500D01*
X275797Y343866D01*
X275039Y345000D01*
X275797Y346134D01*
X276068Y347500D01*
X275797Y348866D01*
X275039Y350000D01*
X275797Y351134D01*
X275816Y351230D01*
X269997D01*
Y353770D01*
X275816D01*
X275797Y353866D01*
X275787Y353880D01*
X276386Y355000D01*
X281452D01*
X281635Y354964D01*
X281650Y354953D01*
Y350700D01*
X298350D01*
Y353917D01*
X299388Y354648D01*
X299665Y354549D01*
X299913Y354513D01*
X300152Y354440D01*
X300303Y354455D01*
X300452Y354433D01*
X300695Y354493D01*
X300944Y354518D01*
X301077Y354589D01*
X301224Y354626D01*
X301425Y354775D01*
X301646Y354893D01*
X301776Y355000D01*
X320000D01*
Y290000D01*
D02*
G37*
G36*
X156650Y350700D02*
X173350D01*
Y353881D01*
X174523Y354367D01*
X176650Y352240D01*
Y345140D01*
X177000D01*
Y342000D01*
Y325000D01*
X166000Y314000D01*
Y290000D01*
X137039D01*
Y328039D01*
X138039Y329039D01*
X138866Y329203D01*
X140023Y329977D01*
X140797Y331134D01*
X141069Y332500D01*
Y337500D01*
X140936Y338166D01*
X141834Y339064D01*
X142500Y338932D01*
X147500D01*
X148866Y339203D01*
X150023Y339977D01*
X150797Y341134D01*
X151069Y342500D01*
X150797Y343866D01*
X150039Y345000D01*
X150797Y346134D01*
X151069Y347500D01*
X150797Y348866D01*
X150039Y350000D01*
X150797Y351134D01*
X150816Y351230D01*
X144997D01*
Y353770D01*
X150816D01*
X150797Y353866D01*
X150787Y353880D01*
X151386Y355000D01*
X156650D01*
Y350700D01*
D02*
G37*
G36*
X211650Y319102D02*
Y313490D01*
X220002D01*
Y312222D01*
X221270D01*
Y305140D01*
X228063D01*
X228961Y304242D01*
Y290000D01*
X195000D01*
Y320000D01*
X210752D01*
X211650Y319102D01*
D02*
G37*
G36*
X234977Y339977D02*
X236134Y339203D01*
X237500Y338932D01*
X242500D01*
X243166Y339064D01*
X244064Y338166D01*
X243931Y337500D01*
Y336270D01*
X247502D01*
Y335003D01*
X248770D01*
Y329184D01*
X248866Y329203D01*
X250000Y329961D01*
X251134Y329203D01*
X251230Y329184D01*
Y335003D01*
X253770D01*
Y329184D01*
X253866Y329203D01*
X255000Y329961D01*
X256134Y329203D01*
X256230Y329184D01*
Y335003D01*
X258770D01*
Y329184D01*
X258866Y329203D01*
X258880Y329213D01*
X260000Y328614D01*
Y328039D01*
Y290000D01*
X231000D01*
Y304242D01*
X231000Y304242D01*
X231000Y304242D01*
Y339799D01*
X231033Y339967D01*
X231201Y340000D01*
X234961D01*
X234977Y339977D01*
D02*
G37*
G36*
X109977Y229977D02*
X111134Y229203D01*
X112500Y228932D01*
X117500D01*
X118166Y229064D01*
X119064Y228166D01*
X118932Y227500D01*
Y226270D01*
X122503D01*
Y225003D01*
X123770D01*
Y219184D01*
X123866Y219203D01*
X125000Y219961D01*
X126134Y219203D01*
X126230Y219184D01*
Y225003D01*
X128770D01*
Y219184D01*
X128866Y219203D01*
X130000Y219961D01*
X131134Y219203D01*
X131230Y219184D01*
Y225003D01*
X133770D01*
Y219184D01*
X133866Y219203D01*
X133880Y219213D01*
X135000Y218614D01*
Y218039D01*
Y180000D01*
X106000D01*
Y194242D01*
X106000Y194242D01*
X106000Y194242D01*
Y229799D01*
X106033Y229967D01*
X106201Y230000D01*
X109961D01*
X109977Y229977D01*
D02*
G37*
G36*
X631064Y416926D02*
X627613Y413474D01*
X626429Y413239D01*
X624941Y412244D01*
X623946Y410756D01*
X623597Y409000D01*
X623641Y408781D01*
X621538Y406679D01*
X620000Y408217D01*
X611783Y400000D01*
X620000Y391783D01*
X628217Y400000D01*
X625864Y402353D01*
X627966Y404455D01*
X628185Y404412D01*
X629941Y404761D01*
X631429Y405756D01*
X632424Y407244D01*
X632659Y408428D01*
X636111Y411879D01*
X797990Y250000D01*
X752049Y204059D01*
X752000D01*
X750829Y203826D01*
X749837Y203163D01*
X749837Y203163D01*
X735369Y188694D01*
X734249Y189293D01*
X734588Y191000D01*
X734239Y192756D01*
X733244Y194244D01*
X731756Y195239D01*
X730000Y195588D01*
X729781Y195545D01*
X726771Y198555D01*
X728217Y200000D01*
X720000Y208217D01*
X711783Y200000D01*
X720000Y191783D01*
X722445Y194229D01*
X725455Y191219D01*
X725412Y191000D01*
X725761Y189244D01*
X726756Y187756D01*
X728244Y186761D01*
X730000Y186412D01*
X731707Y186751D01*
X732306Y185631D01*
X659837Y113163D01*
X659174Y112170D01*
X658941Y111000D01*
X658941Y111000D01*
Y110951D01*
X600000Y52010D01*
X529564Y122447D01*
X548559Y141441D01*
X548559Y141441D01*
X548559Y141441D01*
X563559Y156441D01*
Y156441D01*
X563559D01*
X568559Y161441D01*
X578559Y171441D01*
X580482Y173948D01*
X581691Y176867D01*
X582104Y180000D01*
X581691Y183133D01*
X580482Y186052D01*
X578559Y188559D01*
X576052Y190482D01*
X573133Y191691D01*
X570000Y192104D01*
X566867Y191691D01*
X563948Y190482D01*
X561441Y188559D01*
X551441Y178559D01*
X546441Y173559D01*
Y173559D01*
X546441D01*
X531441Y158559D01*
X512447Y139564D01*
X402010Y250000D01*
X600000Y447990D01*
X631064Y416926D01*
D02*
G37*
G36*
X86650Y209102D02*
Y203490D01*
X95003D01*
Y202223D01*
X96270D01*
Y195140D01*
X99470D01*
X103961Y194242D01*
Y180000D01*
X70000D01*
Y210000D01*
X85752D01*
X86650Y209102D01*
D02*
G37*
G36*
X211650Y209102D02*
Y203490D01*
X220002D01*
Y202223D01*
X221270D01*
Y195140D01*
X224470D01*
X228961Y194242D01*
Y180000D01*
X195000D01*
Y210000D01*
X210752D01*
X211650Y209102D01*
D02*
G37*
G36*
X234977Y229977D02*
X236134Y229203D01*
X237500Y228931D01*
X242500D01*
X243166Y229064D01*
X244064Y228166D01*
X243931Y227500D01*
Y226270D01*
X247502D01*
Y225002D01*
X248770D01*
Y219184D01*
X248866Y219203D01*
X250000Y219961D01*
X251134Y219203D01*
X251230Y219184D01*
Y225002D01*
X253770D01*
Y219184D01*
X253866Y219203D01*
X255000Y219961D01*
X256134Y219203D01*
X256230Y219184D01*
Y225002D01*
X258770D01*
Y219184D01*
X258866Y219203D01*
X258880Y219213D01*
X260000Y218614D01*
Y218039D01*
Y180000D01*
X231000D01*
Y194242D01*
X231000Y194242D01*
X231000Y194242D01*
Y229799D01*
X231033Y229967D01*
X231201Y230000D01*
X234961D01*
X234977Y229977D01*
D02*
G37*
G36*
X301110Y277890D02*
Y247457D01*
X300568Y246647D01*
X300352Y246469D01*
X299156Y246897D01*
X298350Y250951D01*
Y254860D01*
X291270D01*
Y247778D01*
X290002D01*
Y246510D01*
X282991D01*
X282431Y246884D01*
X281650Y247040D01*
Y247039D01*
X278385D01*
X276068Y247500D01*
X275797Y248866D01*
X275023Y250023D01*
X273866Y250797D01*
X272500Y251069D01*
X267500D01*
X266834Y250936D01*
X265936Y251834D01*
X266069Y252500D01*
Y253730D01*
X262497D01*
Y254998D01*
X261230D01*
Y260816D01*
X261540Y260878D01*
X260559Y261683D01*
Y262132D01*
X260744Y262256D01*
X261739Y263744D01*
X262088Y265500D01*
X261739Y267256D01*
X260744Y268744D01*
X259256Y269739D01*
X257500Y270088D01*
X255744Y269739D01*
X254256Y268744D01*
X253261Y267256D01*
X252912Y265500D01*
X253261Y263744D01*
X254256Y262256D01*
X254256D01*
X254441Y261683D01*
X253460Y260878D01*
X253770Y260816D01*
Y254998D01*
X251230D01*
Y260816D01*
X251134Y260797D01*
X250000Y260039D01*
X248866Y260797D01*
X247500Y261069D01*
X246134Y260797D01*
X246014Y260716D01*
X244715Y260975D01*
X244582Y261030D01*
X244239Y262756D01*
X243244Y264244D01*
X241756Y265239D01*
X240000Y265588D01*
X238244Y265239D01*
X236756Y264244D01*
X235761Y262756D01*
X235412Y261000D01*
X235761Y259244D01*
X235971Y258930D01*
Y258688D01*
X234798Y258202D01*
X232000Y261000D01*
Y280000D01*
X299000D01*
X301110Y277890D01*
D02*
G37*
G36*
X176110Y277890D02*
Y247458D01*
X175568Y246647D01*
X175352Y246469D01*
X174156Y246897D01*
X173350Y250951D01*
Y254860D01*
X166270D01*
Y247778D01*
X165003D01*
Y246510D01*
X157991D01*
X157431Y246884D01*
X156650Y247040D01*
Y247039D01*
X153385D01*
X151069Y247500D01*
X150797Y248866D01*
X150023Y250023D01*
X148866Y250797D01*
X147500Y251069D01*
X142500D01*
X141834Y250936D01*
X140936Y251834D01*
X141069Y252500D01*
Y257500D01*
X140797Y258866D01*
X140559Y259222D01*
Y262132D01*
X140744Y262256D01*
X141739Y263744D01*
X142088Y265500D01*
X141739Y267256D01*
X140744Y268744D01*
X139256Y269739D01*
X137500Y270088D01*
X135744Y269739D01*
X134256Y268744D01*
X133261Y267256D01*
X133135Y266622D01*
X131865D01*
X131739Y267256D01*
X130744Y268744D01*
X129256Y269739D01*
X127500Y270088D01*
X125744Y269739D01*
X124256Y268744D01*
X123261Y267256D01*
X122912Y265500D01*
X123261Y263744D01*
X124256Y262256D01*
X124256D01*
X124441Y261684D01*
X123460Y260878D01*
X123770Y260816D01*
Y254998D01*
X121230D01*
Y260816D01*
X121134Y260797D01*
X121014Y260716D01*
X119715Y260975D01*
X119582Y261030D01*
X119239Y262756D01*
X118244Y264244D01*
X116756Y265239D01*
X115000Y265588D01*
X113244Y265239D01*
X111756Y264244D01*
X110761Y262756D01*
X110412Y261000D01*
X110761Y259244D01*
X110971Y258930D01*
Y258688D01*
X109798Y258202D01*
X107000Y261000D01*
Y280000D01*
X174000D01*
X176110Y277890D01*
D02*
G37*
G36*
X196650Y255460D02*
X208214D01*
X211727Y251947D01*
Y249300D01*
X206270D01*
Y242218D01*
X205002D01*
Y240950D01*
X196650D01*
Y237123D01*
X196649Y237122D01*
X196602Y237103D01*
X196379Y237084D01*
X196377Y237083D01*
X196372Y237081D01*
X196367Y237080D01*
X196263Y237026D01*
X196149Y237002D01*
X195967Y236878D01*
X195912Y236862D01*
X195832Y236820D01*
X195766Y236767D01*
X195670Y236717D01*
X195667Y236713D01*
X195662Y236711D01*
X195578Y236643D01*
X195497Y236601D01*
X195321Y236458D01*
X195321Y236458D01*
X195088Y236270D01*
X180000D01*
Y256270D01*
X196650D01*
Y255460D01*
D02*
G37*
G36*
X281635Y244964D02*
X281650Y244953D01*
Y240700D01*
X298350D01*
Y242467D01*
X298760Y243613D01*
X299999Y243891D01*
X302000Y241890D01*
X303000Y241000D01*
Y180000D01*
X262039D01*
Y218039D01*
X263039Y219039D01*
X263866Y219203D01*
X265023Y219977D01*
X265797Y221134D01*
X266069Y222500D01*
Y227500D01*
X265936Y228166D01*
X266834Y229064D01*
X267500Y228931D01*
X272500D01*
X273866Y229203D01*
X275023Y229977D01*
X275797Y231134D01*
X276068Y232500D01*
X275797Y233866D01*
X275039Y235000D01*
X275797Y236134D01*
X276068Y237500D01*
X275797Y238866D01*
X275039Y240000D01*
X275797Y241134D01*
X275816Y241230D01*
X269997D01*
Y243770D01*
X275816D01*
X275797Y243866D01*
X275787Y243880D01*
X276386Y245000D01*
X281452D01*
X281635Y244964D01*
D02*
G37*
G36*
X156635Y244964D02*
X156650Y244954D01*
Y240700D01*
X173350D01*
Y242467D01*
X173760Y243613D01*
X174999Y243891D01*
X177000Y241890D01*
Y215000D01*
X166000Y204000D01*
Y180000D01*
X137039D01*
Y218039D01*
X138039Y219039D01*
X138866Y219203D01*
X140023Y219977D01*
X140797Y221134D01*
X141069Y222500D01*
Y227500D01*
X140936Y228166D01*
X141834Y229064D01*
X142500Y228932D01*
X147500D01*
X148866Y229203D01*
X150023Y229977D01*
X150797Y231134D01*
X151069Y232500D01*
X150797Y233866D01*
X150039Y235000D01*
X150797Y236134D01*
X151069Y237500D01*
X150797Y238866D01*
X150039Y240000D01*
X150797Y241134D01*
X150816Y241230D01*
X144998D01*
Y243770D01*
X150816D01*
X150797Y243866D01*
X150787Y243880D01*
X151386Y245000D01*
X156452D01*
X156635Y244964D01*
D02*
G37*
G36*
X176110Y387890D02*
Y357457D01*
X175568Y356647D01*
X175352Y356469D01*
X174156Y356897D01*
X173350Y360951D01*
Y364860D01*
X166270D01*
Y357777D01*
X165002D01*
Y356510D01*
X157991D01*
X157431Y356884D01*
X156650Y357040D01*
Y357039D01*
X153385D01*
X151069Y357500D01*
X150797Y358866D01*
X150023Y360023D01*
X148866Y360797D01*
X147500Y361069D01*
X142500D01*
X141834Y360936D01*
X140936Y361834D01*
X141069Y362500D01*
Y367500D01*
X140797Y368866D01*
X140559Y369222D01*
Y372132D01*
X140744Y372256D01*
X141739Y373744D01*
X142088Y375500D01*
X141739Y377256D01*
X140744Y378744D01*
X139256Y379739D01*
X137500Y380088D01*
X135744Y379739D01*
X134256Y378744D01*
X133261Y377256D01*
X132912Y375500D01*
X133261Y373744D01*
X134256Y372256D01*
X134256D01*
X134441Y371683D01*
X134441D01*
X133460Y370878D01*
X133770Y370816D01*
Y364997D01*
X131230D01*
Y370816D01*
X131134Y370797D01*
X130000Y370039D01*
X128866Y370797D01*
X128770Y370816D01*
Y364997D01*
X126230D01*
Y370816D01*
X126134Y370797D01*
X125000Y370039D01*
X123866Y370797D01*
X122500Y371069D01*
X121134Y370797D01*
X121014Y370716D01*
X119715Y370975D01*
X119582Y371030D01*
X119239Y372756D01*
X118244Y374244D01*
X116756Y375239D01*
X115000Y375588D01*
X113244Y375239D01*
X111756Y374244D01*
X110761Y372756D01*
X110412Y371000D01*
X110761Y369244D01*
X110971Y368930D01*
Y368688D01*
X109798Y368202D01*
X107000Y371000D01*
Y390000D01*
X174000D01*
X176110Y387890D01*
D02*
G37*
G36*
X234213Y358880D02*
X234203Y358866D01*
X233931Y357500D01*
X234203Y356134D01*
X234961Y355000D01*
X234203Y353866D01*
X233931Y352500D01*
X234203Y351134D01*
X234961Y350000D01*
X234203Y348866D01*
X234184Y348770D01*
X240002D01*
Y346230D01*
X234184D01*
X234203Y346134D01*
X234961Y345000D01*
X234203Y343866D01*
X234184Y343770D01*
X240002D01*
Y341230D01*
X236772D01*
X236133Y341657D01*
X236094Y341696D01*
X235909Y341773D01*
X235742Y341884D01*
X235545Y341924D01*
X235359Y342001D01*
X235158D01*
X234961Y342040D01*
X234023D01*
X233931Y342500D01*
X233553Y342039D01*
X231000D01*
X230220Y341884D01*
X229558Y341442D01*
X229116Y340780D01*
X228961Y340000D01*
Y339620D01*
X228961D01*
X228350D01*
X228063Y339620D01*
X228063Y339620D01*
Y339620D01*
X221270D01*
Y332537D01*
Y325460D01*
X228063D01*
X228349Y325173D01*
X227863Y324000D01*
X195000D01*
Y343579D01*
X196778Y345014D01*
X196858Y345056D01*
X196940Y345122D01*
X197041Y345121D01*
X197042Y345121D01*
X197087Y345140D01*
X213350D01*
Y346000D01*
X214000D01*
Y359799D01*
X214040Y360000D01*
X219190D01*
Y358160D01*
X230810D01*
Y360000D01*
X233614D01*
X234213Y358880D01*
D02*
G37*
G36*
X196650Y365460D02*
X208214D01*
X211867Y361807D01*
X212459Y361412D01*
X212459Y361412D01*
X212344Y361133D01*
X212344Y361133D01*
X212344D01*
X212344Y361133D01*
X212344Y361133D01*
D01*
X212268Y360947D01*
X212156Y360780D01*
D01*
X212156Y360780D01*
X212156Y360780D01*
X212117Y360583D01*
X212040Y360398D01*
X212000Y360197D01*
Y359996D01*
X211961Y359799D01*
Y359300D01*
X206270D01*
Y352217D01*
X205002D01*
Y350950D01*
X196650D01*
Y347540D01*
X179997D01*
Y367540D01*
X196650D01*
Y365460D01*
D02*
G37*
G36*
X301110Y387890D02*
Y357457D01*
X300568Y356647D01*
X300352Y356469D01*
X299156Y356897D01*
X298350Y360951D01*
Y364860D01*
X291270D01*
Y357777D01*
X290002D01*
Y356510D01*
X282991D01*
X282431Y356884D01*
X281650Y357040D01*
Y357039D01*
X278385D01*
X276068Y357500D01*
X275797Y358866D01*
X275023Y360023D01*
X273866Y360797D01*
X272500Y361069D01*
X267500D01*
X266834Y360936D01*
X265936Y361834D01*
X266069Y362500D01*
Y367500D01*
X265797Y368866D01*
X265023Y370023D01*
X263866Y370797D01*
X262500Y371069D01*
X261134Y370797D01*
X260000Y370039D01*
X258866Y370797D01*
X257500Y371069D01*
X256134Y370797D01*
X255000Y370039D01*
X253866Y370797D01*
X252500Y371069D01*
X251134Y370797D01*
X250000Y370039D01*
X248866Y370797D01*
X247500Y371069D01*
X246134Y370797D01*
X244977Y370023D01*
X244203Y368866D01*
X244043Y368059D01*
X241000D01*
X241000Y368059D01*
X239829Y367826D01*
X238837Y367163D01*
X238837Y367163D01*
X238703Y367029D01*
X235971D01*
X232000Y371000D01*
Y390000D01*
X299000D01*
X301110Y387890D01*
D02*
G37*
G36*
X109213Y358880D02*
X109203Y358866D01*
X108931Y357500D01*
X109203Y356134D01*
X109961Y355000D01*
X109203Y353866D01*
X108931Y352500D01*
X109203Y351134D01*
X109961Y350000D01*
X109203Y348866D01*
X109184Y348770D01*
X115002D01*
Y346230D01*
X109184D01*
X109203Y346134D01*
X109961Y345000D01*
X109203Y343866D01*
X109184Y343770D01*
X115002D01*
Y341230D01*
X111772D01*
X111133Y341657D01*
X111094Y341696D01*
X110909Y341773D01*
X110742Y341884D01*
X110545Y341924D01*
X110359Y342001D01*
X110158D01*
X109961Y342040D01*
X109023D01*
X108931Y342500D01*
X108553Y342039D01*
X106000D01*
X105220Y341884D01*
X104558Y341442D01*
X104116Y340780D01*
X103961Y340000D01*
Y339620D01*
X103961D01*
X103350D01*
X103063Y339620D01*
X103063Y339620D01*
Y339620D01*
X96270D01*
Y332537D01*
Y325460D01*
X103063D01*
X103350Y325173D01*
X102863Y324000D01*
X70000D01*
Y343579D01*
X71934Y345140D01*
X88350D01*
Y346000D01*
X89000D01*
Y360000D01*
X94190D01*
Y358160D01*
X105810D01*
Y360000D01*
X108614D01*
X109213Y358880D01*
D02*
G37*
%LPC*%
G36*
X710122Y218095D02*
X704964Y212937D01*
X703418D01*
X703294Y213123D01*
X701806Y214117D01*
X700050Y214466D01*
X698294Y214117D01*
X696806Y213123D01*
X695811Y211634D01*
X695462Y209878D01*
X695811Y208123D01*
X696806Y206634D01*
X698294Y205639D01*
X700050Y205290D01*
X701806Y205639D01*
X703294Y206634D01*
X703418Y206819D01*
X704964D01*
X710122Y201662D01*
X718338Y209878D01*
X710122Y218095D01*
D02*
G37*
G36*
X713000Y231588D02*
X711244Y231239D01*
X709756Y230244D01*
X708761Y228756D01*
X708412Y227000D01*
X708761Y225244D01*
X709756Y223756D01*
X711244Y222761D01*
X712879Y222436D01*
X713217Y221321D01*
X713239Y221212D01*
X711905Y219878D01*
X720122Y211662D01*
X728338Y219878D01*
X720122Y228095D01*
X718788Y226761D01*
X718679Y226783D01*
X717564Y227121D01*
X717239Y228756D01*
X716244Y230244D01*
X714756Y231239D01*
X713000Y231588D01*
D02*
G37*
G36*
X470000Y218217D02*
X466790Y215006D01*
X470000Y211796D01*
X473210Y215006D01*
X470000Y218217D01*
D02*
G37*
G36*
X218730Y221270D02*
X211650D01*
Y215460D01*
X218730D01*
Y221270D01*
D02*
G37*
G36*
X246230Y223730D02*
X243931D01*
Y222500D01*
X244203Y221134D01*
X244977Y219977D01*
X246134Y219203D01*
X246230Y219184D01*
Y223730D01*
D02*
G37*
G36*
X121230Y223730D02*
X118932D01*
Y222500D01*
X119203Y221134D01*
X119977Y219977D01*
X121134Y219203D01*
X121230Y219184D01*
Y223730D01*
D02*
G37*
G36*
X288730Y226190D02*
X281650D01*
Y220380D01*
X288730D01*
Y226190D01*
D02*
G37*
G36*
X93730Y221270D02*
X86650D01*
Y215460D01*
X93730D01*
Y221270D01*
D02*
G37*
G36*
X509694Y219282D02*
X507938Y218933D01*
X506450Y217938D01*
X505455Y216450D01*
X505428Y216313D01*
X504213Y215945D01*
X501674Y218483D01*
X491662Y208470D01*
X503470Y196662D01*
X513483Y206674D01*
X510945Y209213D01*
X511313Y210428D01*
X511450Y210455D01*
X512938Y211450D01*
X513933Y212938D01*
X514282Y214694D01*
X513933Y216450D01*
X512938Y217938D01*
X511450Y218933D01*
X509694Y219282D01*
D02*
G37*
G36*
X742694Y234115D02*
X730885Y222306D01*
X734072Y219119D01*
X731585Y216632D01*
X730000Y218217D01*
X721783Y210000D01*
X730000Y201783D01*
X731945Y203729D01*
X734595Y201079D01*
X734761Y200244D01*
X735756Y198756D01*
X737244Y197761D01*
X739000Y197412D01*
X740756Y197761D01*
X742244Y198756D01*
X743239Y200244D01*
X743588Y202000D01*
X743239Y203756D01*
X742244Y205244D01*
X740756Y206239D01*
X739000Y206588D01*
X737947Y206379D01*
X736271Y208055D01*
X738217Y210000D01*
X736632Y211585D01*
X739119Y214072D01*
X740898Y212293D01*
X752707Y224102D01*
X742694Y234115D01*
D02*
G37*
G36*
X150230Y208500D02*
X141250D01*
Y196270D01*
X150230D01*
Y208500D01*
D02*
G37*
G36*
X161750D02*
X152770D01*
Y196270D01*
X161750D01*
Y208500D01*
D02*
G37*
G36*
X458730Y203730D02*
X455664D01*
X455761Y203244D01*
X456756Y201756D01*
X458244Y200761D01*
X458730Y200665D01*
Y203730D01*
D02*
G37*
G36*
X286750Y208500D02*
X277770D01*
Y196270D01*
X286750D01*
Y208500D01*
D02*
G37*
G36*
X117220Y208500D02*
X108240D01*
Y196270D01*
X117220D01*
Y208500D01*
D02*
G37*
G36*
X128740D02*
X119760D01*
Y196270D01*
X128740D01*
Y208500D01*
D02*
G37*
G36*
X475006Y213210D02*
X471796Y210000D01*
X475006Y206790D01*
X478217Y210000D01*
X475006Y213210D01*
D02*
G37*
G36*
X752000Y219261D02*
X750244Y218912D01*
X748756Y217917D01*
X747761Y216428D01*
X747412Y214673D01*
X747761Y212917D01*
X748756Y211428D01*
X750244Y210434D01*
X752000Y210084D01*
X753756Y210434D01*
X755244Y211428D01*
X756239Y212917D01*
X756588Y214673D01*
X756239Y216428D01*
X755244Y217917D01*
X753756Y218912D01*
X752000Y219261D01*
D02*
G37*
G36*
X464994Y213210D02*
X462024Y210240D01*
X462024Y210240D01*
Y210240D01*
X461783Y210000D01*
D01*
X461144Y209361D01*
X461270Y209336D01*
Y206270D01*
X464336D01*
X464470Y205595D01*
X465589Y206193D01*
X464993Y206789D01*
X468204Y210000D01*
X464994Y213210D01*
D02*
G37*
G36*
X464336Y203730D02*
X461270D01*
Y200665D01*
X461756Y200761D01*
X463244Y201756D01*
X464239Y203244D01*
X464336Y203730D01*
D02*
G37*
G36*
X470000Y208204D02*
X466790Y204994D01*
X470000Y201783D01*
X473210Y204994D01*
X470000Y208204D01*
D02*
G37*
G36*
X458730Y209335D02*
X458244Y209239D01*
X456756Y208244D01*
X455761Y206756D01*
X455664Y206270D01*
X458730D01*
Y209335D01*
D02*
G37*
G36*
X298350Y226190D02*
X291270D01*
Y220380D01*
X298350D01*
Y226190D01*
D02*
G37*
G36*
X223730Y238730D02*
X219190D01*
Y234190D01*
X223730D01*
Y238730D01*
D02*
G37*
G36*
X230810D02*
X226270D01*
Y234190D01*
X230810D01*
Y238730D01*
D02*
G37*
G36*
X624475Y261496D02*
X607504Y244525D01*
X609496Y242534D01*
Y241264D01*
X600635Y232403D01*
X599365D01*
X592992Y238776D01*
X594217Y240000D01*
X586000Y248217D01*
X585411Y247627D01*
X584141D01*
X581295Y250472D01*
X581239Y250756D01*
X580244Y252244D01*
X578756Y253239D01*
X577000Y253588D01*
X575244Y253239D01*
X573756Y252244D01*
X572761Y250756D01*
X572412Y249000D01*
X572761Y247244D01*
X573756Y245756D01*
X575244Y244761D01*
X575528Y244705D01*
X578373Y241859D01*
Y240589D01*
X577783Y240000D01*
X586000Y231783D01*
X587225Y233008D01*
X593597Y226635D01*
Y225365D01*
X592129Y223897D01*
X590534Y224107D01*
X588315Y223815D01*
X586247Y222959D01*
X584472Y221596D01*
X579522Y216646D01*
X578159Y214871D01*
X577303Y212803D01*
X577011Y210584D01*
X577303Y208365D01*
X578159Y206297D01*
X579522Y204522D01*
X581297Y203159D01*
X583365Y202303D01*
X585584Y202011D01*
X587803Y202303D01*
X589871Y203159D01*
X591646Y204522D01*
X596596Y209471D01*
X597958Y211247D01*
X598815Y213315D01*
X599107Y215534D01*
X598815Y217753D01*
X598436Y218668D01*
X602884Y223116D01*
X602884Y223116D01*
X615263Y235496D01*
X616534D01*
X619525Y232504D01*
X636496Y249475D01*
X624475Y261496D01*
D02*
G37*
G36*
X555730Y391730D02*
X552664D01*
X552761Y391244D01*
X553756Y389756D01*
X555244Y388761D01*
X555730Y388665D01*
Y391730D01*
D02*
G37*
G36*
X565000Y406261D02*
X563244Y405912D01*
X561756Y404917D01*
X560761Y403428D01*
X560412Y401673D01*
X560761Y399917D01*
X561756Y398428D01*
X563244Y397434D01*
X565000Y397085D01*
X565219Y397128D01*
X567065Y395282D01*
X566783Y395000D01*
X575000Y386783D01*
X583217Y395000D01*
X575000Y403217D01*
X571391Y399608D01*
X569545Y401454D01*
X569588Y401673D01*
X569239Y403428D01*
X568244Y404917D01*
X566756Y405912D01*
X565000Y406261D01*
D02*
G37*
G36*
X98730Y238730D02*
X94190D01*
Y234190D01*
X98730D01*
Y238730D01*
D02*
G37*
G36*
X745122Y263338D02*
X736905Y255122D01*
X742063Y249964D01*
Y248418D01*
X741877Y248294D01*
X740883Y246806D01*
X740534Y245050D01*
X740883Y243294D01*
X741877Y241806D01*
X743366Y240811D01*
X745122Y240462D01*
X746878Y240811D01*
X748366Y241806D01*
X749361Y243294D01*
X749710Y245050D01*
X749361Y246806D01*
X748366Y248294D01*
X748180Y248418D01*
Y249964D01*
X753338Y255122D01*
X745122Y263338D01*
D02*
G37*
G36*
X223730Y245810D02*
X219190D01*
Y241270D01*
X223730D01*
Y245810D01*
D02*
G37*
G36*
X649612Y392588D02*
X647856Y392239D01*
X646367Y391244D01*
X645373Y389756D01*
X645023Y388000D01*
X645067Y387781D01*
X642751Y385465D01*
X640000Y388217D01*
X631783Y380000D01*
X640000Y371783D01*
X648217Y380000D01*
X647077Y381140D01*
X649393Y383455D01*
X649612Y383412D01*
X651367Y383761D01*
X651820Y384063D01*
X652718Y383165D01*
X652302Y382543D01*
X651952Y380787D01*
X652302Y379031D01*
X653296Y377542D01*
X654785Y376548D01*
X656541Y376199D01*
X658296Y376548D01*
X659785Y377542D01*
X660779Y379031D01*
X661129Y380787D01*
X660779Y382543D01*
X659785Y384031D01*
X658296Y385026D01*
X656541Y385375D01*
X654785Y385026D01*
X654333Y384724D01*
X653435Y385622D01*
X653850Y386244D01*
X654200Y388000D01*
X653850Y389756D01*
X652856Y391244D01*
X651367Y392239D01*
X649612Y392588D01*
D02*
G37*
G36*
X105810Y238730D02*
X101270D01*
Y234190D01*
X105810D01*
Y238730D01*
D02*
G37*
G36*
X459878Y248095D02*
X451662Y239878D01*
X459878Y231662D01*
X465036Y236819D01*
X466582D01*
X466706Y236634D01*
X468194Y235639D01*
X469950Y235290D01*
X471706Y235639D01*
X473194Y236634D01*
X474189Y238123D01*
X474538Y239878D01*
X474189Y241634D01*
X473194Y243123D01*
X471706Y244117D01*
X469950Y244466D01*
X468194Y244117D01*
X466706Y243123D01*
X466582Y242937D01*
X465036D01*
X459878Y248095D01*
D02*
G37*
G36*
X173350Y234540D02*
X166270D01*
Y228730D01*
X173350D01*
Y234540D01*
D02*
G37*
G36*
X218730Y229620D02*
X211650D01*
Y223810D01*
X218730D01*
Y229620D01*
D02*
G37*
G36*
X93730Y229620D02*
X86650D01*
Y223810D01*
X93730D01*
Y229620D01*
D02*
G37*
G36*
X673539Y229588D02*
X671783Y229239D01*
X670295Y228244D01*
X669300Y226756D01*
X669244Y226472D01*
X663672Y220900D01*
X663463Y220987D01*
X661244Y221279D01*
X659025Y220987D01*
X656958Y220130D01*
X655182Y218768D01*
X650232Y213818D01*
X648870Y212042D01*
X648013Y209974D01*
X647721Y207756D01*
X648013Y205537D01*
X648870Y203469D01*
X650232Y201693D01*
X652008Y200331D01*
X654076Y199474D01*
X656295Y199182D01*
X658514Y199474D01*
X660581Y200331D01*
X662357Y201693D01*
X667307Y206643D01*
X668669Y208419D01*
X669526Y210486D01*
X669818Y212705D01*
X669526Y214924D01*
X669439Y215133D01*
X675012Y220705D01*
X675295Y220761D01*
X676783Y221756D01*
X677778Y223244D01*
X678127Y225000D01*
X677778Y226756D01*
X676783Y228244D01*
X675295Y229239D01*
X673539Y229588D01*
D02*
G37*
G36*
X163730Y226190D02*
X156650D01*
Y220380D01*
X163730D01*
Y226190D01*
D02*
G37*
G36*
X173350D02*
X166270D01*
Y220380D01*
X173350D01*
Y226190D01*
D02*
G37*
G36*
X450000Y238217D02*
X441783Y230000D01*
X443729Y228055D01*
X442219Y226545D01*
X442000Y226588D01*
X440244Y226239D01*
X438756Y225244D01*
X437761Y223756D01*
X437412Y222000D01*
X437761Y220244D01*
X438756Y218756D01*
X440244Y217761D01*
X442000Y217412D01*
X443161Y217643D01*
X443867Y216587D01*
X443761Y216428D01*
X443412Y214673D01*
X443761Y212917D01*
X444756Y211428D01*
X446244Y210434D01*
X448000Y210084D01*
X449756Y210434D01*
X451244Y211428D01*
X452239Y212917D01*
X452588Y214673D01*
X452239Y216428D01*
X451244Y217917D01*
X449756Y218912D01*
X448000Y219261D01*
X446839Y219030D01*
X446133Y220086D01*
X446239Y220244D01*
X446588Y222000D01*
X446545Y222219D01*
X448055Y223729D01*
X450000Y221783D01*
X458217Y230000D01*
X450000Y238217D01*
D02*
G37*
G36*
X298350Y234540D02*
X291270D01*
Y228730D01*
X298350D01*
Y234540D01*
D02*
G37*
G36*
X163730Y234540D02*
X156650D01*
Y228730D01*
X163730D01*
Y234540D01*
D02*
G37*
G36*
X288730Y234540D02*
X281650D01*
Y228730D01*
X288730D01*
Y234540D01*
D02*
G37*
G36*
X720306Y249282D02*
X718550Y248933D01*
X717062Y247938D01*
X716067Y246450D01*
X715718Y244694D01*
X716067Y242938D01*
X717062Y241450D01*
X718550Y240455D01*
X718687Y240428D01*
X719055Y239213D01*
X716517Y236674D01*
X726530Y226662D01*
X738338Y238470D01*
X728326Y248483D01*
X725787Y245945D01*
X724572Y246313D01*
X724545Y246450D01*
X723550Y247938D01*
X722062Y248933D01*
X720306Y249282D01*
D02*
G37*
G36*
X487000Y231588D02*
X485244Y231239D01*
X483756Y230244D01*
X482761Y228756D01*
X482436Y227121D01*
X481321Y226783D01*
X481212Y226761D01*
X479878Y228095D01*
X471662Y219878D01*
X479878Y211662D01*
X488095Y219878D01*
X486761Y221212D01*
X487000Y222412D01*
X488756Y222761D01*
X490244Y223756D01*
X491239Y225244D01*
X491588Y227000D01*
X491239Y228756D01*
X490244Y230244D01*
X488756Y231239D01*
X487000Y231588D01*
D02*
G37*
G36*
X655006Y133210D02*
X651796Y130000D01*
X655006Y126790D01*
X658217Y130000D01*
X655006Y133210D01*
D02*
G37*
G36*
X633000Y151588D02*
X631244Y151239D01*
X629756Y150244D01*
X628761Y148756D01*
X628412Y147000D01*
X628761Y145244D01*
X629756Y143756D01*
X631244Y142761D01*
X632879Y142436D01*
X633217Y141321D01*
X633239Y141212D01*
X631905Y139878D01*
X640122Y131662D01*
X648338Y139878D01*
X640122Y148095D01*
X638788Y146761D01*
X638679Y146783D01*
X637564Y147121D01*
X637239Y148756D01*
X636244Y150244D01*
X634756Y151239D01*
X633000Y151588D01*
D02*
G37*
G36*
X644994Y133210D02*
X641783Y130000D01*
X644994Y126790D01*
X648204Y130000D01*
X644994Y133210D01*
D02*
G37*
G36*
X663612Y130872D02*
X661856Y130523D01*
X660367Y129529D01*
X659373Y128040D01*
X659024Y126284D01*
X659373Y124529D01*
X660367Y123040D01*
X661856Y122045D01*
X663612Y121696D01*
X665368Y122045D01*
X666856Y123040D01*
X667851Y124529D01*
X668200Y126284D01*
X667851Y128040D01*
X666856Y129529D01*
X665368Y130523D01*
X663612Y130872D01*
D02*
G37*
G36*
X650000Y128204D02*
X646790Y124994D01*
X650000Y121783D01*
X653210Y124994D01*
X650000Y128204D01*
D02*
G37*
G36*
Y138217D02*
X646790Y135006D01*
X650000Y131796D01*
X653210Y135006D01*
X650000Y138217D01*
D02*
G37*
G36*
X508104Y159157D02*
X506348Y158807D01*
X504860Y157813D01*
X503865Y156324D01*
X503516Y154569D01*
X503865Y152813D01*
X504860Y151324D01*
X506348Y150330D01*
X508104Y149980D01*
X509860Y150330D01*
X511348Y151324D01*
X512343Y152813D01*
X512692Y154569D01*
X512343Y156324D01*
X511348Y157813D01*
X509860Y158807D01*
X508104Y159157D01*
D02*
G37*
G36*
X695432Y162692D02*
X693676Y162343D01*
X692187Y161348D01*
X691192Y159860D01*
X690843Y158104D01*
X691192Y156348D01*
X692187Y154860D01*
X693676Y153865D01*
X695432Y153516D01*
X697187Y153865D01*
X698676Y154860D01*
X699670Y156348D01*
X700020Y158104D01*
X699670Y159860D01*
X698676Y161348D01*
X697187Y162343D01*
X695432Y162692D01*
D02*
G37*
G36*
X572000Y146588D02*
X570244Y146239D01*
X568756Y145244D01*
X567761Y143756D01*
X567436Y142121D01*
X566321Y141783D01*
X566212Y141761D01*
X566221Y141753D01*
D01*
X564878Y143095D01*
X556662Y134878D01*
X564878Y126662D01*
X573095Y134878D01*
X571761Y136212D01*
Y136212D01*
X571761Y136212D01*
X572000Y137412D01*
X573756Y137761D01*
X575244Y138756D01*
X576239Y140244D01*
X576588Y142000D01*
X576239Y143756D01*
X575244Y145244D01*
X573756Y146239D01*
X572000Y146588D01*
D02*
G37*
G36*
X665000Y153217D02*
X656783Y145000D01*
X665000Y136783D01*
X667445Y139229D01*
X669455Y137219D01*
X669412Y137000D01*
X669761Y135244D01*
X670756Y133756D01*
X672244Y132761D01*
X674000Y132412D01*
X675756Y132761D01*
X677244Y133756D01*
X678239Y135244D01*
X678588Y137000D01*
X678239Y138756D01*
X677244Y140244D01*
X675756Y141239D01*
X674000Y141588D01*
X673781Y141545D01*
X671771Y143555D01*
X673217Y145000D01*
X665000Y153217D01*
D02*
G37*
G36*
X630122Y138095D02*
X624964Y132937D01*
X623418D01*
X623294Y133123D01*
X621806Y134117D01*
X620050Y134466D01*
X618294Y134117D01*
X616806Y133123D01*
X615811Y131634D01*
X615462Y129878D01*
X615811Y128123D01*
X616806Y126634D01*
X618294Y125639D01*
X620050Y125290D01*
X621806Y125639D01*
X623294Y126634D01*
X623418Y126819D01*
X624964D01*
X630122Y121662D01*
X638338Y129878D01*
X630122Y138095D01*
D02*
G37*
G36*
X657270Y123336D02*
Y120270D01*
X660335D01*
X660239Y120756D01*
X659244Y122244D01*
X657756Y123239D01*
X657270Y123336D01*
D02*
G37*
G36*
X575000Y113217D02*
X566783Y105000D01*
X569966Y101818D01*
Y100548D01*
X568963Y99545D01*
X568744Y99588D01*
X566988Y99239D01*
X565499Y98244D01*
X564505Y96756D01*
X564156Y95000D01*
X564505Y93244D01*
X565499Y91756D01*
X566988Y90761D01*
X568744Y90412D01*
X570499Y90761D01*
X571243Y89648D01*
X570647Y88756D01*
X570298Y87000D01*
X570647Y85244D01*
X571642Y83756D01*
X573130Y82761D01*
X574886Y82412D01*
X576642Y82761D01*
X578130Y83756D01*
X578602Y84463D01*
X579163Y84837D01*
X582420Y88094D01*
X583690D01*
X585000Y86783D01*
X593217Y95000D01*
X585000Y103217D01*
X576783Y95000D01*
X578094Y93690D01*
Y92420D01*
X576804Y91130D01*
X576642Y91239D01*
X574886Y91588D01*
X573130Y91239D01*
X572386Y92352D01*
X572983Y93244D01*
X573332Y95000D01*
X573288Y95219D01*
X574853Y96783D01*
X575000D01*
X575000D01*
X583217Y105000D01*
X575000Y113217D01*
D02*
G37*
G36*
X584878Y129538D02*
X583122Y129189D01*
X581634Y128194D01*
X580639Y126706D01*
X580290Y124950D01*
X580639Y123194D01*
X581634Y121706D01*
X581819Y121582D01*
Y120036D01*
X576662Y114878D01*
X584878Y106662D01*
X593095Y114878D01*
X587937Y120036D01*
Y121582D01*
X588123Y121706D01*
X589117Y123194D01*
X589466Y124950D01*
X589117Y126706D01*
X588123Y128194D01*
X586634Y129189D01*
X584878Y129538D01*
D02*
G37*
G36*
X594878Y113095D02*
X586662Y104878D01*
X594878Y96662D01*
X596212Y97995D01*
X596321Y97973D01*
X597436Y97635D01*
X597761Y96001D01*
X598756Y94512D01*
X600244Y93518D01*
X602000Y93168D01*
X603756Y93518D01*
X605244Y94512D01*
X606239Y96001D01*
X606588Y97757D01*
X606239Y99512D01*
X605244Y101001D01*
X603756Y101995D01*
X602000Y102345D01*
X601761Y103545D01*
X603095Y104878D01*
X594878Y113095D01*
D02*
G37*
G36*
X600000Y74588D02*
X598244Y74239D01*
X596756Y73244D01*
X595761Y71756D01*
X595412Y70000D01*
X595761Y68244D01*
X596756Y66756D01*
X598244Y65761D01*
X600000Y65412D01*
X601756Y65761D01*
X603244Y66756D01*
X604239Y68244D01*
X604588Y70000D01*
X604239Y71756D01*
X603244Y73244D01*
X601756Y74239D01*
X600000Y74588D01*
D02*
G37*
G36*
X620000Y108217D02*
X611783Y100000D01*
X620000Y91783D01*
X621782Y93565D01*
X622764Y92760D01*
X622761Y92756D01*
X622412Y91000D01*
X622761Y89244D01*
X623756Y87756D01*
X625244Y86761D01*
X627000Y86412D01*
X628756Y86761D01*
X630244Y87756D01*
X631239Y89244D01*
X631588Y91000D01*
X631239Y92756D01*
X630244Y94244D01*
X629399Y94809D01*
X629163Y95163D01*
X626271Y98055D01*
X628217Y100000D01*
X620000Y108217D01*
D02*
G37*
G36*
X640000Y128217D02*
X631783Y120000D01*
X640000Y111783D01*
X641945Y113729D01*
X645359Y110316D01*
X645373Y110244D01*
X646367Y108756D01*
X647856Y107761D01*
X649612Y107412D01*
X651367Y107761D01*
X652856Y108756D01*
X653851Y110244D01*
X654200Y112000D01*
X653851Y113756D01*
X655100Y114590D01*
X654730Y114664D01*
Y117730D01*
X651665D01*
X651761Y117244D01*
X650511Y116409D01*
X649612Y116588D01*
X648048Y116277D01*
X646271Y118055D01*
X648217Y120000D01*
X640000Y128217D01*
D02*
G37*
G36*
X617243Y121588D02*
X615488Y121239D01*
X613999Y120244D01*
X613004Y118756D01*
X612679Y117121D01*
X611565Y116783D01*
X611455Y116761D01*
X610122Y118095D01*
X601905Y109878D01*
X610122Y101662D01*
X618338Y109878D01*
X617005Y111212D01*
X617243Y112412D01*
X618999Y112761D01*
X620488Y113756D01*
X621482Y115244D01*
X621832Y117000D01*
X621482Y118756D01*
X620488Y120244D01*
X618999Y121239D01*
X617243Y121588D01*
D02*
G37*
G36*
X654730Y123336D02*
X654244Y123239D01*
X652756Y122244D01*
X651761Y120756D01*
X651665Y120270D01*
X654730D01*
Y123336D01*
D02*
G37*
G36*
X555000Y133217D02*
X546783Y125000D01*
X551941Y119842D01*
Y117267D01*
X551000Y116588D01*
X549244Y116239D01*
X547756Y115244D01*
X546761Y113756D01*
X546412Y112000D01*
X546761Y110244D01*
X547756Y108756D01*
X549244Y107761D01*
X551000Y107412D01*
X552756Y107761D01*
X554244Y108756D01*
X555239Y110244D01*
X555588Y112000D01*
X555545Y112219D01*
X557163Y113837D01*
X557163Y113837D01*
X557826Y114830D01*
X557826Y114830D01*
X557826Y114830D01*
X558059Y116000D01*
X558059Y116000D01*
Y119842D01*
X563217Y125000D01*
X555000Y133217D01*
D02*
G37*
G36*
X543459Y123801D02*
X541704Y123452D01*
X540215Y122458D01*
X539221Y120969D01*
X538871Y119213D01*
X539221Y117457D01*
X540215Y115969D01*
X541704Y114974D01*
X543459Y114625D01*
X545215Y114974D01*
X546704Y115969D01*
X547698Y117457D01*
X548048Y119213D01*
X547698Y120969D01*
X546704Y122458D01*
X545215Y123452D01*
X543459Y123801D01*
D02*
G37*
G36*
X660335Y117730D02*
X657270D01*
Y114664D01*
X657756Y114761D01*
X659244Y115756D01*
X660239Y117244D01*
X660335Y117730D01*
D02*
G37*
G36*
X662243Y166588D02*
X660488Y166239D01*
X658999Y165244D01*
X658005Y163756D01*
X657679Y162121D01*
X656565Y161783D01*
X656455Y161761D01*
X655122Y163095D01*
X646905Y154878D01*
X655122Y146662D01*
X663338Y154878D01*
X662005Y156212D01*
X662243Y157412D01*
X663999Y157761D01*
X665488Y158756D01*
X666482Y160244D01*
X666832Y162000D01*
X666482Y163756D01*
X665488Y165244D01*
X663999Y166239D01*
X662243Y166588D01*
D02*
G37*
G36*
X472749Y194512D02*
X470993Y194163D01*
X469504Y193168D01*
X468510Y191680D01*
X468161Y189924D01*
X468510Y188168D01*
X469504Y186680D01*
X470993Y185685D01*
X472749Y185336D01*
X474505Y185685D01*
X475993Y186680D01*
X476988Y188168D01*
X477337Y189924D01*
X476988Y191680D01*
X475993Y193168D01*
X474505Y194163D01*
X472749Y194512D01*
D02*
G37*
G36*
X565000Y393217D02*
X562218Y390435D01*
X561236Y391240D01*
X561239Y391244D01*
X561335Y391730D01*
X558270D01*
Y388665D01*
X558756Y388761D01*
X558760Y388764D01*
X559565Y387782D01*
X556783Y385000D01*
X559994Y381790D01*
X564100Y385896D01*
D01*
X564102Y385898D01*
X564104Y385900D01*
D01*
X568210Y390006D01*
X565000Y393217D01*
D02*
G37*
G36*
X161750Y193730D02*
X152770D01*
Y181500D01*
X161750D01*
Y193730D01*
D02*
G37*
G36*
X128740D02*
X119760D01*
Y181500D01*
X128740D01*
Y193730D01*
D02*
G37*
G36*
X150230D02*
X141250D01*
Y181500D01*
X150230D01*
Y193730D01*
D02*
G37*
G36*
X677000Y190059D02*
X677000Y190059D01*
X635539D01*
X635539Y190059D01*
X634369Y189826D01*
X633376Y189163D01*
X630750Y186537D01*
X629522Y187045D01*
X627303Y187337D01*
X625084Y187045D01*
X623017Y186189D01*
X621241Y184827D01*
X616291Y179877D01*
X614929Y178101D01*
X614072Y176033D01*
X613780Y173814D01*
X614072Y171595D01*
X614929Y169528D01*
X616291Y167752D01*
X618067Y166390D01*
X620135Y165533D01*
X622354Y165241D01*
X624572Y165533D01*
X626640Y166390D01*
X628416Y167752D01*
X633366Y172702D01*
X634728Y174478D01*
X635584Y176545D01*
X635877Y178764D01*
X635584Y180983D01*
X635076Y182211D01*
X636806Y183941D01*
X675733D01*
X685455Y174219D01*
X685412Y174000D01*
X685761Y172244D01*
X686756Y170756D01*
X688244Y169761D01*
X690000Y169412D01*
X691756Y169761D01*
X693244Y170756D01*
X694239Y172244D01*
X694588Y174000D01*
X694239Y175756D01*
X693244Y177244D01*
X691756Y178239D01*
X690000Y178588D01*
X689781Y178545D01*
X679163Y189163D01*
X678170Y189826D01*
X677000Y190059D01*
D02*
G37*
G36*
X253740Y208500D02*
X244760D01*
Y196270D01*
X253740D01*
Y208500D01*
D02*
G37*
G36*
X275230D02*
X266250D01*
Y196270D01*
X275230D01*
Y208500D01*
D02*
G37*
G36*
X242220D02*
X233240D01*
Y196270D01*
X242220D01*
Y208500D01*
D02*
G37*
G36*
X218730Y200950D02*
X211650D01*
Y195140D01*
X218730D01*
Y200950D01*
D02*
G37*
G36*
X93730Y200950D02*
X86650D01*
Y195140D01*
X93730D01*
Y200950D01*
D02*
G37*
G36*
X117220Y193730D02*
X108240D01*
Y181500D01*
X117220D01*
Y193730D01*
D02*
G37*
G36*
X603508Y438408D02*
X601752Y438059D01*
X600263Y437064D01*
X599269Y435576D01*
X598919Y433820D01*
X599269Y432064D01*
X600263Y430575D01*
X601752Y429581D01*
X603508Y429232D01*
X605263Y429581D01*
X606752Y430575D01*
X607747Y432064D01*
X608096Y433820D01*
X607747Y435576D01*
X606752Y437064D01*
X605263Y438059D01*
X603508Y438408D01*
D02*
G37*
G36*
X558270Y397336D02*
Y394270D01*
X561335D01*
X561239Y394756D01*
X560244Y396244D01*
X558756Y397239D01*
X558270Y397336D01*
D02*
G37*
G36*
X509878Y198095D02*
X501662Y189878D01*
X509878Y181662D01*
X511212Y182995D01*
X511321Y182973D01*
X512436Y182635D01*
X512761Y181001D01*
X513756Y179512D01*
X515244Y178518D01*
X517000Y178168D01*
X518756Y178518D01*
X520244Y179512D01*
X521239Y181001D01*
X521588Y182757D01*
X521239Y184512D01*
X520244Y186001D01*
X518756Y186996D01*
X517000Y187345D01*
X516761Y188545D01*
X518095Y189878D01*
X509878Y198095D01*
D02*
G37*
G36*
X716645Y183905D02*
X714889Y183556D01*
X713400Y182562D01*
X712406Y181073D01*
X712057Y179317D01*
X712406Y177561D01*
X713400Y176073D01*
X714889Y175078D01*
X716645Y174729D01*
X718400Y175078D01*
X719889Y176073D01*
X720884Y177561D01*
X721233Y179317D01*
X720884Y181073D01*
X719889Y182562D01*
X718400Y183556D01*
X716645Y183905D01*
D02*
G37*
G36*
X487306Y204115D02*
X477293Y194102D01*
X489102Y182293D01*
X491241Y184433D01*
X493094Y182580D01*
Y181310D01*
X491783Y180000D01*
X493194Y178590D01*
X492595Y177470D01*
X492000Y177588D01*
X490244Y177239D01*
X488756Y176244D01*
X487761Y174756D01*
X487412Y173000D01*
X487761Y171244D01*
X488756Y169756D01*
X490244Y168761D01*
X492000Y168412D01*
X493756Y168761D01*
X495244Y169756D01*
X496239Y171244D01*
X496405Y172079D01*
X498055Y173729D01*
X500000Y171783D01*
X508217Y180000D01*
X500000Y188217D01*
X498690Y186906D01*
X497420D01*
X495567Y188759D01*
X499115Y192306D01*
X487306Y204115D01*
D02*
G37*
G36*
X555730Y397336D02*
X555244Y397239D01*
X553756Y396244D01*
X552761Y394756D01*
X552664Y394270D01*
X555730D01*
Y397336D01*
D02*
G37*
G36*
X275230Y193730D02*
X266250D01*
Y181500D01*
X275230D01*
Y193730D01*
D02*
G37*
G36*
X286750D02*
X277770D01*
Y181500D01*
X286750D01*
Y193730D01*
D02*
G37*
G36*
X253740D02*
X244760D01*
Y181500D01*
X253740D01*
Y193730D01*
D02*
G37*
G36*
X592000Y396832D02*
X590244Y396482D01*
X588756Y395488D01*
X587761Y393999D01*
X587436Y392365D01*
X586321Y392026D01*
X586212Y392005D01*
X584878Y393338D01*
X576662Y385122D01*
X584878Y376905D01*
X593095Y385122D01*
X591761Y386455D01*
X592000Y387655D01*
X593756Y388004D01*
X595244Y388999D01*
X596239Y390488D01*
X596588Y392243D01*
X596239Y393999D01*
X595244Y395488D01*
X593756Y396482D01*
X592000Y396832D01*
D02*
G37*
G36*
X242220Y193730D02*
X233240D01*
Y181500D01*
X242220D01*
Y193730D01*
D02*
G37*
G36*
X230810Y245810D02*
X226270D01*
Y241270D01*
X230810D01*
Y245810D01*
D02*
G37*
G36*
X161750Y318500D02*
X152770D01*
Y306270D01*
X161750D01*
Y318500D01*
D02*
G37*
G36*
X690898Y337707D02*
X680885Y327694D01*
X692694Y315885D01*
X696242Y319433D01*
X698094Y317580D01*
Y316310D01*
X696783Y315000D01*
X705000Y306783D01*
X713217Y315000D01*
X711271Y316945D01*
X712781Y318455D01*
X713000Y318412D01*
X714756Y318761D01*
X716244Y319756D01*
X717239Y321244D01*
X717588Y323000D01*
X717239Y324756D01*
X716244Y326244D01*
X714756Y327239D01*
X713000Y327588D01*
X711244Y327239D01*
X709756Y326244D01*
X708761Y324756D01*
X708412Y323000D01*
X708455Y322781D01*
X706945Y321271D01*
X705000Y323217D01*
X703690Y321906D01*
X702420D01*
X700567Y323759D01*
X702707Y325898D01*
X690898Y337707D01*
D02*
G37*
G36*
X150230Y318500D02*
X141250D01*
Y306270D01*
X150230D01*
Y318500D01*
D02*
G37*
G36*
X117220D02*
X108240D01*
Y306270D01*
X117220D01*
Y318500D01*
D02*
G37*
G36*
X128740D02*
X119760D01*
Y306270D01*
X128740D01*
Y318500D01*
D02*
G37*
G36*
X486891Y328806D02*
X485135Y328457D01*
X483647Y327463D01*
X482652Y325974D01*
X482303Y324218D01*
X482652Y322463D01*
X483647Y320974D01*
X485135Y319979D01*
X486891Y319630D01*
X488647Y319979D01*
X490135Y320974D01*
X491130Y322463D01*
X491479Y324218D01*
X491130Y325974D01*
X490135Y327463D01*
X488647Y328457D01*
X486891Y328806D01*
D02*
G37*
G36*
X246230Y333730D02*
X243931D01*
Y332500D01*
X244203Y331134D01*
X244977Y329977D01*
X246134Y329203D01*
X246230Y329184D01*
Y333730D01*
D02*
G37*
G36*
X288730Y336190D02*
X281650D01*
Y330380D01*
X288730D01*
Y336190D01*
D02*
G37*
G36*
X121230Y333730D02*
X118931D01*
Y332500D01*
X119203Y331134D01*
X119977Y329977D01*
X121134Y329203D01*
X121230Y329184D01*
Y333730D01*
D02*
G37*
G36*
X218730Y331270D02*
X211650D01*
Y325460D01*
X218730D01*
Y331270D01*
D02*
G37*
G36*
X93730Y331270D02*
X86650D01*
Y325460D01*
X93730D01*
Y331270D01*
D02*
G37*
G36*
X286750Y318500D02*
X277770D01*
Y306270D01*
X286750D01*
Y318500D01*
D02*
G37*
G36*
X720898Y307707D02*
X716790Y303598D01*
X721796Y298592D01*
X725904Y302700D01*
X720898Y307707D01*
D02*
G37*
G36*
X670306Y324137D02*
X668550Y323788D01*
X667062Y322794D01*
X666067Y321305D01*
X665718Y319549D01*
X666067Y317794D01*
X667062Y316305D01*
X667689Y315886D01*
X667813Y314622D01*
X666517Y313326D01*
X678326Y301517D01*
X688338Y311530D01*
X676530Y323338D01*
X675233Y322042D01*
X673969Y322166D01*
X673550Y322794D01*
X672062Y323788D01*
X670306Y324137D01*
D02*
G37*
G36*
X743270Y301336D02*
Y298270D01*
X746336D01*
X746239Y298756D01*
X745244Y300244D01*
X743756Y301239D01*
X743270Y301336D01*
D02*
G37*
G36*
X695122Y313338D02*
X686905Y305122D01*
X688239Y303788D01*
X688217Y303679D01*
X687879Y302564D01*
X686244Y302239D01*
X684756Y301244D01*
X683761Y299756D01*
X683412Y298000D01*
X683761Y296244D01*
X684756Y294756D01*
X686244Y293761D01*
X688000Y293412D01*
X689756Y293761D01*
X691244Y294756D01*
X692239Y296244D01*
X692564Y297879D01*
X693679Y298217D01*
X693788Y298239D01*
X695122Y296905D01*
X703338Y305122D01*
X695122Y313338D01*
D02*
G37*
G36*
X740730Y301336D02*
X740244Y301239D01*
X738756Y300244D01*
X737761Y298756D01*
X737664Y298270D01*
X740730D01*
Y301336D01*
D02*
G37*
G36*
X218730Y310950D02*
X211650D01*
Y305140D01*
X218730D01*
Y310950D01*
D02*
G37*
G36*
X253740Y318500D02*
X244760D01*
Y306270D01*
X253740D01*
Y318500D01*
D02*
G37*
G36*
X275230D02*
X266250D01*
Y306270D01*
X275230D01*
Y318500D01*
D02*
G37*
G36*
X242220D02*
X233240D01*
Y306270D01*
X242220D01*
Y318500D01*
D02*
G37*
G36*
X93730Y310950D02*
X86650D01*
Y305140D01*
X93730D01*
Y310950D01*
D02*
G37*
G36*
X727251Y314664D02*
X725496Y314315D01*
X724007Y313321D01*
X723012Y311832D01*
X722663Y310076D01*
X723012Y308320D01*
X724007Y306832D01*
X725496Y305837D01*
X727251Y305488D01*
X729007Y305837D01*
X730496Y306832D01*
X731490Y308320D01*
X731839Y310076D01*
X731490Y311832D01*
X730496Y313321D01*
X729007Y314315D01*
X727251Y314664D01*
D02*
G37*
G36*
X230810Y348730D02*
X226270D01*
Y344190D01*
X230810D01*
Y348730D01*
D02*
G37*
G36*
X530000Y370588D02*
X528244Y370239D01*
X526756Y369244D01*
X525761Y367756D01*
X525412Y366000D01*
X525761Y364244D01*
X526756Y362756D01*
X526941Y362632D01*
Y360000D01*
X526941Y360000D01*
X527174Y358829D01*
X527837Y357837D01*
X528729Y356945D01*
X526783Y355000D01*
X535000Y346783D01*
X543217Y355000D01*
X535000Y363217D01*
X535000D01*
X534132Y364084D01*
X534239Y364244D01*
X534588Y366000D01*
X534239Y367756D01*
X533244Y369244D01*
X531756Y370239D01*
X530000Y370588D01*
D02*
G37*
G36*
X223730Y348730D02*
X219190D01*
Y344190D01*
X223730D01*
Y348730D01*
D02*
G37*
G36*
X98730D02*
X94190D01*
Y344190D01*
X98730D01*
Y348730D01*
D02*
G37*
G36*
X105810D02*
X101270D01*
Y344190D01*
X105810D01*
Y348730D01*
D02*
G37*
G36*
X98730Y355810D02*
X94190D01*
Y351270D01*
X98730D01*
Y355810D01*
D02*
G37*
G36*
X203730Y359300D02*
X196650D01*
Y353490D01*
X203730D01*
Y359300D01*
D02*
G37*
G36*
X78730Y359300D02*
X71650D01*
Y353490D01*
X78730D01*
Y359300D01*
D02*
G37*
G36*
X230810Y355810D02*
X226270D01*
Y351270D01*
X230810D01*
Y355810D01*
D02*
G37*
G36*
X105810D02*
X101270D01*
Y351270D01*
X105810D01*
Y355810D01*
D02*
G37*
G36*
X223730D02*
X219190D01*
Y351270D01*
X223730D01*
Y355810D01*
D02*
G37*
G36*
X691896Y350020D02*
X690140Y349670D01*
X688652Y348676D01*
X687657Y347187D01*
X687308Y345432D01*
X687657Y343676D01*
X688652Y342187D01*
X690140Y341193D01*
X691896Y340843D01*
X693652Y341193D01*
X695140Y342187D01*
X696135Y343676D01*
X696484Y345432D01*
X696135Y347187D01*
X695140Y348676D01*
X693652Y349670D01*
X691896Y350020D01*
D02*
G37*
G36*
X544878Y353338D02*
X536662Y345122D01*
X544878Y336905D01*
X546221Y338247D01*
D01*
X546212Y338239D01*
X546321Y338217D01*
X547436Y337879D01*
X547761Y336244D01*
X548756Y334756D01*
X550244Y333761D01*
X552000Y333412D01*
X553756Y333761D01*
X555244Y334756D01*
X556239Y336244D01*
X556588Y338000D01*
X556239Y339756D01*
X555244Y341244D01*
X553756Y342239D01*
X552000Y342588D01*
X551869Y343247D01*
X551869D01*
X551855Y343317D01*
Y343317D01*
X551761Y343788D01*
X551149Y343176D01*
D01*
X553095Y345122D01*
X544878Y353338D01*
D02*
G37*
G36*
X218730Y339620D02*
X211650D01*
Y333810D01*
X218730D01*
Y339620D01*
D02*
G37*
G36*
X173350Y336190D02*
X166270D01*
Y330380D01*
X173350D01*
Y336190D01*
D02*
G37*
G36*
X298350Y336190D02*
X291270D01*
Y330380D01*
X298350D01*
Y336190D01*
D02*
G37*
G36*
X163730Y336190D02*
X156650D01*
Y330380D01*
X163730D01*
Y336190D01*
D02*
G37*
G36*
X93730Y339620D02*
X86650D01*
Y333810D01*
X93730D01*
Y339620D01*
D02*
G37*
G36*
X173350Y344540D02*
X166270D01*
Y338730D01*
X173350D01*
Y344540D01*
D02*
G37*
G36*
X508104Y350020D02*
X506348Y349670D01*
X504860Y348676D01*
X503865Y347187D01*
X503516Y345432D01*
X503865Y343676D01*
X504860Y342187D01*
X506348Y341193D01*
X508104Y340843D01*
X509860Y341193D01*
X511348Y342187D01*
X512343Y343676D01*
X512692Y345432D01*
X512343Y347187D01*
X511348Y348676D01*
X509860Y349670D01*
X508104Y350020D01*
D02*
G37*
G36*
X163730Y344540D02*
X156650D01*
Y338730D01*
X163730D01*
Y344540D01*
D02*
G37*
G36*
X288730Y344540D02*
X281650D01*
Y338730D01*
X288730D01*
Y344540D01*
D02*
G37*
G36*
X298350D02*
X291270D01*
Y338730D01*
X298350D01*
Y344540D01*
D02*
G37*
G36*
X475896Y318588D02*
X474140Y318239D01*
X472652Y317244D01*
X471657Y315756D01*
X471308Y314000D01*
X471657Y312244D01*
X472652Y310756D01*
X474140Y309761D01*
X475896Y309412D01*
X476115Y309455D01*
X478042Y307528D01*
Y306258D01*
X476783Y305000D01*
X485000Y296783D01*
X493217Y305000D01*
X485000Y313217D01*
X483638Y311854D01*
X482368D01*
X480441Y313781D01*
X480484Y314000D01*
X480135Y315756D01*
X479140Y317244D01*
X477652Y318239D01*
X475896Y318588D01*
D02*
G37*
G36*
X609000Y267588D02*
X607244Y267239D01*
X605756Y266244D01*
X604761Y264756D01*
X604705Y264472D01*
X597103Y256870D01*
X595878Y258095D01*
X587662Y249878D01*
X595878Y241662D01*
X604095Y249878D01*
X602870Y251103D01*
X610472Y258705D01*
X610756Y258761D01*
X612244Y259756D01*
X613239Y261244D01*
X613588Y263000D01*
X613239Y264756D01*
X612244Y266244D01*
X610756Y267239D01*
X609000Y267588D01*
D02*
G37*
G36*
X735122Y273338D02*
X726905Y265122D01*
X728239Y263788D01*
X728217Y263679D01*
X727879Y262564D01*
X726244Y262239D01*
X724756Y261244D01*
X723761Y259756D01*
X723412Y258000D01*
X723761Y256244D01*
X724756Y254756D01*
X726244Y253761D01*
X728000Y253412D01*
X729756Y253761D01*
X731244Y254756D01*
X732239Y256244D01*
X732564Y257879D01*
X733679Y258217D01*
X733788Y258239D01*
X735122Y256905D01*
X743338Y265122D01*
X735122Y273338D01*
D02*
G37*
G36*
X263770Y260816D02*
Y256270D01*
X266069D01*
Y257500D01*
X265797Y258866D01*
X265023Y260023D01*
X263866Y260797D01*
X263770Y260816D01*
D02*
G37*
G36*
X630122Y378338D02*
X621905Y370122D01*
X623247Y368779D01*
D01*
X623239Y368788D01*
X623217Y368679D01*
X622879Y367564D01*
X621244Y367239D01*
X619756Y366244D01*
X618761Y364756D01*
X618412Y363000D01*
X618761Y361244D01*
X619756Y359756D01*
X621244Y358761D01*
X623000Y358412D01*
X624756Y358761D01*
X626244Y359756D01*
X627239Y361244D01*
X627564Y362879D01*
X628679Y363217D01*
X628781Y363237D01*
Y363237D01*
X628788Y363239D01*
X630122Y361905D01*
X638338Y370122D01*
X630122Y378338D01*
D02*
G37*
G36*
X459878Y268338D02*
X451662Y260122D01*
X459878Y251905D01*
X465036Y257063D01*
X466582D01*
X466706Y256877D01*
X468194Y255883D01*
X469950Y255534D01*
X471706Y255883D01*
X473194Y256877D01*
X474189Y258366D01*
X474538Y260122D01*
X474189Y261877D01*
X473194Y263366D01*
X471706Y264361D01*
X469950Y264710D01*
X468194Y264361D01*
X466706Y263366D01*
X466582Y263181D01*
X465036D01*
X459878Y268338D01*
D02*
G37*
G36*
X441000Y282773D02*
X439244Y282424D01*
X437756Y281430D01*
X436761Y279941D01*
X436412Y278185D01*
X436761Y276429D01*
X437756Y274941D01*
X439244Y273946D01*
X441000Y273597D01*
X441219Y273641D01*
X443321Y271538D01*
X441783Y270000D01*
X450000Y261783D01*
X458217Y270000D01*
X450000Y278217D01*
X447647Y275864D01*
X445545Y277966D01*
X445588Y278185D01*
X445239Y279941D01*
X444244Y281430D01*
X442756Y282424D01*
X441000Y282773D01*
D02*
G37*
G36*
X725122Y283338D02*
X716905Y275122D01*
X718248Y273779D01*
D01*
X718239Y273788D01*
X718217Y273679D01*
X717879Y272564D01*
X716244Y272239D01*
X714756Y271244D01*
X713761Y269756D01*
X713412Y268000D01*
X713761Y266244D01*
X714756Y264756D01*
X716244Y263761D01*
X718000Y263412D01*
X719756Y263761D01*
X721244Y264756D01*
X722239Y266244D01*
X722564Y267879D01*
X723679Y268217D01*
X723781Y268237D01*
Y268237D01*
X723788Y268239D01*
X725122Y266905D01*
X733338Y275122D01*
X725122Y283338D01*
D02*
G37*
G36*
X735000Y283204D02*
X731790Y279994D01*
X735000Y276783D01*
X738210Y279994D01*
X735000Y283204D01*
D02*
G37*
G36*
X706530Y293338D02*
X696517Y283326D01*
X699055Y280787D01*
X698687Y279572D01*
X698550Y279545D01*
X697062Y278550D01*
X696067Y277062D01*
X695718Y275306D01*
X696067Y273550D01*
X697062Y272062D01*
X698550Y271067D01*
X700306Y270718D01*
X702062Y271067D01*
X703550Y272062D01*
X704545Y273550D01*
X704572Y273687D01*
X705787Y274055D01*
X708326Y271517D01*
X718338Y281530D01*
X706530Y293338D01*
D02*
G37*
G36*
X479878Y288338D02*
X471662Y280122D01*
X479878Y271905D01*
X481212Y273239D01*
X481321Y273217D01*
X482436Y272879D01*
X482761Y271244D01*
X483756Y269756D01*
X485244Y268761D01*
X487000Y268412D01*
X488756Y268761D01*
X490244Y269756D01*
X491239Y271244D01*
X491588Y273000D01*
X491239Y274756D01*
X490244Y276244D01*
X488756Y277239D01*
X487000Y277588D01*
X486761Y278788D01*
X488095Y280122D01*
X479878Y288338D01*
D02*
G37*
G36*
X764000Y277588D02*
X762244Y277239D01*
X760756Y276244D01*
X759761Y274756D01*
X759412Y273000D01*
X759455Y272781D01*
X757445Y270771D01*
X755000Y273217D01*
X746783Y265000D01*
X755000Y256783D01*
X763217Y265000D01*
X761771Y266445D01*
X763781Y268455D01*
X764000Y268412D01*
X765756Y268761D01*
X767244Y269756D01*
X768239Y271244D01*
X768588Y273000D01*
X768239Y274756D01*
X767244Y276244D01*
X765756Y277239D01*
X764000Y277588D01*
D02*
G37*
G36*
X163730Y254860D02*
X156650D01*
Y249050D01*
X163730D01*
Y254860D01*
D02*
G37*
G36*
X78730Y249300D02*
X71650D01*
Y243490D01*
X78730D01*
Y249300D01*
D02*
G37*
G36*
X570006Y388210D02*
X566796Y385000D01*
X570006Y381790D01*
X573217Y385000D01*
X570006Y388210D01*
D02*
G37*
G36*
X203730Y249300D02*
X196650D01*
Y243490D01*
X203730D01*
Y249300D01*
D02*
G37*
G36*
X98730Y245810D02*
X94190D01*
Y241270D01*
X98730D01*
Y245810D01*
D02*
G37*
G36*
X105810D02*
X101270D01*
Y241270D01*
X105810D01*
Y245810D01*
D02*
G37*
G36*
X565000Y383204D02*
X561790Y379994D01*
X565000Y376783D01*
X568210Y379994D01*
X565000Y383204D01*
D02*
G37*
G36*
X416180Y258096D02*
X414424Y257747D01*
X412936Y256752D01*
X411941Y255263D01*
X411592Y253508D01*
X411941Y251752D01*
X412936Y250263D01*
X414424Y249269D01*
X416180Y248920D01*
X417936Y249269D01*
X419425Y250263D01*
X420419Y251752D01*
X420768Y253508D01*
X420419Y255263D01*
X419425Y256752D01*
X417936Y257747D01*
X416180Y258096D01*
D02*
G37*
G36*
X288730Y254860D02*
X281650D01*
Y249050D01*
X288730D01*
Y254860D01*
D02*
G37*
G36*
X783820Y258096D02*
X782064Y257747D01*
X780575Y256752D01*
X779581Y255263D01*
X779232Y253508D01*
X779581Y251752D01*
X780575Y250263D01*
X782064Y249269D01*
X783820Y248919D01*
X785576Y249269D01*
X787064Y250263D01*
X788059Y251752D01*
X788408Y253508D01*
X788059Y255263D01*
X787064Y256752D01*
X785576Y257747D01*
X783820Y258096D01*
D02*
G37*
G36*
X610122Y398338D02*
X601905Y390122D01*
X607063Y384964D01*
Y383418D01*
X606877Y383294D01*
X605883Y381806D01*
X605534Y380050D01*
X605883Y378294D01*
X606877Y376806D01*
X608366Y375811D01*
X610122Y375462D01*
X611878Y375811D01*
X613366Y376806D01*
X614361Y378294D01*
X614710Y380050D01*
X614361Y381806D01*
X613366Y383294D01*
X613181Y383418D01*
Y384964D01*
X618338Y390122D01*
X610122Y398338D01*
D02*
G37*
G36*
X539924Y381839D02*
X538168Y381490D01*
X536679Y380496D01*
X535685Y379007D01*
X535336Y377251D01*
X535685Y375495D01*
X536679Y374007D01*
X538168Y373012D01*
X539924Y372663D01*
X541680Y373012D01*
X543168Y374007D01*
X544163Y375495D01*
X544512Y377251D01*
X544163Y379007D01*
X543168Y380496D01*
X541680Y381490D01*
X539924Y381839D01*
D02*
G37*
G36*
X117220Y303730D02*
X108240D01*
Y291500D01*
X117220D01*
Y303730D01*
D02*
G37*
G36*
X128740D02*
X119760D01*
Y291500D01*
X128740D01*
Y303730D01*
D02*
G37*
G36*
X286750Y303730D02*
X277770D01*
Y291500D01*
X286750D01*
Y303730D01*
D02*
G37*
G36*
X253740D02*
X244760D01*
Y291500D01*
X253740D01*
Y303730D01*
D02*
G37*
G36*
X275230D02*
X266250D01*
Y291500D01*
X275230D01*
Y303730D01*
D02*
G37*
G36*
X150230Y303730D02*
X141250D01*
Y291500D01*
X150230D01*
Y303730D01*
D02*
G37*
G36*
X746336Y295730D02*
X743270D01*
Y292665D01*
X743756Y292761D01*
X745244Y293756D01*
X746239Y295244D01*
X746336Y295730D01*
D02*
G37*
G36*
X714994Y301802D02*
X710885Y297694D01*
X715892Y292688D01*
X720000Y296796D01*
X714994Y301802D01*
D02*
G37*
G36*
X740730Y295730D02*
X737664D01*
X737761Y295244D01*
X738756Y293756D01*
X740244Y292761D01*
X740730Y292665D01*
Y295730D01*
D02*
G37*
G36*
X161750Y303730D02*
X152770D01*
Y291500D01*
X161750D01*
Y303730D01*
D02*
G37*
G36*
X727700Y300904D02*
X723592Y296796D01*
X728598Y291790D01*
X732707Y295898D01*
X727700Y300904D01*
D02*
G37*
G36*
X242220Y303730D02*
X233240D01*
Y291500D01*
X242220D01*
Y303730D01*
D02*
G37*
G36*
X740006Y288210D02*
X736796Y285000D01*
X740006Y281790D01*
X743217Y285000D01*
X740006Y288210D01*
D02*
G37*
G36*
X494878Y303338D02*
X486662Y295122D01*
X494878Y286905D01*
X496221Y288248D01*
D01*
X496212Y288239D01*
X496321Y288217D01*
X497436Y287879D01*
X497761Y286244D01*
X498756Y284756D01*
X500244Y283761D01*
X502000Y283412D01*
X503756Y283761D01*
X505244Y284756D01*
X506239Y286244D01*
X506588Y288000D01*
X506239Y289756D01*
X505244Y291244D01*
X503756Y292239D01*
X502000Y292588D01*
X501869Y293247D01*
X501869D01*
X501855Y293317D01*
Y293317D01*
X501761Y293788D01*
X501149Y293176D01*
D01*
X503095Y295122D01*
X494878Y303338D01*
D02*
G37*
G36*
X729994Y288210D02*
X726783Y285000D01*
X729994Y281790D01*
X733204Y285000D01*
X729994Y288210D01*
D02*
G37*
G36*
X753000Y287588D02*
X751244Y287239D01*
X749756Y286244D01*
X748761Y284756D01*
X748412Y283000D01*
X748455Y282781D01*
X746945Y281271D01*
X745000Y283217D01*
X736783Y275000D01*
X745000Y266783D01*
X753217Y275000D01*
X751271Y276945D01*
X752781Y278455D01*
X753000Y278412D01*
X754756Y278761D01*
X756244Y279756D01*
X757239Y281244D01*
X757588Y283000D01*
X757239Y284756D01*
X756244Y286244D01*
X754756Y287239D01*
X753000Y287588D01*
D02*
G37*
G36*
X461612Y304588D02*
X459856Y304239D01*
X458367Y303244D01*
X457373Y301756D01*
X457024Y300000D01*
X457373Y298244D01*
X458367Y296756D01*
X459856Y295761D01*
X461612Y295412D01*
X461830Y295455D01*
X463900Y293386D01*
Y292116D01*
X461783Y290000D01*
X470000Y281783D01*
X478217Y290000D01*
X470000Y298217D01*
X469496Y297712D01*
X468225D01*
X466156Y299781D01*
X466200Y300000D01*
X465851Y301756D01*
X464856Y303244D01*
X463368Y304239D01*
X461612Y304588D01*
D02*
G37*
G36*
X451535Y293451D02*
X449780Y293102D01*
X448291Y292107D01*
X447297Y290619D01*
X446947Y288863D01*
X447297Y287107D01*
X448291Y285619D01*
X449780Y284624D01*
X451535Y284275D01*
X453291Y284624D01*
X454780Y285619D01*
X455774Y287107D01*
X456124Y288863D01*
X455774Y290619D01*
X454780Y292107D01*
X453291Y293102D01*
X451535Y293451D01*
D02*
G37*
G36*
X163730Y364860D02*
X156650D01*
Y359050D01*
X163730D01*
Y364860D01*
D02*
G37*
G36*
X288730Y364860D02*
X281650D01*
Y359050D01*
X288730D01*
Y364860D01*
D02*
G37*
G36*
X574878Y383338D02*
X566662Y375122D01*
X571819Y369964D01*
Y368418D01*
X571634Y368294D01*
X570639Y366806D01*
X570290Y365050D01*
X570639Y363294D01*
X571634Y361806D01*
X573122Y360811D01*
X574878Y360462D01*
X576634Y360811D01*
X578123Y361806D01*
X579117Y363294D01*
X579466Y365050D01*
X579117Y366806D01*
X578123Y368294D01*
X577937Y368418D01*
Y369964D01*
X583095Y375122D01*
X574878Y383338D01*
D02*
G37*
G36*
X721796Y295000D02*
X717688Y290892D01*
X722694Y285885D01*
X726802Y289994D01*
X721796Y295000D01*
D02*
G37*
G36*
X735000Y293217D02*
X731790Y290006D01*
X735000Y286796D01*
X738210Y290006D01*
X735000Y293217D01*
D02*
G37*
%LPD*%
D11*
X1149000Y444030D02*
D03*
Y458000D02*
D03*
X225000Y350000D02*
D03*
Y363970D02*
D03*
Y240000D02*
D03*
Y253970D02*
D03*
X100000Y240000D02*
D03*
Y253970D02*
D03*
X100000Y350000D02*
D03*
Y363970D02*
D03*
X1092000Y356000D02*
D03*
Y342030D02*
D03*
X1060000Y285000D02*
D03*
Y271030D02*
D03*
X1090000Y285000D02*
D03*
Y271030D02*
D03*
X1105000Y235000D02*
D03*
Y248970D02*
D03*
X1075000Y235000D02*
D03*
Y248970D02*
D03*
D13*
X535000Y355000D02*
D03*
X544878Y345122D02*
D03*
X720000Y200000D02*
D03*
X710122Y209878D02*
D03*
X665000Y145000D02*
D03*
X655122Y154878D02*
D03*
X620000Y100000D02*
D03*
X610122Y109878D02*
D03*
X485000Y305000D02*
D03*
X494878Y295122D02*
D03*
X450000Y270000D02*
D03*
X459878Y260122D02*
D03*
X429878Y422622D02*
D03*
X420000Y432500D02*
D03*
X445122Y392878D02*
D03*
X455000Y383000D02*
D03*
X361878Y356122D02*
D03*
X352000Y366000D02*
D03*
X385122Y331878D02*
D03*
X395000Y322000D02*
D03*
X584878Y385122D02*
D03*
X575000Y395000D02*
D03*
X574878Y375122D02*
D03*
X565000Y385000D02*
D03*
X640122Y139878D02*
D03*
X650000Y130000D02*
D03*
X470000Y290000D02*
D03*
X479878Y280122D02*
D03*
X720122Y219878D02*
D03*
X730000Y210000D02*
D03*
X630122Y129878D02*
D03*
X640000Y120000D02*
D03*
X452622Y437378D02*
D03*
X462500Y427500D02*
D03*
D17*
X803122Y243122D02*
D03*
X813000Y253000D02*
D03*
X705000Y315000D02*
D03*
X695122Y305122D02*
D03*
X745000Y275000D02*
D03*
X735122Y265122D02*
D03*
X586000Y240000D02*
D03*
X595878Y249878D02*
D03*
X585000Y95000D02*
D03*
X594878Y104878D02*
D03*
X640000Y380000D02*
D03*
X630122Y370122D02*
D03*
X584878Y114878D02*
D03*
X575000Y105000D02*
D03*
X610122Y390122D02*
D03*
X620000Y400000D02*
D03*
X470000Y210000D02*
D03*
X479878Y219878D02*
D03*
X500000Y180000D02*
D03*
X509878Y189878D02*
D03*
X725122Y275122D02*
D03*
X735000Y285000D02*
D03*
X459878Y239878D02*
D03*
X450000Y230000D02*
D03*
X564878Y134878D02*
D03*
X555000Y125000D02*
D03*
X745122Y255122D02*
D03*
X755000Y265000D02*
D03*
D19*
X953500Y362000D02*
G03*
X955500Y360000I2000J0D01*
G01*
X964892Y356108D02*
G03*
X964889Y356111I-1417J-1412D01*
G01*
X953500Y365666D02*
G03*
X951500Y367666I-2000J0D01*
G01*
X950500D02*
G03*
X948500Y365666I0J-2000D01*
G01*
X976674Y355168D02*
G03*
X973845Y355168I-1414J-1414D01*
G01*
X964892Y353285D02*
G03*
X964892Y356108I-1417J1412D01*
G01*
X964889Y353283D02*
G03*
X964892Y353285I-1414J1414D01*
G01*
X943500Y354334D02*
G03*
X945500Y352334I2000J0D01*
G01*
X943500Y365666D02*
G03*
X941500Y367666I-2000J0D01*
G01*
X940500D02*
G03*
X938500Y365666I0J-2000D01*
G01*
X933500D02*
G03*
X931500Y367666I-2000J0D01*
G01*
X930500D02*
G03*
X928500Y365666I0J-2000D01*
G01*
X923500D02*
G03*
X921500Y367666I-2000J0D01*
G01*
X936500Y352334D02*
G03*
X938500Y354334I0J2000D01*
G01*
X923500D02*
G03*
X925500Y352334I2000J0D01*
G01*
X926500D02*
G03*
X928500Y354334I0J2000D01*
G01*
X983745Y348097D02*
G03*
X980916Y348097I-1414J-1414D01*
G01*
X973398Y340578D02*
G03*
X973400Y340581I-1412J1417D01*
G01*
X933500Y354334D02*
G03*
X935500Y352334I2000J0D01*
G01*
X962297Y350690D02*
G03*
X962297Y347862I1414J-1414D01*
G01*
X946500Y352334D02*
G03*
X948500Y354334I0J2000D01*
G01*
X970572Y340581D02*
G03*
X970574Y340578I1414J1414D01*
G01*
D02*
G03*
X973398Y340578I1412J1417D01*
G01*
X969865Y344116D02*
G03*
X969862Y344114I1414J-1414D01*
G01*
D02*
G03*
X969865Y341288I1417J-1412D01*
G01*
X920500Y367666D02*
G03*
X918500Y365666I0J-2000D01*
G01*
X913500D02*
G03*
X911500Y367666I-2000J0D01*
G01*
X910500D02*
G03*
X908500Y365666I0J-2000D01*
G01*
X913500Y354334D02*
G03*
X915500Y352334I2000J0D01*
G01*
X906500Y360000D02*
G03*
X908500Y362000I0J2000D01*
G01*
X916500Y352334D02*
G03*
X918500Y354334I0J2000D01*
G01*
X898928Y357928D02*
G03*
X898931Y357931I-1412J1417D01*
G01*
X893510Y360523D02*
G03*
X890684Y360525I-1414J-1414D01*
G01*
D02*
G03*
X890682Y360523I1412J-1417D01*
G01*
X889972Y359813D02*
G03*
X889974Y356987I1417J-1412D01*
G01*
Y359816D02*
G03*
X889972Y359813I1414J-1414D01*
G01*
X896102Y357931D02*
G03*
X898928Y357928I1414J1414D01*
G01*
X882903Y352745D02*
G03*
X882903Y349916I1414J-1414D01*
G01*
X897990Y346149D02*
G03*
X897987Y348974I-1417J1412D01*
G01*
Y346146D02*
G03*
X897990Y346149I-1414J1414D01*
G01*
X897278Y345437D02*
G03*
X897280Y345439I-1412J1417D01*
G01*
X894452D02*
G03*
X897278Y345437I1414J1414D01*
G01*
X887381Y338368D02*
G03*
X890209Y338368I1414J1414D01*
G01*
X875832Y345674D02*
G03*
X875832Y342845I1414J-1414D01*
G01*
X877715Y333892D02*
G03*
X874892Y333892I-1412J-1417D01*
G01*
X877718Y333889D02*
G03*
X877715Y333892I-1414J-1414D01*
G01*
X880310Y331297D02*
G03*
X883138Y331297I1414J1414D01*
G01*
X874892Y333892D02*
G03*
X874889Y333889I1412J-1417D01*
G01*
X977381Y351632D02*
G03*
X977381Y354460I-1414J1414D01*
G01*
X984452Y344561D02*
G03*
X984452Y347389I-1414J1414D01*
G01*
X963004Y347155D02*
G03*
X965832Y347155I1414J1414D01*
G01*
X886439Y353452D02*
G03*
X883611Y353452I-1414J-1414D01*
G01*
X879368Y346381D02*
G03*
X876539Y346381I-1414J-1414D01*
G01*
X890916Y339075D02*
G03*
X890916Y341903I-1414J1414D01*
G01*
X883845Y332004D02*
G03*
X883845Y334832I-1414J1414D01*
G01*
X955500Y360000D02*
X961000D01*
X953500Y362000D02*
Y365666D01*
X961000Y360000D02*
X964889Y356111D01*
X964892Y356108D01*
X950500Y367666D02*
X951500D01*
X948500Y354334D02*
Y365666D01*
X964889Y356111D02*
X964892Y356108D01*
X976674Y355168D02*
X977381Y354460D01*
X964889Y353283D02*
X964892Y353285D01*
X945500Y352334D02*
X946500D01*
X940500Y367666D02*
X941500D01*
X933500Y354334D02*
Y365666D01*
X930500Y367666D02*
X931500D01*
X943500Y354334D02*
Y365666D01*
X938500Y354334D02*
Y365666D01*
X928500Y354334D02*
Y365666D01*
X923500Y354334D02*
Y365666D01*
X925500Y352334D02*
X926500D01*
X983745Y348097D02*
X984452Y347389D01*
X969839Y351161D02*
X973845Y355168D01*
X976910Y344090D02*
X980916Y348097D01*
X973400Y340581D02*
X976910Y344090D01*
X973398Y340578D02*
X973400Y340581D01*
X973398Y340578D02*
X973400Y340581D01*
X964889Y353283D02*
X964892Y353285D01*
X962297Y350690D02*
X964889Y353283D01*
X969865Y344116D02*
X973374Y347626D01*
X969862Y344114D02*
X969865Y344116D01*
X962297Y347862D02*
X963004Y347155D01*
X935500Y352334D02*
X936500D01*
X969865Y341288D02*
X970572Y340581D01*
X970574Y340578D01*
X970572Y340581D02*
X970574Y340578D01*
X969862Y344114D02*
X969865Y344116D01*
X920500Y367666D02*
X921500D01*
X918500Y354334D02*
Y365666D01*
X913500Y354334D02*
Y365666D01*
X910500Y367666D02*
X911500D01*
X908500Y362000D02*
Y365666D01*
X915500Y352334D02*
X916500D01*
X901000Y360000D02*
X906500D01*
X898931Y357931D02*
X901000Y360000D01*
X898928Y357928D02*
X898931Y357931D01*
X898928Y357928D02*
X898931Y357931D01*
X893510Y360523D02*
X896102Y357931D01*
X890682Y360523D02*
X890684Y360525D01*
X890682Y360523D02*
X890684Y360525D01*
X889974Y359816D02*
X890682Y360523D01*
X889972Y359813D02*
X889974Y359816D01*
X889972Y359813D02*
X889974Y359816D01*
Y356987D02*
X893981Y352981D01*
X882903Y352745D02*
X883611Y353452D01*
X897987Y346146D02*
X897990Y346149D01*
X897987Y346146D02*
X897990Y346149D01*
X897280Y345439D02*
X897987Y346146D01*
X897278Y345437D02*
X897280Y345439D01*
X890445Y349445D02*
X894452Y345439D01*
X882903Y349916D02*
X886910Y345910D01*
X897278Y345437D02*
X897280Y345439D01*
X890209Y338368D02*
X890916Y339075D01*
X883374Y342374D02*
X887381Y338368D01*
X883138Y331297D02*
X883845Y332004D01*
X875832Y345674D02*
X876539Y346381D01*
X877715Y333892D02*
X877718Y333889D01*
X875832Y342845D02*
X879839Y338839D01*
X874889Y333889D02*
X874892Y333892D01*
X877715D02*
X877718Y333889D01*
X880310Y331297D01*
X874889Y333889D02*
X874892Y333892D01*
X871000Y330000D02*
X874889Y333889D01*
X957500Y450000D02*
Y460500D01*
Y450000D02*
X967500Y440000D01*
X1001030D01*
X475000Y452500D02*
Y465500D01*
X497500D02*
X498000Y465000D01*
X510000D01*
X503740Y425220D02*
X511748Y433228D01*
X503740Y420000D02*
Y425220D01*
X496404Y448573D02*
X502768Y442209D01*
X493646Y448573D02*
X496404D01*
X490000Y444926D02*
X493646Y448573D01*
X474272Y395752D02*
X492385Y413866D01*
X506134D01*
X512500Y407500D01*
X483252Y386772D02*
X496480Y400000D01*
X510000D01*
X492232Y377791D02*
X504441Y390000D01*
X1001470Y185000D02*
X1015000D01*
X975000Y185000D02*
X975000Y185000D01*
X987500D01*
X488204Y191796D02*
X500000Y180000D01*
X488204Y191796D02*
Y193204D01*
X693204Y326796D02*
X705000Y315000D01*
X691796Y326796D02*
X693204D01*
X1026750Y441750D02*
X1121250D01*
X1025000Y440000D02*
X1026750Y441750D01*
X1015000Y440000D02*
X1025000D01*
X437000Y400000D02*
X444122Y392878D01*
X445122D01*
X395000Y433000D02*
X404000D01*
X412000Y425000D01*
X351827Y366000D02*
X352000D01*
X340000Y377827D02*
X351827Y366000D01*
X361878Y356122D02*
X374122D01*
X378000Y360000D01*
X378000D01*
X377000Y340000D02*
Y340000D01*
Y340000D02*
X385122Y331878D01*
X395000Y322000D02*
X396000D01*
X406000Y312000D01*
X980445Y340555D02*
X984452Y344561D01*
X973374Y347626D02*
X977381Y351632D01*
X980445Y340555D02*
X991000Y330000D01*
X965832Y347155D02*
X969839Y351161D01*
X893981Y352981D02*
X897987Y348974D01*
X886439Y353452D02*
X890445Y349445D01*
X886910Y345910D02*
X890916Y341903D01*
X879839Y338839D02*
X883845Y334832D01*
X879368Y346381D02*
X883374Y342374D01*
X461612Y300000D02*
X470000Y291612D01*
X475896Y314000D02*
X484896Y305000D01*
X677000Y187000D02*
X690000Y174000D01*
X635539Y187000D02*
X677000D01*
X624828Y176289D02*
X635539Y187000D01*
X1107970Y342030D02*
X1115000Y335000D01*
X1092000Y342030D02*
X1107970D01*
X1149000Y444030D02*
X1162000Y431030D01*
Y392000D02*
Y431030D01*
X1148000Y378000D02*
X1162000Y392000D01*
X1056777Y378000D02*
X1148000D01*
X1155000Y372000D02*
X1158500Y375500D01*
X1111000Y372000D02*
X1155000D01*
X1158500Y375500D02*
X1160620Y377620D01*
X1175000D01*
X961400Y34600D02*
X974910Y48110D01*
Y71090D01*
X968000Y78000D02*
X974910Y71090D01*
X981970Y78000D02*
X986800Y73170D01*
Y60000D02*
Y73170D01*
X986800Y23830D02*
Y34600D01*
X979970Y17000D02*
X986800Y23830D01*
X676000Y464000D02*
X750000Y390000D01*
X604011Y464000D02*
X676000D01*
X677657Y468000D02*
X751657Y394000D01*
X413354Y279000D02*
X602354Y468000D01*
X677657D01*
X390000Y249989D02*
X604011Y464000D01*
X751657Y394000D02*
X1039000D01*
X750000Y390000D02*
X1047564D01*
X1106250Y429250D02*
X1107000Y430000D01*
X1108825Y363250D02*
X1119146D01*
X1098075Y374000D02*
X1108825Y363250D01*
X1058434Y374000D02*
X1098075D01*
X1058434Y390000D02*
X1100000D01*
X1060000Y386000D02*
X1108000D01*
X876686Y382000D02*
X1052999D01*
X878343Y378000D02*
X1049221D01*
X855952Y355609D02*
X878343Y378000D01*
X880000Y374000D02*
X1047564D01*
X859952Y353952D02*
X880000Y374000D01*
X847952Y358923D02*
X875030Y386000D01*
X847952Y276730D02*
Y358923D01*
X875030Y386000D02*
X1049221D01*
X1056934Y372500D02*
X1058434Y374000D01*
X1049064Y372500D02*
X1056934D01*
X1047564Y374000D02*
X1049064Y372500D01*
X1055277Y376500D02*
X1056777Y378000D01*
X1050721Y376500D02*
X1055277D01*
X1049221Y378000D02*
X1050721Y376500D01*
X1056934Y391500D02*
X1058434Y390000D01*
X1049064Y391500D02*
X1056934D01*
X1047564Y390000D02*
X1049064Y391500D01*
X1056777Y386000D02*
X1060000D01*
X1055277Y387500D02*
X1056777Y386000D01*
X1050721Y387500D02*
X1055277D01*
X1049221Y386000D02*
X1050721Y387500D01*
X1092000Y356000D02*
X1103000D01*
X1154730Y311730D02*
X1155000Y312000D01*
X1142606Y311730D02*
X1154730D01*
X1115000Y335000D02*
X1119730Y339730D01*
X1128666D01*
X1119146Y363250D02*
X1128666Y353730D01*
X1135500Y332594D02*
Y363250D01*
X1128636Y325730D02*
X1135500Y332594D01*
X1039000Y394000D02*
X1050000Y405000D01*
X1100000Y390000D02*
X1120000Y410000D01*
X1108000Y386000D02*
X1118000Y396000D01*
X1128636Y311730D02*
Y325730D01*
X1156730D02*
X1157000Y326000D01*
X1142606Y325730D02*
X1156730D01*
X1142636Y353730D02*
X1154270D01*
X1142636Y339730D02*
Y353730D01*
X1187000Y259000D02*
X1201569Y273569D01*
X938000Y259000D02*
X1187000D01*
X1119859Y420141D02*
X1132000Y408000D01*
X1046141Y420141D02*
X1119859D01*
X1132000Y390000D02*
Y408000D01*
X1118000Y396000D02*
Y400000D01*
X1149000Y458000D02*
Y472000D01*
X1060000Y386000D02*
X1060000Y386000D01*
X817500Y241226D02*
Y246278D01*
X811274Y235000D02*
X817500Y241226D01*
Y246278D02*
X847952Y276730D01*
X851952Y357266D02*
X876686Y382000D01*
X805457Y215114D02*
X855952Y265609D01*
X758000Y162000D02*
X859952Y263952D01*
X801000Y215114D02*
X805457D01*
X855952Y265609D02*
Y355609D01*
X859952Y263952D02*
Y353952D01*
X851952Y272952D02*
Y357266D01*
X823000Y244000D02*
X851952Y272952D01*
X786886Y201000D02*
X801000Y215114D01*
X752000Y201000D02*
X786886D01*
X662000Y111000D02*
X752000Y201000D01*
X662000Y62000D02*
Y111000D01*
X650000Y130000D02*
X656000Y124000D01*
Y119000D02*
Y124000D01*
X743030Y151000D02*
X756030Y138000D01*
X837000D01*
X881000Y182000D01*
Y202000D01*
X938000Y259000D01*
X1114970Y248970D02*
X1115000Y249000D01*
X930000Y171030D02*
Y185000D01*
X945000Y172500D02*
Y185000D01*
X1040000Y414000D02*
X1046141Y420141D01*
X915000Y324030D02*
X916030Y323000D01*
X915000Y324030D02*
Y335000D01*
X960000Y323000D02*
X960000Y323000D01*
X960000Y323000D02*
Y335000D01*
X945000Y324030D02*
X946030Y323000D01*
X945000Y324030D02*
Y335000D01*
X930000Y323000D02*
Y335000D01*
X958970Y172500D02*
X960000Y173530D01*
Y185000D01*
X929970Y171000D02*
X930000Y171030D01*
X915000Y172000D02*
X916000Y171000D01*
X915000Y172000D02*
Y185000D01*
X1060000Y285000D02*
Y296000D01*
X1090000Y285000D02*
Y296000D01*
X1060000Y271030D02*
X1070030D01*
X1098970D02*
X1099000Y271000D01*
X1090000Y271030D02*
X1098970D01*
X1084970Y248970D02*
X1085000Y249000D01*
X1075000Y248970D02*
X1084970D01*
X1105000D02*
X1114970D01*
X1105000Y224000D02*
X1105000Y224000D01*
Y235000D01*
X1075000Y224000D02*
X1075000Y224000D01*
Y235000D01*
X1050000Y405000D02*
Y412000D01*
X397759Y279000D02*
X413354D01*
X397000Y279759D02*
X397759Y279000D01*
X728970Y151000D02*
X743030D01*
X715000Y146000D02*
X725000Y136000D01*
X715000Y146000D02*
Y151000D01*
X765000D02*
X769000Y155000D01*
X757000Y151000D02*
X765000D01*
X856970Y192000D02*
X867000D01*
X834000D02*
X843000D01*
X725000Y136000D02*
Y136778D01*
X803122Y243122D02*
X811243Y235000D01*
X811274D01*
X555000Y116000D02*
Y125000D01*
X551000Y112000D02*
X555000Y116000D01*
X584878Y385122D02*
X592000Y392243D01*
X530784Y35942D02*
X557226Y9500D01*
X530784Y35942D02*
Y75784D01*
X533000Y78000D01*
X534784Y37599D02*
X558883Y13500D01*
X534784Y37599D02*
Y68784D01*
X539000Y73000D01*
X722500Y13500D02*
X757000Y48000D01*
X558883Y13500D02*
X722500D01*
X729500Y9500D02*
X767500Y47500D01*
X557226Y9500D02*
X729500D01*
X717685Y17500D02*
X747598Y47413D01*
X560540Y17500D02*
X717685D01*
X538784Y39256D02*
X560540Y17500D01*
X712000Y22000D02*
X739000Y49000D01*
X562686Y22000D02*
X712000D01*
X544500Y40186D02*
X562686Y22000D01*
X706402Y26000D02*
X730402Y50000D01*
X564343Y26000D02*
X706402D01*
X550000Y40343D02*
X564343Y26000D01*
X700958Y30555D02*
X721958Y51555D01*
X566456Y30555D02*
X700958D01*
X559799Y37212D02*
X566456Y30555D01*
X559799Y37212D02*
Y48055D01*
X550000Y40343D02*
Y51000D01*
X555000Y56000D01*
X695603Y35000D02*
X711603Y51000D01*
X572000Y35000D02*
X695603D01*
X567500Y39500D02*
X572000Y35000D01*
X567500Y39500D02*
Y50000D01*
X711603Y51000D02*
X712000D01*
X721958Y51555D02*
X722456D01*
X538784Y39256D02*
Y61599D01*
X544598Y67413D01*
X648000Y112000D02*
X649612D01*
X640000Y120000D02*
X648000Y112000D01*
X705000Y315000D02*
X713000Y323000D01*
X641612Y380000D02*
X649612Y388000D01*
X623000Y363000D02*
X630122Y370122D01*
X544500Y40186D02*
Y56500D01*
X550000Y62000D01*
X442000Y222000D02*
X450000Y230000D01*
X465000Y205000D02*
X470000Y210000D01*
X460000Y205000D02*
X465000D01*
X574886Y87000D02*
X577000D01*
X585000Y95000D01*
X568744D02*
X575000Y101256D01*
Y105000D01*
X492000Y173000D02*
X493000D01*
X500000Y180000D01*
X441000Y278185D02*
X449185Y270000D01*
X450000D01*
X470000Y290000D02*
Y291612D01*
X484896Y305000D02*
X485000D01*
X530000Y360000D02*
Y366000D01*
Y360000D02*
X535000Y355000D01*
X557000Y393000D02*
X565000Y385000D01*
Y385000D02*
Y385000D01*
Y401673D02*
X571673Y395000D01*
X575000D01*
X620000Y400815D02*
X628185Y409000D01*
X620000Y400000D02*
Y400815D01*
X640000Y380000D02*
X641612D01*
X735000Y285000D02*
X742000Y292000D01*
Y297000D01*
X745000Y275000D02*
X753000Y283000D01*
X756000Y265000D02*
X764000Y273000D01*
X755000Y265000D02*
X756000D01*
X738000Y202000D02*
X739000D01*
X730000Y210000D02*
X738000Y202000D01*
X721000Y200000D02*
X730000Y191000D01*
X673000Y137000D02*
X674000D01*
X665000Y145000D02*
X666000D01*
X674000Y137000D01*
X564878Y134878D02*
X572000Y142000D01*
X584878Y114878D02*
Y124950D01*
X610122Y109878D02*
X617243Y117000D01*
X620050Y129878D02*
X630122D01*
X633000Y147000D02*
X640122Y139878D01*
X655122Y154878D02*
X662243Y162000D01*
X700050Y209878D02*
X710122D01*
X713000Y227000D02*
X720122Y219878D01*
X720306Y244694D02*
X727428Y237572D01*
X745122Y245050D02*
Y255122D01*
X728000Y258000D02*
X735122Y265122D01*
X718000Y268000D02*
X725122Y275122D01*
X700306Y275306D02*
X707428Y282428D01*
X688000Y298000D02*
X695122Y305122D01*
X670306Y319549D02*
X677428Y312428D01*
X610122Y380050D02*
Y390122D01*
X574878Y365050D02*
Y375122D01*
X544878Y345122D02*
X552000Y338000D01*
X494878Y295122D02*
X502000Y288000D01*
X479878Y280122D02*
X487000Y273000D01*
X459878Y260122D02*
X469950D01*
X459878Y239878D02*
X469950D01*
X479878Y219878D02*
X487000Y227000D01*
X502572Y207572D02*
X509694Y214694D01*
X509878Y189878D02*
X517000Y182757D01*
X137500Y335000D02*
Y342500D01*
X137500Y342500D02*
X145000D01*
X130000Y350000D02*
X132500Y347500D01*
X137500Y342500D01*
X132500Y347500D02*
X145000D01*
X132500Y352500D02*
Y365000D01*
X130000Y350000D02*
X132500Y352500D01*
X127500D02*
Y365000D01*
X115000Y352500D02*
X127500D01*
X130000Y350000D01*
X122500Y365000D02*
X123000D01*
X89030Y363970D02*
X100000D01*
X115000Y357500D02*
Y363970D01*
X116000Y365000D02*
X122500D01*
X137500D02*
Y375500D01*
X115000Y365000D02*
Y371000D01*
X100000Y363970D02*
X115000D01*
X114000Y364000D02*
X115000D01*
X116000Y365000D01*
X240000Y254000D02*
X241000Y255000D01*
X239000Y254000D02*
X240000D01*
X225000Y253970D02*
X240000D01*
Y255000D02*
Y261000D01*
X241000Y255000D02*
X247500D01*
X240000Y247500D02*
Y253970D01*
X214030D02*
X225000D01*
X247500Y255000D02*
X248000D01*
X240000Y242500D02*
X252500D01*
Y255000D01*
X262500Y242500D02*
Y255000D01*
X257500Y237500D02*
X270000D01*
X257500D02*
X262500Y232500D01*
X270000D01*
X262500Y225000D02*
Y232500D01*
X240000Y364000D02*
X241000Y365000D01*
X239000Y364000D02*
X240000D01*
X225000Y363970D02*
X240000D01*
X241000Y365000D02*
X247500D01*
X240000Y357500D02*
Y363970D01*
X214030D02*
X225000D01*
X240000Y352500D02*
X252500D01*
X257500Y347500D02*
X270000D01*
X257500D02*
X262500Y342500D01*
X270000D01*
X262500Y335000D02*
Y342500D01*
X137500Y255000D02*
Y265500D01*
X115000Y247500D02*
Y253970D01*
X132500Y242500D02*
Y255000D01*
Y237500D02*
X145000D01*
X132500D02*
X137500Y232500D01*
X145000D01*
X137500Y225000D02*
Y232500D01*
X257500Y255000D02*
Y265500D01*
X257500Y265500D01*
X205000Y263000D02*
X214030Y253970D01*
X247500Y365000D02*
X252500D01*
X257500D01*
X262500D01*
X205000Y373000D02*
X214030Y363970D01*
X114000Y254000D02*
X115000D01*
Y261000D01*
X122500Y247250D02*
Y255000D01*
Y247250D02*
X124750Y245000D01*
X115000Y242500D02*
X127500D01*
Y255000D02*
Y265500D01*
X89030Y253970D02*
X100000D01*
X115000D01*
X80000Y263000D02*
X89030Y253970D01*
X80000Y373000D02*
X89030Y363970D01*
X594878Y104878D02*
X602000Y97757D01*
X620000Y100000D02*
X627000Y93000D01*
Y91000D02*
Y93000D01*
X73970Y81000D02*
X85400Y69570D01*
Y60000D02*
Y69570D01*
X45000Y66000D02*
X60000Y81000D01*
X45000Y49600D02*
Y66000D01*
Y49600D02*
X60000Y34600D01*
Y15000D02*
Y34600D01*
X73970Y15000D02*
X83000D01*
X85400Y17400D01*
Y34600D01*
X1201569Y273569D02*
Y338819D01*
X1208150Y345400D01*
X1220000D01*
X392866Y24238D02*
X407866D01*
X427366D02*
X443396D01*
X457366D02*
X472366D01*
D20*
X165000Y215000D02*
X173000Y207000D01*
X165000Y215000D02*
Y227460D01*
X730000Y210000D02*
X741796Y221796D01*
Y223204D01*
X455000Y383000D02*
X468000Y370000D01*
X961400Y34600D02*
X966000Y30000D01*
Y17000D02*
Y30000D01*
X628185Y409000D02*
X647000Y427815D01*
Y457000D01*
X805000Y260000D02*
X812000Y253000D01*
X813000D01*
D25*
X1186030Y474197D02*
D03*
X1213970D02*
D03*
X1227940Y450000D02*
D03*
X1213970Y425803D02*
D03*
X1186030D02*
D03*
X1172060Y450000D02*
D03*
X1220000Y370800D02*
D03*
Y345400D02*
D03*
X36030Y474197D02*
D03*
X63970D02*
D03*
X77940Y450000D02*
D03*
X63970Y425803D02*
D03*
X36030D02*
D03*
X22060Y450000D02*
D03*
X1203970Y134997D02*
D03*
X1176030D02*
D03*
X1162060Y110800D02*
D03*
X1176030Y86603D02*
D03*
X1203970D02*
D03*
X1217940Y110800D02*
D03*
X303970Y134997D02*
D03*
X276030D02*
D03*
X262060Y110800D02*
D03*
X276030Y86603D02*
D03*
X303970D02*
D03*
X317940Y110800D02*
D03*
D26*
X1200000Y450000D02*
D03*
X50000D02*
D03*
X1190000Y110800D02*
D03*
X290000Y110800D02*
D03*
D27*
X1122000Y475000D02*
D03*
X1096600Y475000D02*
D03*
X1071200Y475000D02*
D03*
X1020400Y475000D02*
D03*
X1045800Y475000D02*
D03*
X197624Y444595D02*
D03*
X121424Y444595D02*
D03*
X223023Y469995D02*
D03*
X223023Y444595D02*
D03*
X197624Y469995D02*
D03*
X172223Y469995D02*
D03*
X146823Y469995D02*
D03*
X146823Y444595D02*
D03*
X172223Y444595D02*
D03*
X248424Y444595D02*
D03*
X273824Y469995D02*
D03*
Y444595D02*
D03*
X299223Y469995D02*
D03*
Y444595D02*
D03*
X324623Y469995D02*
D03*
Y444595D02*
D03*
X350023Y469995D02*
D03*
Y444595D02*
D03*
X248424Y469995D02*
D03*
X187000Y34600D02*
D03*
X288600Y60000D02*
D03*
Y34600D02*
D03*
X263200Y60000D02*
D03*
Y34600D02*
D03*
X237800Y60000D02*
D03*
Y34600D02*
D03*
X212400Y60000D02*
D03*
Y34600D02*
D03*
X187000Y60000D02*
D03*
X110800Y60000D02*
D03*
X85400Y60000D02*
D03*
X85400Y34600D02*
D03*
X110800Y34600D02*
D03*
X136200Y34600D02*
D03*
X161600Y60000D02*
D03*
X161600Y34600D02*
D03*
X60000Y60000D02*
D03*
X136200Y60000D02*
D03*
X1088400Y34600D02*
D03*
X1190000Y60000D02*
D03*
Y34600D02*
D03*
X1164600Y60000D02*
D03*
Y34600D02*
D03*
X1139200Y60000D02*
D03*
Y34600D02*
D03*
X1113800Y60000D02*
D03*
Y34600D02*
D03*
X1088400Y60000D02*
D03*
X1012200Y60000D02*
D03*
X986800Y60000D02*
D03*
X986800Y34600D02*
D03*
X1012200Y34600D02*
D03*
X1037600Y34600D02*
D03*
X1063000Y60000D02*
D03*
X1063000Y34600D02*
D03*
X961400Y60000D02*
D03*
X1037600Y60000D02*
D03*
D28*
X995000Y475000D02*
D03*
D29*
X1220000Y320000D02*
D03*
D30*
X121424Y469995D02*
D03*
X60000Y34600D02*
D03*
X961400Y34600D02*
D03*
D31*
X938000Y479500D02*
D03*
X453000Y484500D02*
D03*
X475000Y452500D02*
D03*
X510000Y465000D02*
D03*
X392866Y24238D02*
D03*
X520000Y450000D02*
D03*
X503740Y420000D02*
D03*
X490000Y444926D02*
D03*
X512500Y407500D02*
D03*
X510000Y400000D02*
D03*
X504441Y390000D02*
D03*
X1015000Y185000D02*
D03*
X472366Y24238D02*
D03*
X1121250Y441750D02*
D03*
X190000Y362500D02*
D03*
X137500Y375500D02*
D03*
X381000Y419000D02*
D03*
X505000Y406000D02*
D03*
X436366Y475000D02*
D03*
X437000Y400000D02*
D03*
X442500Y427500D02*
D03*
X395000Y433000D02*
D03*
X378000Y360000D02*
D03*
X377000Y340000D02*
D03*
X406000Y312000D02*
D03*
X452000Y350000D02*
D03*
X468000Y370000D02*
D03*
X991000Y330000D02*
D03*
X871000D02*
D03*
X461612Y300000D02*
D03*
X451535Y288863D02*
D03*
X441000Y278185D02*
D03*
X475896Y314000D02*
D03*
X673539Y225000D02*
D03*
X577000Y249000D02*
D03*
X609000Y263000D02*
D03*
X690000Y174000D02*
D03*
X374000Y293220D02*
D03*
X190000Y250462D02*
D03*
X185000Y240462D02*
D03*
X1162000Y416000D02*
D03*
X1175000Y377620D02*
D03*
X647000Y457000D02*
D03*
X1106250Y429250D02*
D03*
X1052999Y382000D02*
D03*
X1074000Y414000D02*
D03*
X1103000Y356000D02*
D03*
X1155000Y312000D02*
D03*
X1135500Y363250D02*
D03*
X1157000Y326000D02*
D03*
X1154270Y353730D02*
D03*
X1111000Y372000D02*
D03*
X1118000Y400000D02*
D03*
X1149000Y472000D02*
D03*
X1120000Y410000D02*
D03*
X1132000Y390000D02*
D03*
X656000Y119000D02*
D03*
X930000Y185000D02*
D03*
X945000Y185000D02*
D03*
X960000D02*
D03*
X1115000Y249000D02*
D03*
X975000Y185000D02*
D03*
X915000D02*
D03*
X1040000Y414000D02*
D03*
X1070030Y271030D02*
D03*
X1099000Y271000D02*
D03*
X1085000Y249000D02*
D03*
X1050000Y412000D02*
D03*
X397000Y279759D02*
D03*
X867000Y192000D02*
D03*
X834000D02*
D03*
X769000Y155000D02*
D03*
X662000Y62000D02*
D03*
X725000Y136000D02*
D03*
X758000Y162000D02*
D03*
X823000Y244000D02*
D03*
X805000Y260000D02*
D03*
X811274Y235000D02*
D03*
X390000Y249989D02*
D03*
X310000Y305000D02*
D03*
X295000D02*
D03*
Y320000D02*
D03*
X310000D02*
D03*
Y335000D02*
D03*
Y350000D02*
D03*
X550000Y150000D02*
D03*
X540000Y160000D02*
D03*
X560000D02*
D03*
X550000Y170000D02*
D03*
X570000D02*
D03*
X560000Y180000D02*
D03*
X540000Y150000D02*
D03*
X550000Y160000D02*
D03*
X560000Y170000D02*
D03*
X570000Y180000D02*
D03*
X592000Y392243D02*
D03*
X492000Y173000D02*
D03*
X890000Y197500D02*
D03*
X1047498Y225000D02*
D03*
X1060000Y224000D02*
D03*
X1075000Y224000D02*
D03*
X1090000Y224000D02*
D03*
X1105000D02*
D03*
X1115000Y185000D02*
D03*
Y335000D02*
D03*
X1105000Y296000D02*
D03*
X1090000D02*
D03*
X1075000D02*
D03*
X1060000D02*
D03*
X1045000D02*
D03*
X975000Y335000D02*
D03*
X960000Y335000D02*
D03*
X930000D02*
D03*
X945000D02*
D03*
X915000Y335000D02*
D03*
X894998Y312499D02*
D03*
X559799Y48055D02*
D03*
X722456Y51555D02*
D03*
X544598Y67413D02*
D03*
X747598Y47413D02*
D03*
X539000Y73000D02*
D03*
X757000Y48000D02*
D03*
X712000Y51000D02*
D03*
X730402Y50000D02*
D03*
X739000Y49000D02*
D03*
X716645Y179317D02*
D03*
X663612Y126284D02*
D03*
X649612Y112000D02*
D03*
X783820Y253508D02*
D03*
X713000Y323000D02*
D03*
X727251Y310076D02*
D03*
X656541Y380787D02*
D03*
X649612Y388000D02*
D03*
X623000Y363000D02*
D03*
X603508Y433820D02*
D03*
X555000Y56000D02*
D03*
X550000Y62000D02*
D03*
X533000Y78000D02*
D03*
X767500Y47500D02*
D03*
X567500Y50000D02*
D03*
X543459Y119213D02*
D03*
X551000Y112000D02*
D03*
X752000Y214673D02*
D03*
X442000Y222000D02*
D03*
X460000Y205000D02*
D03*
X448000Y214673D02*
D03*
X472749Y189924D02*
D03*
X508104Y154569D02*
D03*
X695432Y158104D02*
D03*
X691896Y345432D02*
D03*
X539924Y377251D02*
D03*
X508104Y345432D02*
D03*
X486891Y324218D02*
D03*
X416180Y253508D02*
D03*
X600000Y70000D02*
D03*
X574886Y87000D02*
D03*
X568744Y95000D02*
D03*
X530000Y366000D02*
D03*
X557000Y393000D02*
D03*
X565000Y401673D02*
D03*
X628185Y409000D02*
D03*
X742000Y297000D02*
D03*
X753000Y283000D02*
D03*
X764000Y273000D02*
D03*
X739000Y202000D02*
D03*
X730000Y191000D02*
D03*
X674000Y137000D02*
D03*
X572000Y142000D02*
D03*
X633000Y147000D02*
D03*
X662243Y162000D02*
D03*
X700050Y209878D02*
D03*
X713000Y227000D02*
D03*
X720306Y244694D02*
D03*
X745122Y245050D02*
D03*
X728000Y258000D02*
D03*
X718000Y268000D02*
D03*
X700306Y275306D02*
D03*
X688000Y298000D02*
D03*
X670306Y319549D02*
D03*
X610122Y380050D02*
D03*
X574878Y365050D02*
D03*
X552000Y338000D02*
D03*
X502000Y288000D02*
D03*
X487000Y273000D02*
D03*
X469950Y260122D02*
D03*
Y239878D02*
D03*
X487000Y227000D02*
D03*
X509694Y214694D02*
D03*
X517000Y182757D02*
D03*
X115000Y371000D02*
D03*
X240000Y261000D02*
D03*
X115000Y261000D02*
D03*
X137500Y265500D02*
D03*
X257500Y265500D02*
D03*
X127500Y265500D02*
D03*
X75000Y205000D02*
D03*
Y190000D02*
D03*
X90000D02*
D03*
X170000Y270000D02*
D03*
X155000D02*
D03*
X115000Y275000D02*
D03*
X130000D02*
D03*
X60000Y240000D02*
D03*
X65000Y250000D02*
D03*
X75000Y230000D02*
D03*
Y220000D02*
D03*
X80000Y225000D02*
D03*
X75000Y340000D02*
D03*
X80000Y335000D02*
D03*
X75000Y330000D02*
D03*
Y315000D02*
D03*
Y300000D02*
D03*
X90000D02*
D03*
X170000Y375000D02*
D03*
X155000D02*
D03*
X130000Y385000D02*
D03*
X115000D02*
D03*
X295000Y265000D02*
D03*
X280000D02*
D03*
X240000Y275000D02*
D03*
X255000D02*
D03*
X200000Y205000D02*
D03*
Y190000D02*
D03*
X215000D02*
D03*
X200000Y230000D02*
D03*
X205000Y225000D02*
D03*
X200000Y220000D02*
D03*
Y340000D02*
D03*
X205000Y335000D02*
D03*
X200000Y330000D02*
D03*
Y315000D02*
D03*
Y300000D02*
D03*
X215000D02*
D03*
X295000Y375000D02*
D03*
X275000D02*
D03*
X255000Y385000D02*
D03*
X240000D02*
D03*
X185000Y352500D02*
D03*
X60000Y350000D02*
D03*
X65000Y360000D02*
D03*
X617243Y117000D02*
D03*
X620050Y129878D02*
D03*
X584878Y124950D02*
D03*
X602000Y97757D02*
D03*
X627000Y91000D02*
D03*
X340000Y377827D02*
D03*
D32*
X130000Y240000D02*
D03*
X130000Y350000D02*
D03*
X255000D02*
D03*
Y240000D02*
D03*
D33*
X957500Y460500D02*
D03*
Y479500D02*
D03*
X497500Y465500D02*
D03*
Y484500D02*
D03*
X475000Y465500D02*
D03*
Y484500D02*
D03*
D34*
X502768Y442209D02*
D03*
X511748Y433228D02*
D03*
X520728Y424248D02*
D03*
X529709Y415268D02*
D03*
X465291Y404732D02*
D03*
X474272Y395752D02*
D03*
X483252Y386772D02*
D03*
X492232Y377791D02*
D03*
D35*
X1142636Y353730D02*
D03*
X1128666D02*
D03*
X1128636Y311730D02*
D03*
X1142606Y311730D02*
D03*
X1128636Y325730D02*
D03*
X1142606D02*
D03*
X1142636Y339730D02*
D03*
X1128666D02*
D03*
X73970Y81000D02*
D03*
X60000D02*
D03*
X73970Y15000D02*
D03*
X60000D02*
D03*
X979970Y17000D02*
D03*
X966000D02*
D03*
X981970Y78000D02*
D03*
X968000D02*
D03*
X916000Y171000D02*
D03*
X929970D02*
D03*
X930000Y323000D02*
D03*
X916030D02*
D03*
X960000D02*
D03*
X946030D02*
D03*
X987500Y185000D02*
D03*
X1001470D02*
D03*
X945000Y172500D02*
D03*
X958970D02*
D03*
X743030Y151000D02*
D03*
X757000D02*
D03*
X856970Y192000D02*
D03*
X843000D02*
D03*
X728970Y151000D02*
D03*
X715000D02*
D03*
X1001030Y440000D02*
D03*
X1015000D02*
D03*
X443396Y24238D02*
D03*
X457366D02*
D03*
D36*
X677428Y312428D02*
D03*
X691796Y326796D02*
D03*
X721796Y296796D02*
D03*
X707428Y282428D02*
D03*
X488204Y193204D02*
D03*
X502572Y207572D02*
D03*
D37*
X622000Y247000D02*
D03*
D38*
X658770Y210230D02*
D03*
X624828Y176289D02*
D03*
X588059Y213059D02*
D03*
D39*
X276500Y305000D02*
D03*
X243490D02*
D03*
X276500Y195000D02*
D03*
X243490D02*
D03*
X151500Y195000D02*
D03*
X118490D02*
D03*
X151500Y305000D02*
D03*
X118490D02*
D03*
D40*
X115000Y232500D02*
D03*
Y237500D02*
D03*
Y242500D02*
D03*
Y247500D02*
D03*
X145000D02*
D03*
Y242500D02*
D03*
Y237500D02*
D03*
Y232500D02*
D03*
X115000Y342500D02*
D03*
Y347500D02*
D03*
Y352500D02*
D03*
Y357500D02*
D03*
X145000D02*
D03*
Y352500D02*
D03*
Y347500D02*
D03*
Y342500D02*
D03*
X240000D02*
D03*
Y347500D02*
D03*
Y352500D02*
D03*
Y357500D02*
D03*
X270000D02*
D03*
Y352500D02*
D03*
Y347500D02*
D03*
Y342500D02*
D03*
X240000Y232500D02*
D03*
Y237500D02*
D03*
Y242500D02*
D03*
Y247500D02*
D03*
X270000D02*
D03*
Y242500D02*
D03*
Y237500D02*
D03*
Y232500D02*
D03*
D41*
X122500Y255000D02*
D03*
X127500D02*
D03*
X132500D02*
D03*
X137500D02*
D03*
Y225000D02*
D03*
X132500D02*
D03*
X127500D02*
D03*
X122500D02*
D03*
X122500Y365000D02*
D03*
X127500D02*
D03*
X132500D02*
D03*
X137500D02*
D03*
Y335000D02*
D03*
X132500D02*
D03*
X127500D02*
D03*
X122500D02*
D03*
X247500Y365000D02*
D03*
X252500D02*
D03*
X257500D02*
D03*
X262500D02*
D03*
Y335000D02*
D03*
X257500D02*
D03*
X252500D02*
D03*
X247500D02*
D03*
Y255000D02*
D03*
X252500D02*
D03*
X257500D02*
D03*
X262500D02*
D03*
Y225000D02*
D03*
X257500D02*
D03*
X252500D02*
D03*
X247500D02*
D03*
D42*
X130000Y240000D02*
D03*
X130000Y350000D02*
D03*
X255000D02*
D03*
Y240000D02*
D03*
D43*
X80000Y372540D02*
D03*
Y352220D02*
D03*
X80000Y262540D02*
D03*
Y242220D02*
D03*
X205000Y262540D02*
D03*
Y242220D02*
D03*
X290000Y337460D02*
D03*
Y357780D02*
D03*
X220000Y222540D02*
D03*
Y202220D02*
D03*
X165000Y337460D02*
D03*
Y357780D02*
D03*
X205000Y372540D02*
D03*
Y352220D02*
D03*
X220000Y332540D02*
D03*
Y312220D02*
D03*
X290000Y227460D02*
D03*
Y247780D02*
D03*
X95000Y332540D02*
D03*
Y312220D02*
D03*
X95000Y222540D02*
D03*
Y202220D02*
D03*
X165000Y227460D02*
D03*
Y247780D02*
D03*
D44*
X741796Y223204D02*
D03*
X727428Y237572D02*
D03*
D45*
X914460Y204000D02*
D03*
X934780D02*
D03*
D46*
X426866Y24238D02*
D03*
X407866D02*
D03*
D47*
X938000Y479500D02*
X957500D01*
X475000Y484500D02*
X497500D01*
X453000D02*
X475000D01*
X455000Y415023D02*
X465291Y404732D01*
X455000Y415023D02*
Y420000D01*
X462500Y427500D01*
Y427500D01*
X442500D02*
X442743D01*
X452622Y437378D01*
X520000Y450000D02*
X527500Y442500D01*
Y431020D02*
Y442500D01*
X520728Y424248D02*
X527500Y431020D01*
X520728Y424248D02*
X529709Y415268D01*
X340000Y301000D02*
Y354000D01*
X166000Y290000D02*
Y319000D01*
Y290000D02*
X172000Y284000D01*
X323000D01*
X340000Y301000D01*
Y354000D02*
X352000Y366000D01*
X353000D01*
X412000Y425000D01*
X658770Y210230D02*
X673539Y225000D01*
X577000Y249000D02*
X586000Y240000D01*
X595878Y249878D02*
X609000Y263000D01*
X588059Y214059D02*
X600000Y226000D01*
X588059Y213059D02*
Y214059D01*
X621000Y247000D02*
X622000D01*
X600000Y226000D02*
X621000Y247000D01*
X586000Y240000D02*
X600000Y226000D01*
X915000Y185000D02*
Y203460D01*
X896500Y204000D02*
X914460D01*
X890000Y197500D02*
X896500Y204000D01*
X914460D02*
X915000Y203460D01*
X934780Y189780D02*
Y204000D01*
X930000Y185000D02*
X934780Y189780D01*
X412000Y425000D02*
X419500Y432500D01*
X420000D01*
X429878Y422622D02*
X434757Y427500D01*
X442500D01*
D48*
X560000Y170000D02*
X570000Y180000D01*
X555000Y165000D02*
X560000Y170000D01*
X540000Y150000D02*
X555000Y165000D01*
X380000Y190000D02*
X440000Y250000D01*
X302000Y190000D02*
X380000D01*
X173000Y182250D02*
X198250Y157000D01*
X173000Y182250D02*
Y207000D01*
X516750Y126750D02*
X540000Y150000D01*
X480000Y126750D02*
X516750D01*
X449750Y157000D02*
X480000Y126750D01*
X198250Y157000D02*
X449750D01*
M02*
