M48
;Layer_Color=9474304
;FILE_FORMAT=4:4
METRIC,LZ
;TYPE=PLATED
T1F00S00C0.3000
T2F00S00C0.3300
T3F00S00C0.7620
T4F00S00C1.0160
T5F00S00C3.1000
%
T01
X00392866Y00024238
X00472366
X00215Y0019
X002
Y00205
Y0022
X00205Y00225
X002Y0023
X00185Y00240462
X0019Y00250462
X0017Y0027
X00155
X001375Y002655
X001275
X0013Y00275
X00115
Y00261
X00065Y0025
X0006Y0024
X00075Y0023
X0008Y00225
X00075Y0022
Y00205
Y0019
X0009
X0009Y003
X00075
Y00315
Y0033
Y0034
X0008Y00335
X0006Y0035
X00065Y0036
X00115Y00371
Y00385
X0013
X001375Y003755
X00155Y00375
X0017
X0019Y003625
X00185Y003525
X002Y0034
Y0033
X00205Y00335
X002Y00315
Y003
X00215
X0024Y00275
X0024Y00261
X002575Y002655
X00255Y00275
X0028Y00265
X00275Y00375
X00255Y00385
X0024
X00295Y00375
X0031Y0035
Y00335
Y0032
X00295
Y00305
X0031
X00295Y00265
X00374Y0029322
X00397Y00279759
X0039Y00249989
X0041618Y00253508
X00441Y00278185
X00451535Y00288863
X00461612Y003
X00475896Y00314
X00486891Y00324218
X00508104Y00345432
X0053Y00366
X00539924Y00377251
X00557Y00393
X00565Y00401673
X00592Y00392243
X00610122Y0038005
X00623Y00363
X00574878Y0036505
X00552Y00338
X00504441Y0039
X0051Y004
X005125Y004075
X00505Y00406
X0050374Y0042
X004425Y004275
X00437Y004
X00468Y0037
X00452Y0035
X00378Y0036
X00377Y0034
X00406Y00312
X0046995Y00260122
Y00239878
X00487Y00227
X00509694Y00214694
X00517Y00182757
X00492Y00173
X00508104Y00154569
X0054Y0015
X0055
Y0016
Y0017
X0056
Y0016
Y0018
X0057
Y0017
X00572Y00142
X00584878Y0012495
X0062005Y00129878
X00617243Y00117
X00602Y00097757
X006Y0007
X00574886Y00087
X00568744Y00095
X00551Y00112
X00543459Y00119213
X0054Y0016
X00539Y00073
X00533Y00078
X00544598Y00067413
X0055Y00062
X00555Y00056
X00559799Y00048055
X005675Y0005
X00627Y00091
X00649612Y00112
X00656Y00119
X00663612Y00126284
X00674Y00137
X00662243Y00162
X00633Y00147
X00662Y00062
X00673539Y00225
X00670306Y00319549
X00656541Y00380787
X00649612Y00388
X00628185Y00409
X00609Y00263
X00577Y00249
X00487Y00273
X00502Y00288
X0046Y00205
X00448Y00214673
X00442Y00222
X00472749Y00189924
X0034Y00377827
X00381Y00419
X00691896Y00345432
X00713Y00323
X00727251Y00310076
X00742Y00297
X00753Y00283
X00764Y00273
X0078382Y00253508
X00805Y0026
X00811274Y00235
X00823Y00244
X00834Y00192
X00867
X0089Y001975
X00915Y00185
X0093Y00185
X00945Y00185
X0096
X00975
X01015Y00185
X01047498Y00225
X0106Y00224
X01075Y00224
X0107003Y0027103
X01075Y00296
X0106
X01045
X00991Y0033
X00975Y00335
X0096Y00335
X00945
X0093
X00915Y00335
X00894998Y00312499
X00871Y0033
X00745122Y0024505
X00720306Y00244694
X00728Y00258
X00718Y00268
X00700306Y00275306
X00688Y00298
X00713Y00227
X0070005Y00209878
X0069Y00174
X00695432Y00158104
X00716645Y00179317
X0073Y00191
X00739Y00202
X00752Y00214673
X00758Y00162
X00769Y00155
X00725Y00136
X00722456Y00051555
X00730402Y0005
X00739Y00049
X00747598Y00047413
X00757Y00048
X007675Y000475
X00712Y00051
X01052999Y00382
X0105Y00412
X0104Y00414
X01074
X0112Y0041
X01118Y004
X01132Y0039
X011355Y0036325
X0115427Y0035373
X01157Y00326
X01155Y00312
X01115Y00335
X01103Y00356
X01111Y00372
X01175Y0037762
X01162Y00416
X01105Y00296
X0109
X01099Y00271
X01085Y00249
X01115
X01105Y00224
X0109
X01115Y00185
X0110625Y0042925
X0112125Y0044175
X01149Y00472
X00938Y004795
X00647Y00457
X00603508Y0043382
X0052Y0045
X0051Y00465
X0049Y00444926
X00475Y004525
X00453Y004845
X00436366Y00475
X00395Y00433
T02
X0013Y0024
X0013Y0035
X00255
Y0024
T03
X0027603Y00086603
X0026206Y001108
X0027603Y00134997
X0006397Y00425803
X0003603
X0030397Y00134997
X0031794Y001108
X0030397Y00086603
X0117603Y00086603
X0120397
X0121794Y001108
X0120397Y00134997
X0117603
X0116206Y001108
X0118603Y00425803
X0121397
X0122794Y0045
X0121397Y00474197
X0118603
X0117206Y0045
X0007794
X0006397Y00474197
X0003603
X0002206Y0045
T04
X0006Y000346
Y0006
X000854Y0006
X000854Y000346
X001108Y000346
Y0006
X001362Y0006
X001616Y0006
X001616Y000346
X001362Y000346
X00187Y000346
Y0006
X002124
Y000346
X002378
Y0006
X002632
Y000346
X002886
Y0006
X009614Y0006
X009868Y0006
X009868Y000346
X009614Y000346
X010122Y000346
Y0006
X010376Y0006
X01063Y0006
X01063Y000346
X010376Y000346
X010884Y000346
Y0006
X011138
Y000346
X011392
Y0006
X011646
Y000346
X0119
Y0006
X0122Y0032
Y003454
Y003708
X01122Y00475
X010966Y00475
X010712Y00475
X010458Y00475
X010204Y00475
X00995Y00475
X00350023Y00469995
Y00444595
X00324623
Y00469995
X00299223
Y00444595
X00273824
Y00469995
X00248424
Y00444595
X00223023Y00444595
X00197624Y00444595
X00197624Y00469995
X00223023Y00469995
X00172223Y00469995
Y00444595
X00146823Y00444595
X00146823Y00469995
X00121424Y00469995
Y00444595
T05
X0029Y001108
X0119Y001108
X012Y0045
X0005
M30
